<svg width="80" height="80" viewBox="0 0 80 80" fill="none" xmlns="http://www.w3.org/2000/svg">
<path d="M47.5501 27.0666L42.3952 26.0374L39.8459 21.7885C39.5694 21.3307 39.1797 20.9518 38.7143 20.6883C38.2489 20.4249 37.7235 20.2857 37.1887 20.2842H26.15C25.5423 20.2859 24.9453 20.4442 24.4165 20.7436C23.8877 21.043 23.4449 21.4736 23.1307 21.9938L20.7349 25.9864L11.1487 27.0516C10.8732 27.0823 10.6186 27.2135 10.4336 27.4201C10.2487 27.6267 10.1465 27.8942 10.1465 28.1715V33.8053C10.1465 34.1041 10.2652 34.3907 10.4765 34.602C10.6878 34.8133 10.9744 34.9321 11.2732 34.9321H13.7206C13.9538 35.5908 14.3854 36.161 14.956 36.5643C15.5267 36.9677 16.2083 37.1842 16.907 37.1842C17.6058 37.1842 18.2874 36.9677 18.8581 36.5643C19.4287 36.161 19.8603 35.5908 20.0935 34.9321H38.5093C38.7507 35.6145 39.2047 36.2014 39.8046 36.6064C40.4046 37.0115 41.1187 37.2132 41.8418 37.182C42.565 37.1508 43.2591 36.8883 43.8219 36.4331C44.3847 35.9778 44.7865 35.354 44.9682 34.6533L46.819 34.0364C47.296 33.8779 47.7109 33.5731 48.0049 33.1653C48.2988 32.7576 48.4567 32.2675 48.4563 31.7649V28.1715C48.4563 27.911 48.366 27.6585 48.2008 27.457C48.0356 27.2555 47.8056 27.1176 47.5501 27.0666ZM37.9134 22.948L39.6958 25.918H32.6817V22.5377H37.1887C37.3346 22.5381 37.4779 22.5761 37.6048 22.6479C37.7317 22.7198 37.838 22.8231 37.9134 22.948ZM25.063 23.1532C25.1761 22.9659 25.3355 22.8109 25.5259 22.7031C25.7163 22.5953 25.9312 22.5383 26.15 22.5377H30.4282V25.918H23.4041L25.063 23.1532ZM22.5408 28.1715H30.4282V32.6785H22.5408V28.1715ZM12.4 29.1799L20.2873 28.3036V32.6785H20.0935C19.8603 32.0198 19.4287 31.4496 18.8581 31.0463C18.2874 30.6429 17.6058 30.4264 16.907 30.4264C16.2083 30.4264 15.5267 30.6429 14.956 31.0463C14.3854 31.4496 13.9538 32.0198 13.7206 32.6785H12.4V29.1799ZM16.907 34.9321C16.6842 34.9321 16.4663 34.866 16.281 34.7422C16.0958 34.6184 15.9513 34.4424 15.8661 34.2365C15.7808 34.0306 15.7585 33.804 15.8019 33.5855C15.8454 33.3669 15.9527 33.1661 16.1103 33.0086C16.2679 32.851 16.4687 32.7437 16.6872 32.7002C16.9058 32.6567 17.1323 32.679 17.3382 32.7643C17.5441 32.8496 17.7201 32.994 17.8439 33.1793C17.9677 33.3646 18.0338 33.5824 18.0338 33.8053C18.0335 34.104 17.9146 34.3904 17.7034 34.6017C17.4922 34.8129 17.2058 34.9317 16.907 34.9321ZM41.6958 34.9321C41.4729 34.9321 41.2551 34.866 41.0698 34.7422C40.8845 34.6184 40.7401 34.4424 40.6548 34.2365C40.5695 34.0306 40.5472 33.804 40.5907 33.5855C40.6341 33.3669 40.7414 33.1661 40.899 33.0086C41.0566 32.851 41.2574 32.7437 41.4759 32.7002C41.6945 32.6567 41.9211 32.679 42.127 32.7643C42.3328 32.8496 42.5088 32.994 42.6326 33.1793C42.7564 33.3646 42.8225 33.5824 42.8225 33.8053C42.8222 34.104 42.7034 34.3904 42.4921 34.6017C42.2809 34.8129 41.9945 34.9317 41.6958 34.9321ZM46.2028 31.7649C46.2028 31.7945 46.1935 31.8233 46.1762 31.8473C46.1588 31.8713 46.1344 31.8892 46.1063 31.8985L44.747 32.3516C44.4595 31.7478 43.9993 31.2429 43.4246 30.9007C42.85 30.5586 42.1867 30.3947 41.5189 30.4297C40.851 30.4647 40.2085 30.697 39.6728 31.0974C39.137 31.4977 38.7321 32.048 38.5093 32.6785H32.6817V28.1715H41.5741L46.2028 29.0956V31.7649Z" fill="#0A58CA"/>
<path d="M56.5645 48.5972C56.4599 48.4925 56.3356 48.4095 56.1989 48.3529C56.0622 48.2963 55.9157 48.2671 55.7677 48.2671C55.6197 48.2671 55.4732 48.2963 55.3365 48.3529C55.1998 48.4095 55.0756 48.4925 54.971 48.5972L54.1742 49.3938L52.2535 47.4729C56.3635 42.3064 58.5981 35.8977 58.5915 29.2958C58.5915 13.1421 45.4494 0 29.2958 0C13.1421 0 0 13.1421 0 29.2958C0 45.4494 13.1421 58.5915 29.2958 58.5915C35.8977 58.5981 42.3064 56.3635 47.4729 52.2535L49.3943 54.1743L48.5976 54.971C48.4929 55.0756 48.4099 55.1998 48.3533 55.3365C48.2967 55.4732 48.2675 55.6197 48.2675 55.7677C48.2675 55.9157 48.2967 56.0622 48.3533 56.1989C48.4099 56.3356 48.4929 56.4599 48.5976 56.5645L71.7025 79.67C71.8071 79.7746 71.9313 79.8576 72.068 79.9142C72.2048 79.9709 72.3513 80 72.4993 80C72.6472 80 72.7938 79.9709 72.9305 79.9142C73.0672 79.8576 73.1914 79.7746 73.296 79.67L79.67 73.2957C79.7746 73.1911 79.8576 73.0669 79.9142 72.9302C79.9709 72.7935 80 72.6469 80 72.499C80 72.351 79.9709 72.2045 79.9142 72.0678C79.8576 71.9311 79.7746 71.8068 79.67 71.7022L56.5645 48.5972ZM29.2958 56.338C14.3846 56.338 2.25352 44.2069 2.25352 29.2958C2.25352 14.3846 14.3846 2.25352 29.2958 2.25352C44.2069 2.25352 56.338 14.3846 56.338 29.2958C56.344 35.3001 54.3415 41.1339 50.6491 45.8687L49.0422 44.2622C52.3182 39.9611 54.0899 34.7024 54.0845 29.2958C54.0845 15.6272 42.9643 4.50704 29.2958 4.50704C15.6272 4.50704 4.50704 15.6272 4.50704 29.2958C4.50704 42.9643 15.6272 54.0845 29.2958 54.0845C34.7024 54.0899 39.9611 52.3182 44.2622 49.0422L45.8687 50.6487C41.134 54.3412 35.3001 56.3439 29.2958 56.338ZM47.5942 49.1879L46.0007 47.5942C46.5554 47.0872 47.0865 46.556 47.5941 46.0007L49.1877 47.5943C48.6789 48.1472 48.1477 48.6784 47.5942 49.1879ZM46.2069 41.4265C46.1022 41.3218 45.978 41.2388 45.8413 41.1822C45.7046 41.1256 45.5581 41.0964 45.4101 41.0964C45.2621 41.0964 45.1156 41.1256 44.9789 41.1822C44.8422 41.2388 44.718 41.3218 44.6134 41.4265L41.4265 44.6134C41.3218 44.718 41.2388 44.8422 41.1822 44.9789C41.1256 45.1156 41.0964 45.2621 41.0964 45.4101C41.0964 45.5581 41.1256 45.7046 41.1822 45.8413C41.2388 45.978 41.3218 46.1022 41.4265 46.2069L42.6532 47.4336C38.7877 50.2944 34.1047 51.836 29.2958 51.831C16.8697 51.831 6.76056 41.7217 6.76056 29.2958C6.76056 16.8699 16.8697 6.76056 29.2958 6.76056C41.7218 6.76056 51.831 16.8699 51.831 29.2958C51.836 34.1047 50.2944 38.7877 47.4336 42.6532L46.2069 41.4265ZM43.8169 45.4101L45.4101 43.8169L45.9997 44.4065C45.4953 44.9635 44.9642 45.4946 44.4063 45.9998L43.8169 45.4101ZM49.188 50.7814C49.7393 50.2707 50.2704 49.7395 50.7815 49.1879L52.581 50.9873L50.9873 52.5808L49.188 50.7814ZM72.4993 77.2798L50.9873 55.7677L51.7834 54.9717L54.9718 51.7841L54.9731 51.7827L55.7684 50.9873L77.2798 72.4993L72.4993 77.2798Z" fill="#0A58CA"/>
</svg>
