<svg width="80" height="80" viewBox="0 0 80 80" fill="none" xmlns="http://www.w3.org/2000/svg">
<path d="M40.0006 0C18.9325 0 1.68093 16.2915 0.126305 36.9611C0.0476179 37.1252 0 37.3059 0 37.5C0 37.6251 0.0238054 37.7441 0.0586179 37.8582C0.0207429 38.5675 0 39.281 0 39.9994C0 40.7184 0.0207429 41.4319 0.0586179 42.1418C0.0238054 42.2559 0 42.3749 0 42.5C0 42.6941 0.0476179 42.8754 0.12693 43.0389C1.68149 63.7091 18.9325 80 40.0006 80C62.0911 80 80 62.0911 80 39.9994C80 17.9089 62.0911 0 40.0006 0ZM53.0951 39.4061C52.9437 36.0364 51.5369 32.9944 49.3121 30.7538L65.9973 25.058C66.6919 26.2616 67.3059 27.5171 67.8302 28.8184L53.0951 39.4061ZM40 50.625C34.1413 50.625 29.375 45.8587 29.375 40C29.375 34.1413 34.1413 29.375 40 29.375C45.8587 29.375 50.625 34.1413 50.625 40C50.625 45.8587 45.8587 50.625 40 50.625ZM46.9897 28.905C44.9646 27.6263 42.5726 26.875 40 26.875C37.5214 26.875 35.2118 27.5744 33.2342 28.7689L15.5029 22.7154C20.9406 15.0311 29.8914 10 40.0006 10C50.1849 10 59.1943 15.1056 64.6197 22.8869L46.9897 28.905ZM14.1132 24.8651C14.1614 24.8889 14.2084 24.9152 14.2609 24.9329L30.8539 30.5969C28.6328 32.7576 27.1814 35.6958 26.9269 38.9734L12.3077 28.4686C12.829 27.2217 13.4357 26.0205 14.1132 24.8651ZM11.4136 30.9039L27.0661 42.1509C27.6184 45.4919 29.4257 48.4015 31.9959 50.3851L35.0677 69.5874C20.8649 67.2272 10 54.8614 10 39.9994C10 36.8293 10.4981 33.7744 11.4136 30.9039ZM37.6496 69.8993L34.7937 52.0465C36.3904 52.7374 38.1494 53.125 40 53.125C41.8506 53.125 43.6096 52.7374 45.2063 52.0465L42.3504 69.8993C41.5741 69.9597 40.7922 70 40.0006 70C39.2084 70 38.4259 69.9597 37.6496 69.8993ZM48.0041 50.3851C50.4449 48.5016 52.2119 45.7874 52.8552 42.6562L68.7012 31.2708C69.5429 34.0344 70 36.9641 70 39.9994C70 54.8614 59.1351 67.2278 44.9322 69.5874L48.0041 50.3851ZM72.4682 38.75H77.4682C77.4817 39.1656 77.5 39.5807 77.5 39.9994C77.5 40.4187 77.4817 40.8337 77.4682 41.25H72.4682C72.4841 40.8344 72.5 40.4187 72.5 39.9994C72.5 39.5801 72.4841 39.1651 72.4682 38.75ZM40.0006 2.5C59.4128 2.5 75.4248 17.3267 77.312 36.25H72.2778C71.9909 33.7537 71.4246 31.3428 70.6042 29.0515C70.5804 28.8983 70.5267 28.75 70.4431 28.6103C65.8282 16.2805 53.9416 7.5 40.0006 7.5C23.3197 7.5 9.58193 20.0684 7.72218 36.25H2.68799C4.57518 17.3267 20.5877 2.5 40.0006 2.5ZM2.5 39.9994C2.5 39.5807 2.51831 39.1656 2.53174 38.75H7.53174C7.51587 39.1651 7.5 39.5801 7.5 39.9994C7.5 40.4187 7.51587 40.8344 7.53174 41.25H2.53174C2.51831 40.8337 2.5 40.4187 2.5 39.9994ZM40.0006 77.5C20.5884 77.5 4.57581 62.6733 2.68799 43.75H7.72218C9.5825 59.9316 23.3203 72.5 40.0006 72.5C56.6797 72.5 70.4175 59.9316 72.2778 43.75H77.312C75.4242 62.6733 59.4122 77.5 40.0006 77.5Z" fill="#0A58CA"/>
<path d="M40 35C37.2388 35 35 37.2388 35 40C35 42.7612 37.2388 45 40 45C42.7612 45 45 42.7612 45 40C45 37.2388 42.7612 35 40 35ZM40 42.5C38.6212 42.5 37.5 41.3788 37.5 40C37.5 38.6212 38.6212 37.5 40 37.5C41.3788 37.5 42.5 38.6212 42.5 40C42.5 41.3788 41.3788 42.5 40 42.5Z" fill="#0A58CA"/>
</svg>
