<svg width="80" height="70" viewBox="0 0 80 70" fill="none" xmlns="http://www.w3.org/2000/svg">
<path d="M40 34.3135C35.1875 34.3135 31.25 38.251 31.25 43.0635V44.9385H20.625C19.25 44.9385 18.125 43.8135 18.125 42.4385V39.3135H26C27.75 39.3135 29.375 38.376 30.3125 36.876L33 32.4385C33.25 32.0635 33.25 31.5635 33 31.1885C32.75 30.8135 32.375 30.5635 31.9375 30.5635H1.875C1.4375 30.5635 1 30.8135 0.8125 31.1885C0.625 31.5635 0.625 32.0635 0.8125 32.4385L3.5 36.876C4.375 38.376 6.0625 39.3135 7.8125 39.3135H15.625V42.4385C15.625 45.1885 17.875 47.4385 20.625 47.4385H31.25C31.25 49.1885 30.75 50.9385 29.75 52.3761L25.5625 58.6886H22.5C19.75 58.6886 17.5 60.9386 17.5 63.6886V66.1886C17.5 68.2511 19.1875 69.9386 21.25 69.9386H58.75C60.8125 69.9386 62.5 68.2511 62.5 66.1886V63.6886C62.5 60.9386 60.25 58.6886 57.5 58.6886H54.4375L50.25 52.3761C49.3125 50.9385 48.75 49.1885 48.75 47.4385H59.375C62.125 47.4385 64.375 45.1885 64.375 42.4385V39.3135H72.25C74 39.3135 75.625 38.376 76.5625 36.876L79.25 32.4385C79.5 32.0635 79.5 31.5635 79.25 31.1885C79 30.8135 78.625 30.5635 78.1875 30.5635H48.125C47.6875 30.5635 47.25 30.8135 47.0625 31.1885C46.875 31.5635 46.875 32.0635 47.0625 32.4385L49.75 36.876C50.625 38.376 52.3125 39.3135 54.0625 39.3135H61.875V42.4385C61.875 43.8135 60.75 44.9385 59.375 44.9385H48.75V43.0635C48.75 38.251 44.8125 34.3135 40 34.3135ZM5.625 35.626L4.0625 33.0635H29.625L28.125 35.626C27.6875 36.376 26.875 36.8135 26 36.8135H7.75C6.875 36.8135 6.0625 36.376 5.625 35.626ZM51.875 35.626L50.3125 33.0635H75.875L74.375 35.626C73.9375 36.376 73.125 36.8135 72.25 36.8135H54C53.125 36.8135 52.3125 36.376 51.875 35.626ZM52.6875 60.6261C52.9375 61.0011 53.3125 61.1886 53.75 61.1886H57.5C58.875 61.1886 60 62.3136 60 63.6886V66.1886C60 66.8761 59.4375 67.4386 58.75 67.4386H21.25C20.5625 67.4386 20 66.8761 20 66.1886V63.6886C20 62.3136 21.125 61.1886 22.5 61.1886H47.5C48.1875 61.1886 48.75 60.6261 48.75 59.9386C48.75 59.2511 48.1875 58.6886 47.5 58.6886H28.5625L31.8125 53.7511C33.0625 51.8761 33.6875 49.751 33.6875 47.501V43.0635C33.6875 39.626 36.5 36.8135 39.9375 36.8135C43.375 36.8135 46.1875 39.626 46.1875 43.0635V47.5635C46.1875 49.8135 46.8125 51.9386 48.0625 53.8136L52.6875 60.6261Z" fill="#0A58CA"/>
<path d="M40 41.1885C38.9375 41.1885 38.125 42.001 38.125 43.0635C38.125 44.126 38.9375 44.9385 40 44.9385C41.0625 44.9385 41.875 44.126 41.875 43.0635C41.875 42.001 41.0625 41.1885 40 41.1885Z" fill="#0A58CA"/>
<path d="M5.6228 15.3737C5.4978 16.0612 5.9978 16.6862 6.6228 16.8112L10.3728 17.4362C10.4353 17.4362 10.4978 17.4362 10.5603 17.4362C11.1853 17.4362 11.6853 16.9987 11.8103 16.3737C11.9353 15.6862 11.4353 15.0612 10.8103 14.9362L7.0603 14.3112C6.3728 14.1862 5.7478 14.6862 5.6228 15.3737Z" fill="#0A58CA"/>
<path d="M21.8728 16.3758C21.9978 17.0008 22.4978 17.4383 23.1228 17.4383C23.1853 17.4383 23.2478 17.4383 23.3103 17.4383L27.0603 16.8133C27.7478 16.6883 28.1853 16.0633 28.0603 15.3758C27.9353 14.6883 27.3103 14.2508 26.6228 14.3758L22.8728 15.0008C22.2478 15.0633 21.7478 15.6883 21.8728 16.3758Z" fill="#0A58CA"/>
<path d="M2.875 10.5C1.875 11.375 1.25 12.625 1.25 13.9375V18.6876C1.25 20.8751 2.875 22.6876 5 23.0001V25.5626C5 26.9376 6.125 28.0626 7.5 28.0626H10C11.375 28.0626 12.5 26.9376 12.5 25.5626V23.0626H21.25V25.5626C21.25 26.9376 22.375 28.0626 23.75 28.0626H26.25C27.625 28.0626 28.75 26.9376 28.75 25.5626V23.0001C30.875 22.6876 32.5 20.8751 32.5 18.6876V13.9375C32.5 12.625 31.875 11.375 30.875 10.5C31.625 10.4375 32.3125 10.125 32.8125 9.62503C33.375 9.06253 33.75 8.25003 33.75 7.43753C33.75 5.68752 32.375 4.31251 30.625 4.31251C29.9375 4.31251 29.375 4.87502 29.375 5.56252C29.375 6.25002 29.9375 6.81252 30.625 6.81252C30.9375 6.81252 31.25 7.06252 31.25 7.43753C31.25 7.68753 31.125 7.81253 31.0625 7.87503C31 7.93753 30.875 8.06253 30.625 8.06253H28.8125L27.8125 5.06252C26.75 2.00001 23.9375 0 20.6875 0H13.0625C9.875 0 7 2.06251 5.9375 5.06252L4.9375 8.06253H3.125C2.9375 8.06253 2.75 7.93753 2.6875 7.87503C2.625 7.81253 2.5 7.62503 2.5 7.43753C2.5 7.12502 2.75 6.81252 3.125 6.81252C3.8125 6.81252 4.375 6.25002 4.375 5.56252C4.375 4.87502 3.8125 4.31251 3.125 4.31251C1.375 4.31251 0 5.68752 0 7.43753C0 8.25003 0.3125 9.06253 0.9375 9.62503C1.4375 10.1875 2.125 10.5 2.875 10.5ZM10 25.5626H7.5V23.0626H10V25.5626ZM23.75 25.5626V23.0626H26.25V25.5626H23.75ZM8.3125 5.81252C9 3.81251 10.875 2.43751 13.0625 2.43751H20.6875C22.8125 2.43751 24.75 3.81251 25.4375 5.81252L26.6875 9.43753C26.9375 10.25 27.4375 10.9375 28.125 11.4375L29.375 12.4375C29.8125 12.8125 30.0625 13.3125 30.0625 13.875V18.6876C30.0625 19.7501 29.25 20.5626 28.1875 20.5626H5.625C4.5625 20.5626 3.75 19.7501 3.75 18.6876V13.9375C3.75 13.375 4 12.8125 4.4375 12.5L5.6875 11.5C6.3125 11 6.8125 10.3125 7.125 9.50003L8.3125 5.81252Z" fill="#0A58CA"/>
<path d="M13.0625 11.1885H20.6875C21.375 11.1885 21.9375 10.626 21.9375 9.93848C21.9375 9.25098 21.375 8.68848 20.6875 8.68848H13.0625C12.375 8.68848 11.8125 9.25098 11.8125 9.93848C11.8125 10.626 12.375 11.1885 13.0625 11.1885Z" fill="#0A58CA"/>
<path d="M57.0603 14.9363L53.3103 14.3113C52.6228 14.1863 51.9978 14.6863 51.8728 15.3113C51.7478 15.9988 52.2478 16.6238 52.8728 16.7488L56.6228 17.3738C56.6853 17.3738 56.7478 17.3738 56.8103 17.3738C57.4353 17.3738 57.9353 16.9363 58.0603 16.3113C58.2478 15.6863 57.7478 15.0613 57.0603 14.9363Z" fill="#0A58CA"/>
<path d="M72.9373 14.3112L69.1873 14.9362C68.4998 15.0612 68.0623 15.6862 68.1873 16.3737C68.3123 16.9987 68.8123 17.4362 69.4373 17.4362C69.4998 17.4362 69.5623 17.4362 69.6248 17.4362L73.3748 16.8112C74.0623 16.6862 74.4998 16.0612 74.3748 15.3737C74.2498 14.6862 73.6248 14.1862 72.9373 14.3112Z" fill="#0A58CA"/>
<path d="M76.875 4.31349C76.1875 4.31349 75.625 4.87599 75.625 5.5635C75.625 6.251 76.1875 6.8135 76.875 6.8135C77.1875 6.8135 77.5 7.0635 77.5 7.4385C77.5 7.6885 77.375 7.8135 77.3125 7.876C77.25 7.9385 77.125 8.0635 76.875 8.0635H75.0625L74.0625 5.06349C73 2.00098 70.1875 0.000976562 66.9375 0.000976562H59.3125C56.125 0.000976562 53.25 2.06348 52.1875 5.06349L51.1875 8.0635H49.375C49.125 8.0635 49 7.9385 48.9375 7.876C48.875 7.8135 48.75 7.626 48.75 7.4385C48.75 7.126 49 6.8135 49.375 6.8135C50.0625 6.8135 50.625 6.251 50.625 5.5635C50.625 4.87599 50.0625 4.31349 49.375 4.31349C47.625 4.31349 46.25 5.6885 46.25 7.4385C46.25 8.251 46.5625 9.06351 47.1875 9.62601C47.75 10.1885 48.4375 10.4385 49.125 10.501C48.125 11.376 47.5 12.626 47.5 13.9385V18.6885C47.5 20.876 49.125 22.6886 51.25 23.0011V25.5636C51.25 26.9386 52.375 28.0636 53.75 28.0636H56.25C57.625 28.0636 58.75 26.9386 58.75 25.5636V23.0636H67.5V25.5636C67.5 26.9386 68.625 28.0636 70 28.0636H72.5C73.875 28.0636 75 26.9386 75 25.5636V23.0011C77.125 22.6886 78.75 20.876 78.75 18.6885V13.9385C78.75 12.626 78.125 11.376 77.125 10.501C77.875 10.4385 78.5625 10.126 79.0625 9.62601C79.625 9.06351 80 8.251 80 7.4385C80 5.6885 78.625 4.31349 76.875 4.31349ZM56.25 25.5636H53.75V23.0636H56.25V25.5636ZM70 25.5636V23.0636H72.5V25.5636H70ZM76.25 18.6885C76.25 19.751 75.4375 20.5635 74.375 20.5635H51.875C50.8125 20.5635 50 19.751 50 18.6885V13.9385C50 13.376 50.25 12.8135 50.6875 12.501L51.9375 11.501C52.5625 11.001 53.0625 10.3135 53.375 9.50101L54.625 5.876C55.3125 3.87599 57.1875 2.50099 59.375 2.50099H67C69.125 2.50099 71.0625 3.87599 71.75 5.876L73 9.50101C73.25 10.3135 73.75 11.001 74.4375 11.501L75.6875 12.501C76.125 12.876 76.375 13.376 76.375 13.9385L76.25 18.6885Z" fill="#0A58CA"/>
<path d="M66.9375 8.68848H59.3125C58.625 8.68848 58.0625 9.25098 58.0625 9.93848C58.0625 10.626 58.625 11.1885 59.3125 11.1885H66.9375C67.625 11.1885 68.1875 10.626 68.1875 9.93848C68.1875 9.25098 67.625 8.68848 66.9375 8.68848Z" fill="#0A58CA"/>
</svg>
