<svg width="60" height="44" viewBox="0 0 60 44" fill="none" xmlns="http://www.w3.org/2000/svg">
<path d="M59.2742 20.228L56.1963 17.1503L39.7679 0.749097L39.7704 0.746633C39.294 0.271055 38.6499 0 37.976 0C37.3022 0 36.6556 0.271055 36.1817 0.746633L34.9179 2.00826C34.4366 2.48384 34.1651 3.12941 34.1651 3.80464C34.1651 4.47734 34.4367 5.12544 34.9179 5.59855L47.9008 18.5675H2.52745C1.13293 18.5675 0 19.6985 0 21.0907V22.8821C0 23.5524 0.26657 24.193 0.740479 24.6661C1.21438 25.1417 1.85856 25.4054 2.52745 25.4054H47.9008L34.9104 38.4015C34.4291 38.8746 34.16 39.5226 34.16 40.1954C34.16 40.8705 34.4291 41.5162 34.9104 41.9917L36.1741 43.2534C36.648 43.7289 37.2946 44 37.9685 44C38.6423 44 39.2889 43.7289 39.7628 43.2534L56.1912 26.8522L59.2691 23.7745V23.772C60.2416 22.7913 60.244 21.2118 59.274 20.2286L59.2742 20.228Z" fill="#E5E5E5"/>
</svg>
