<svg width="32" height="32" viewBox="0 0 32 32" fill="none" xmlns="http://www.w3.org/2000/svg">
<path d="M15.9998 2.66675C8.63687 2.66675 2.6665 8.37817 2.6665 15.4224C2.6665 18.8069 4.04428 21.8821 6.29169 24.1642C6.7865 24.6667 7.11687 25.3532 6.98354 26.0598C6.7635 27.215 6.26482 28.2926 5.53465 29.1907C7.45577 29.548 9.45335 29.2263 11.1665 28.3153C11.7721 27.9932 12.0749 27.8322 12.2885 27.7996C12.5022 27.7669 12.8083 27.8244 13.4204 27.9394C14.2708 28.0991 15.1341 28.1791 15.9998 28.178C23.3628 28.178 29.3332 22.4666 29.3332 15.4224C29.3332 14.2369 29.1641 13.0892 28.8477 12.0001" stroke="currentColor" stroke-width="1.5" stroke-linecap="round" stroke-linejoin="round"/>
<path d="M18.6665 8.00008C18.6665 8.00008 19.9998 8.00008 21.3332 10.6667C21.3332 10.6667 25.5685 4.00008 29.3332 2.66675" stroke="currentColor" stroke-width="1.5" stroke-linecap="round" stroke-linejoin="round"/>
<path d="M15.9939 16H16.0058M21.3212 16H21.3332M10.6665 16H10.6785" stroke="currentColor" stroke-width="2" stroke-linecap="round" stroke-linejoin="round"/>
</svg>
