<svg width="32" height="32" viewBox="0 0 32 32" fill="none" xmlns="http://www.w3.org/2000/svg">
<path d="M20 12L12 19.9995M20 20L12 12.0005" stroke="currentColor" stroke-width="1.5" stroke-linecap="round" stroke-linejoin="round"/>
<path d="M3.3335 15.9999C3.3335 10.0288 3.3335 7.04323 5.18849 5.18824C7.04348 3.33325 10.029 3.33325 16.0002 3.33325C21.9713 3.33325 24.9569 3.33325 26.8118 5.18824C28.6668 7.04323 28.6668 10.0288 28.6668 15.9999C28.6668 21.971 28.6668 24.9566 26.8118 26.8116C24.9569 28.6666 21.9713 28.6666 16.0002 28.6666C10.029 28.6666 7.04348 28.6666 5.18849 26.8116C3.3335 24.9566 3.3335 21.971 3.3335 15.9999Z" stroke="currentColor" stroke-width="1.5"/>
</svg>
