<svg width="32" height="32" viewBox="0 0 32 32" fill="none" xmlns="http://www.w3.org/2000/svg">
<path d="M17.3335 24.0001C17.3335 24.0001 18.6668 24.0001 20.0002 26.6667C20.0002 26.6667 24.2355 20.0001 28.0002 18.6667" stroke="currentColor" stroke-width="1.5" stroke-linecap="round" stroke-linejoin="round"/>
<path d="M14.667 29.3335H14.3034C9.95508 29.3335 7.78095 29.3335 6.27109 28.2697C5.83849 27.9649 5.45443 27.6035 5.13059 27.1963C4.00033 25.7753 4.00033 23.729 4.00033 19.6365V16.2426C4.00033 12.2917 4.00033 10.3162 4.62558 8.7385C5.63075 6.20206 7.75651 4.20134 10.4515 3.2553C12.1278 2.66683 14.2267 2.66683 18.4246 2.66683C20.8233 2.66683 22.0227 2.66683 22.9806 3.0031C24.5206 3.54369 25.7353 4.68696 26.3097 6.13635C26.667 7.03792 26.667 8.16675 26.667 10.4244V13.3335" stroke="currentColor" stroke-width="1.5" stroke-linecap="round" stroke-linejoin="round"/>
<path d="M4.00016 16C4.00016 13.5454 5.99001 11.5556 8.44461 11.5556C9.33232 11.5556 10.3789 11.7111 11.242 11.4798C12.0089 11.2744 12.6078 10.6754 12.8133 9.90849C13.0446 9.04538 12.8891 7.99882 12.8891 7.11111C12.8891 4.65651 14.8789 2.66667 17.3335 2.66667" stroke="currentColor" stroke-width="1.5" stroke-linecap="round" stroke-linejoin="round"/>
</svg>
