<svg width="24" height="24" viewBox="0 0 24 24" fill="none" xmlns="http://www.w3.org/2000/svg">
<path d="M12 24C18.6274 24 24 18.6274 24 12C24 5.37258 18.6274 0 12 0C5.37258 0 0 5.37258 0 12C0 18.6274 5.37258 24 12 24Z" fill="#0A58CA"/>
<path d="M8.72404 16.9555V8.88869H6.15163V16.9555H8.72431H8.72404ZM7.43837 7.78748C8.33524 7.78748 8.8936 7.16804 8.8936 6.39392C8.87681 5.60215 8.33524 5 7.45543 5C6.57501 5 6 5.60215 6 6.39385C6 7.16797 6.55816 7.78741 7.42152 7.78741H7.43817L7.43837 7.78748ZM10.1479 16.9555H12.7201V12.4511C12.7201 12.2104 12.7369 11.9689 12.8049 11.797C12.9907 11.3151 13.414 10.8162 14.1248 10.8162C15.0554 10.8162 15.4279 11.5559 15.4279 12.6405V16.9555H18V12.3303C18 9.85256 16.7311 8.69956 15.0387 8.69956C13.6512 8.69956 13.0418 9.50792 12.7032 10.0585H12.7203V8.88897H10.148C10.1816 9.64573 10.1478 16.9558 10.1478 16.9558L10.1479 16.9555Z" fill="white"/>
</svg>
