<svg width="25" height="24" viewBox="0 0 25 24" fill="none" xmlns="http://www.w3.org/2000/svg">
<g clip-path="url(#clip0_81_289)">
<path d="M22.3145 9.64882L14.4233 1.75762C13.3005 0.628474 11.7725 -0.00447617 10.1801 2.38316e-05H4.1001C2.9961 0.00137383 2.10145 0.896024 2.1001 2.00002V23.6C2.1001 23.8209 2.2792 24 2.5001 24H14.2753C15.2999 24 16.2426 23.4403 16.7333 22.5408C17.8172 20.5517 19.4517 18.9172 21.4409 17.8332C22.3404 17.3426 22.9 16.3998 22.9001 15.3752V11.0628C22.9016 10.5322 22.6907 10.023 22.3145 9.64882ZM22.1001 15.3752C22.1001 16.1072 21.7003 16.7808 21.0577 17.1312C18.9335 18.2882 17.1883 20.0335 16.0313 22.1576C15.6808 22.8003 15.0073 23.2001 14.2753 23.2H2.9001V2.00002C2.9001 1.33727 3.43735 0.800024 4.1001 0.800024H10.1801C11.56 0.796274 12.8842 1.34477 13.8573 2.32322L21.7489 10.2144C21.973 10.44 22.0992 10.7448 22.1001 11.0628V15.3752Z" fill="#0A58CA"/>
<path d="M20.3828 10.1172L13.1544 2.88879C12.3311 2.06089 11.2108 1.59684 10.0432 1.59999H4.89995C4.2372 1.59999 3.69995 2.13724 3.69995 2.79999V10.4C3.69995 10.6209 3.87905 10.8 4.09995 10.8H20.1C20.2617 10.8 20.4076 10.7026 20.4696 10.5532C20.5315 10.4037 20.4972 10.2316 20.3828 10.1172ZM14.1 9.99999H4.49995V2.79999C4.49995 2.57909 4.67905 2.39999 4.89995 2.39999H10.0432C10.9985 2.39739 11.9151 2.77704 12.5888 3.45439L14.1 4.96559V9.99999ZM14.9 9.99999V5.76559L19.1344 9.99999H14.9Z" fill="#0A58CA"/>
<path d="M19.3 12H16.9C16.2372 12 15.7 12.5372 15.7 13.2C15.7 13.8627 16.2372 14.4 16.9 14.4H19.3C19.9627 14.4 20.5 13.8627 20.5 13.2C20.5 12.5373 19.9627 12 19.3 12ZM19.3 13.6H16.9C16.6791 13.6 16.5 13.4209 16.5 13.2C16.5 12.9791 16.6791 12.8 16.9 12.8H19.3C19.5209 12.8 19.7 12.9791 19.7 13.2C19.7 13.4209 19.5209 13.6 19.3 13.6Z" fill="#0A58CA"/>
</g>
<defs>
<clipPath id="clip0_81_289">
<rect width="24" height="24" fill="white" transform="translate(0.5)"/>
</clipPath>
</defs>
</svg>
