<svg width="24" height="24" viewBox="0 0 24 24" fill="none" xmlns="http://www.w3.org/2000/svg">
<path d="M12.0264 24H11.9736C5.37142 24 0 18.6286 0 12.0264V11.9736C0 5.37144 5.37142 0 11.9736 0H12.0264C18.6286 0 24 5.37144 24 11.9736V12.0264C24 18.6286 18.6286 24 12.0264 24ZM11.9736 0.812375C5.81904 0.812375 0.812375 5.81906 0.812375 11.9736V12.0264C0.812375 18.181 5.81904 23.1876 11.9736 23.1876H12.0264C18.181 23.1876 23.1876 18.181 23.1876 12.0264V11.9736C23.1876 5.81906 18.181 0.812375 12.0264 0.812375H11.9736Z" fill="#0A58CA"/>
<path d="M13.6145 9.30915V11.8348H16.7389L16.2442 15.2371H13.6145V23.0757C13.0873 23.1488 12.5478 23.187 12.0003 23.187C11.3683 23.187 10.7476 23.1366 10.1432 23.0391V15.2371H7.26172V11.8348H10.1432V8.74455C10.1432 6.82735 11.6973 5.27246 13.6153 5.27246V5.27409C13.621 5.27409 13.6259 5.27246 13.6316 5.27246H16.7397V8.21488H14.7088C14.1052 8.21488 13.6153 8.70474 13.6153 9.30834L13.6145 9.30915Z" fill="#0A58CA"/>
</svg>
