<svg width="24" height="24" viewBox="0 0 24 24" fill="none" xmlns="http://www.w3.org/2000/svg">
<path d="M18.001 13.0001H6.00098C5.40098 13.0001 5.00098 12.6001 5.00098 12.0001C5.00098 11.4001 5.40098 11.0001 6.00098 11.0001H18.001C18.601 11.0001 19.001 11.4001 19.001 12.0001C19.001 12.6001 18.601 13.0001 18.001 13.0001Z" fill="#0A58CA"/>
<path d="M15.001 19.0001H9.00098C8.40098 19.0001 8.00098 18.6001 8.00098 18.0001C8.00098 17.4001 8.40098 17.0001 9.00098 17.0001H15.001C15.601 17.0001 16.001 17.4001 16.001 18.0001C16.001 18.6001 15.601 19.0001 15.001 19.0001Z" fill="#0A58CA"/>
<path d="M21.001 7.00006H3.00098C2.40098 7.00006 2.00098 6.60006 2.00098 6.00006C2.00098 5.40006 2.40098 5.00006 3.00098 5.00006H21.001C21.601 5.00006 22.001 5.40006 22.001 6.00006C22.001 6.60006 21.601 7.00006 21.001 7.00006Z" fill="#0A58CA"/>
</svg>
