<svg width="24" height="24" viewBox="0 0 24 24" fill="none" xmlns="http://www.w3.org/2000/svg">
<g clip-path="url(#clip0_250_704)">
<path d="M21.0093 19.4029C21.0093 18.8404 20.5552 18.4449 19.9405 18.4449H18.6655V21.2813H19.2725V20.3606H19.7225L20.3707 21.2813H21.0644L20.3667 20.2905C20.5546 20.2306 20.7183 20.1121 20.834 19.9524C20.9496 19.7926 21.011 19.6001 21.0093 19.4029ZM19.874 19.8032H19.2712V19.0024H19.874C20.1753 19.0024 20.3817 19.1593 20.3817 19.4029C20.3817 19.6464 20.1755 19.8032 19.874 19.8032Z" fill="#0A58CA"/>
<path d="M20.1911 16.7277V7.27208C20.9944 7.18801 21.7347 6.79886 22.2595 6.18491C22.7842 5.57095 23.0532 4.77902 23.0112 3.97248C22.9691 3.16594 22.619 2.40631 22.0333 1.85031C21.4475 1.2943 20.6706 0.984324 19.863 0.984324C19.0554 0.984324 18.2785 1.2943 17.6928 1.85031C17.107 2.40631 16.7569 3.16594 16.7148 3.97248C16.6728 4.77902 16.9418 5.57095 17.4666 6.18491C17.9913 6.79886 18.7316 7.18801 19.5349 7.27208V11.6718H12.3281V7.27208C13.1314 7.18801 13.8718 6.79884 14.3966 6.18485C14.9213 5.57086 15.1904 4.77888 15.1483 3.97229C15.1063 3.1657 14.7562 2.40603 14.1704 1.84998C13.5846 1.29394 12.8077 0.983948 12 0.983948C11.1923 0.983948 10.4154 1.29394 9.82962 1.84998C9.24381 2.40603 8.89375 3.1657 8.85166 3.97229C8.80957 4.77888 9.07866 5.57086 9.60342 6.18485C10.1282 6.79884 10.8686 7.18801 11.6719 7.27208V11.6718H4.46513V7.27208C5.26843 7.18801 6.00883 6.79884 6.53359 6.18485C7.05834 5.57086 7.32743 4.77888 7.28534 3.97229C7.24326 3.1657 6.8932 2.40603 6.30738 1.84998C5.72157 1.29394 4.94469 0.983948 4.137 0.983948C3.32932 0.983948 2.55243 1.29394 1.96662 1.84998C1.38081 2.40603 1.03075 3.1657 0.988662 3.97229C0.946573 4.77888 1.21566 5.57086 1.74042 6.18485C2.26518 6.79884 3.00558 7.18801 3.80888 7.27208V16.7277C3.00563 16.8118 2.26528 17.2009 1.74055 17.8149C1.21583 18.4288 0.946761 19.2208 0.98885 20.0273C1.03094 20.8338 1.38098 21.5935 1.96675 22.1495C2.55253 22.7055 3.32937 23.0155 4.137 23.0155C4.94464 23.0155 5.72147 22.7055 6.30725 22.1495C6.89303 21.5935 7.24307 20.8338 7.28516 20.0273C7.32725 19.2208 7.05818 18.4288 6.53345 17.8149C6.00873 17.2009 5.26838 16.8118 4.46513 16.7277V12.328H11.6719V16.7277C10.8686 16.8118 10.1282 17.2009 9.60342 17.8149C9.07866 18.4289 8.80957 19.2209 8.85166 20.0275C8.89375 20.8341 9.24381 21.5938 9.82962 22.1498C10.4154 22.7058 11.1923 23.0158 12 23.0158C12.8077 23.0158 13.5846 22.7058 14.1704 22.1498C14.7562 21.5938 15.1063 20.8341 15.1483 20.0275C15.1904 19.2209 14.9213 18.4289 14.3966 17.8149C13.8718 17.2009 13.1314 16.8118 12.3281 16.7277V12.328H19.5349V16.7277C18.7316 16.8118 17.9912 17.2009 17.4664 17.8149C16.9417 18.4289 16.6726 19.2209 16.7147 20.0275C16.7568 20.8341 17.1068 21.5938 17.6926 22.1498C18.2784 22.7058 19.0553 23.0158 19.863 23.0158C20.6707 23.0158 21.4476 22.7058 22.0334 22.1498C22.6192 21.5938 22.9693 20.8341 23.0113 20.0275C23.0534 19.2209 22.7843 18.4289 22.2596 17.8149C21.7348 17.2009 20.9944 16.8118 20.1911 16.7277ZM9.50363 4.13689C9.50359 3.64314 9.64997 3.16048 9.92425 2.74993C10.1985 2.33937 10.5884 2.01938 11.0446 1.8304C11.5007 1.64143 12.0026 1.59197 12.4869 1.68827C12.9712 1.78457 13.416 2.02231 13.7651 2.37143C14.1143 2.72055 14.3521 3.16536 14.4484 3.64961C14.5447 4.13387 14.4953 4.63581 14.3064 5.09198C14.1174 5.54814 13.7975 5.93803 13.3869 6.21235C12.9764 6.48666 12.4937 6.63308 12 6.63308C11.3382 6.63228 10.7037 6.36904 10.2357 5.90109C9.76776 5.43315 9.50447 4.79869 9.50363 4.13689ZM1.64063 4.13689C1.64059 3.64314 1.78697 3.16048 2.06125 2.74993C2.33553 2.33937 2.7254 2.01938 3.18155 1.8304C3.6377 1.64143 4.13965 1.59197 4.62391 1.68827C5.10817 1.78457 5.553 2.02231 5.90214 2.37143C6.25128 2.72055 6.48906 3.16536 6.5854 3.64961C6.68174 4.13387 6.63231 4.63581 6.44337 5.09198C6.25443 5.54814 5.93446 5.93803 5.52393 6.21235C5.1134 6.48666 4.63075 6.63308 4.137 6.63308C3.47518 6.63233 2.84068 6.36911 2.37269 5.90115C1.90469 5.43319 1.64142 4.79871 1.64063 4.13689ZM6.63319 19.8629C6.63323 20.3566 6.48684 20.8393 6.21255 21.2499C5.93826 21.6604 5.54838 21.9804 5.09222 22.1694C4.63606 22.3584 4.13411 22.4078 3.64984 22.3115C3.16558 22.2152 2.72075 21.9774 2.37161 21.6283C2.02248 21.2791 1.78472 20.8343 1.6884 20.35C1.59208 19.8658 1.64153 19.3638 1.8305 18.9077C2.01947 18.4515 2.33947 18.0616 2.75002 17.7873C3.16058 17.513 3.64325 17.3667 4.137 17.3667C4.79879 17.3675 5.43324 17.6307 5.9012 18.0987C6.36915 18.5666 6.6324 19.2011 6.63319 19.8629ZM14.4964 19.8629C14.4964 20.3566 14.35 20.8393 14.0758 21.2499C13.8015 21.6604 13.4116 21.9804 12.9555 22.1694C12.4993 22.3583 11.9974 22.4078 11.5131 22.3115C11.0288 22.2152 10.584 21.9775 10.2349 21.6283C9.88572 21.2792 9.64795 20.8344 9.55161 20.3502C9.45527 19.8659 9.5047 19.364 9.69363 18.9078C9.88257 18.4516 10.2025 18.0617 10.6131 17.7874C11.0236 17.5131 11.5063 17.3667 12 17.3667C12.6618 17.3675 13.2963 17.6307 13.7643 18.0987C14.2322 18.5666 14.4955 19.2011 14.4964 19.8629ZM17.3668 4.13689C17.3668 3.64314 17.5132 3.16046 17.7875 2.74991C18.0617 2.33935 18.4516 2.01935 18.9078 1.83039C19.3639 1.64142 19.8659 1.59197 20.3502 1.68828C20.8344 1.7846 21.2793 2.02236 21.6284 2.3715C21.9775 2.72063 22.2153 3.16546 22.3116 3.64973C22.4079 4.13399 22.3585 4.63595 22.1695 5.09211C21.9805 5.54827 21.6605 5.93815 21.25 6.21244C20.8394 6.48673 20.3568 6.63311 19.863 6.63308C19.2012 6.63228 18.5668 6.36904 18.0988 5.90108C17.6309 5.43313 17.3676 4.79867 17.3668 4.13689ZM19.863 22.3593C19.3693 22.3593 18.8866 22.2129 18.4761 21.9385C18.0656 21.6642 17.7456 21.2744 17.5567 20.8182C17.3677 20.3621 17.3183 19.8601 17.4146 19.3759C17.5109 18.8916 17.7487 18.4468 18.0978 18.0977C18.4469 17.7486 18.8917 17.5108 19.376 17.4145C19.8602 17.3182 20.3622 17.3676 20.8183 17.5565C21.2745 17.7455 21.6644 18.0654 21.9387 18.476C22.213 18.8865 22.3594 19.3692 22.3594 19.8629C22.3586 20.5247 22.0954 21.1593 21.6274 21.6273C21.1594 22.0953 20.5249 22.3585 19.863 22.3593Z" fill="#0A58CA"/>
<path d="M4.44212 5.55512V2.71881H3.95518L3.10449 3.28862L3.34824 3.718L3.83124 3.4165V5.55512H4.44212Z" fill="#0A58CA"/>
<path d="M3.05615 18.9734L3.44409 19.3484C3.52401 19.2377 3.62791 19.1465 3.74804 19.0815C3.86817 19.0166 4.00142 18.9797 4.13784 18.9734C4.19099 18.9682 4.24466 18.9739 4.29553 18.9901C4.3464 19.0064 4.3934 19.0329 4.43363 19.0681C4.47386 19.1032 4.50647 19.1462 4.52944 19.1944C4.55242 19.2427 4.56527 19.2951 4.56721 19.3484C4.56721 19.5464 4.45997 19.7323 4.12134 20.0006L3.07696 20.8096V21.3052H5.2184V20.7562H4.01709L4.53309 20.3559C5.02847 19.9968 5.19365 19.7036 5.19365 19.3246C5.19365 18.7921 4.75603 18.4207 4.1534 18.4207C3.93973 18.4189 3.72873 18.4682 3.5379 18.5643C3.34707 18.6604 3.18192 18.8007 3.05615 18.9734Z" fill="#0A58CA"/>
<path d="M13.1168 4.76044C13.1121 4.5973 13.0498 4.44109 12.941 4.31944C12.8322 4.1978 12.6838 4.11856 12.5222 4.09575C12.6713 4.06251 12.8049 3.98012 12.9015 3.86181C12.9981 3.74351 13.0522 3.59616 13.0549 3.44344C13.0549 2.99344 12.6544 2.66738 12.0145 2.66738C11.8082 2.66204 11.6034 2.70474 11.4165 2.79211C11.2295 2.87948 11.0654 3.00913 10.9371 3.17081L11.2876 3.54263C11.3695 3.44354 11.4714 3.36288 11.5866 3.30595C11.7019 3.24901 11.8279 3.21708 11.9564 3.21225C12.2376 3.21225 12.4311 3.3435 12.4311 3.55088C12.4311 3.75319 12.2453 3.86963 11.9357 3.86963L11.6095 3.8655V4.38563H11.9357C12.3197 4.3815 12.4889 4.49288 12.4889 4.71169C12.4889 4.914 12.3074 5.05856 11.9935 5.05856C11.8519 5.05801 11.712 5.02791 11.5826 4.97018C11.4533 4.91245 11.3375 4.82837 11.2426 4.72331L10.8833 5.12794C11.0271 5.28562 11.2035 5.4101 11.4003 5.49273C11.5971 5.57536 11.8095 5.61416 12.0227 5.60644C12.6835 5.60644 13.1168 5.25169 13.1168 4.76044Z" fill="#0A58CA"/>
<path d="M10.8445 20.701H12.2275V21.279H12.8385V20.701H13.2135V20.1891H12.8385V18.447H12.0996L10.7871 20.2303L10.8445 20.701ZM12.2275 19.0909V20.1891H11.4267L12.2275 19.0909Z" fill="#0A58CA"/>
<path d="M20.9758 4.59514C20.9791 4.47283 20.9568 4.35118 20.9104 4.23798C20.864 4.12479 20.7944 4.02254 20.7061 3.93781C20.6178 3.85308 20.5128 3.78772 20.3978 3.74593C20.2828 3.70414 20.1604 3.68684 20.0383 3.69514C19.8402 3.69315 19.6465 3.75385 19.485 3.86858L19.5015 3.24102H20.8185V2.69202H18.9405L18.8992 4.2237L19.3078 4.38889C19.465 4.26729 19.6583 4.20181 19.857 4.20289C20.1666 4.20289 20.3689 4.36808 20.3689 4.61539C20.3689 4.85914 20.1707 5.04908 19.8529 5.04908C19.5713 5.03758 19.3051 4.91773 19.1098 4.71458L18.75 5.14433C18.8937 5.28805 19.0652 5.40097 19.254 5.47621C19.4428 5.55145 19.645 5.58743 19.8482 5.58195C20.5256 5.58195 20.9758 5.19795 20.9758 4.59514Z" fill="#0A58CA"/>
</g>
<defs>
<clipPath id="clip0_250_704">
<rect width="24" height="24" fill="white"/>
</clipPath>
</defs>
</svg>
