<svg width="24" height="24" viewBox="0 0 24 24" fill="none" xmlns="http://www.w3.org/2000/svg">
<path d="M16.1482 4.48124H16.817C17.4324 4.48124 17.8857 4.08505 17.8857 3.52349C17.8857 2.96193 17.4316 2.56555 16.817 2.56555H15.542V5.40261H16.1487L16.1482 4.48124ZM16.1482 3.12299H16.751C17.0523 3.12299 17.2589 3.27993 17.2589 3.52349C17.2589 3.76705 17.0527 3.92399 16.751 3.92399H16.1482V3.12299Z" fill="#0A58CA"/>
<path d="M16.1484 9.82498H16.5984L17.2466 10.7458H17.9403L17.2427 9.75486C17.4306 9.69528 17.5945 9.57712 17.7103 9.41767C17.8262 9.25822 17.888 9.06585 17.8867 8.86873C17.8867 8.30736 17.4326 7.9108 16.818 7.9108H15.543V10.7464H16.1497L16.1484 9.82498ZM16.1484 8.46673H16.7512C17.0525 8.46673 17.2592 8.62367 17.2592 8.86723C17.2592 9.1108 17.0529 9.26773 16.7512 9.26773H16.1484V8.46673Z" fill="#0A58CA"/>
<path d="M16.1478 14.2569L17.5143 16.0901H18.1253V13.2536H17.5143V15.0868L16.1478 13.2536H15.541V16.0901H16.1478V14.2569Z" fill="#0A58CA"/>
<path d="M16.5561 18.5974H15.541V21.4339H16.5561C17.5098 21.4339 18.1874 20.8434 18.1874 20.0136C18.1874 19.1837 17.5103 18.5974 16.5561 18.5974ZM16.6345 20.8806H16.147V19.1509H16.6345C16.753 19.1429 16.8719 19.1593 16.9837 19.1992C17.0956 19.239 17.1981 19.3014 17.2848 19.3825C17.3716 19.4636 17.4407 19.5616 17.488 19.6706C17.5353 19.7795 17.5597 19.897 17.5597 20.0157C17.5597 20.1345 17.5353 20.252 17.488 20.3609C17.4407 20.4698 17.3716 20.5679 17.2848 20.649C17.1981 20.7301 17.0956 20.7925 16.9837 20.8323C16.8719 20.8721 16.753 20.8886 16.6345 20.8806Z" fill="#0A58CA"/>
<path d="M14.3126 3.65625H13.5C13.413 3.65625 13.3295 3.69082 13.268 3.75236C13.2064 3.81389 13.1719 3.89735 13.1719 3.98438C13.1719 4.0714 13.2064 4.15486 13.268 4.21639C13.3295 4.27793 13.413 4.3125 13.5 4.3125H14.3128C14.3998 4.3125 14.4833 4.27793 14.5448 4.21639C14.6064 4.15486 14.6409 4.0714 14.6409 3.98438C14.6409 3.89735 14.6064 3.81389 14.5448 3.75236C14.4833 3.69082 14.3996 3.65625 14.3126 3.65625Z" fill="#0A58CA"/>
<path d="M14.3126 9H13.5C13.413 9 13.3295 9.03457 13.268 9.09611C13.2064 9.15764 13.1719 9.2411 13.1719 9.32812C13.1719 9.41515 13.2064 9.49861 13.268 9.56014C13.3295 9.62168 13.413 9.65625 13.5 9.65625H14.3128C14.3998 9.65625 14.4833 9.62168 14.5448 9.56014C14.6064 9.49861 14.6409 9.41515 14.6409 9.32812C14.6409 9.2411 14.6064 9.15764 14.5448 9.09611C14.4833 9.03457 14.3996 9 14.3126 9Z" fill="#0A58CA"/>
<path d="M14.3126 14.3438H13.5C13.413 14.3438 13.3295 14.3783 13.268 14.4399C13.2064 14.5014 13.1719 14.5849 13.1719 14.6719C13.1719 14.7589 13.2064 14.8424 13.268 14.9039C13.3295 14.9654 13.413 15 13.5 15H14.3128C14.3998 15 14.4833 14.9654 14.5448 14.9039C14.6064 14.8424 14.6409 14.7589 14.6409 14.6719C14.6409 14.5849 14.6064 14.5014 14.5448 14.4399C14.4833 14.3783 14.3996 14.3438 14.3126 14.3438Z" fill="#0A58CA"/>
<path d="M14.3126 19.6875H13.5C13.413 19.6875 13.3295 19.7221 13.268 19.7836C13.2064 19.8451 13.1719 19.9286 13.1719 20.0156C13.1719 20.1026 13.2064 20.1861 13.268 20.2476C13.3295 20.3092 13.413 20.3438 13.5 20.3438H14.3128C14.3998 20.3438 14.4833 20.3092 14.5448 20.2476C14.6064 20.1861 14.6409 20.1026 14.6409 20.0156C14.6409 19.9286 14.6064 19.8451 14.5448 19.7836C14.4833 19.7221 14.3996 19.6875 14.3126 19.6875Z" fill="#0A58CA"/>
<path d="M11.2944 13.0076H10.8563V1.3125C10.8563 1.2694 10.8478 1.22672 10.8313 1.1869C10.8148 1.14708 10.7907 1.1109 10.7602 1.08043C10.7297 1.04995 10.6935 1.02578 10.6537 1.0093C10.6139 0.992821 10.5712 0.98435 10.5281 0.984375H7.14131C7.09822 0.98435 7.05554 0.992821 7.01572 1.0093C6.97589 1.02578 6.93971 1.04995 6.90924 1.08043C6.87876 1.1109 6.8546 1.14708 6.83811 1.1869C6.82163 1.22672 6.81316 1.2694 6.81319 1.3125V13.0076H6.375C6.13888 13.0079 5.91252 13.1019 5.74556 13.2688C5.5786 13.4358 5.48467 13.6621 5.48438 13.8983V15.4455C5.48467 15.6816 5.5786 15.908 5.74556 16.0749C5.91252 16.2419 6.13888 16.3358 6.375 16.3361H6.81319V22.6875C6.81316 22.7306 6.82163 22.7733 6.83811 22.8131C6.8546 22.8529 6.87876 22.8891 6.90924 22.9196C6.93971 22.95 6.97589 22.9742 7.01572 22.9907C7.05554 23.0072 7.09822 23.0156 7.14131 23.0156H10.5281C10.5712 23.0156 10.6139 23.0072 10.6537 22.9907C10.6935 22.9742 10.7297 22.95 10.7602 22.9196C10.7907 22.8891 10.8148 22.8529 10.8313 22.8131C10.8478 22.7733 10.8563 22.7306 10.8563 22.6875V16.3361H11.2944C11.5306 16.3358 11.7569 16.2419 11.9239 16.0749C12.0908 15.908 12.1848 15.6816 12.1851 15.4455V13.8983C12.1848 13.6621 12.0908 13.4358 11.9239 13.2688C11.7569 13.1019 11.5306 13.0079 11.2944 13.0076ZM7.46944 1.64063H10.2V13.0076H9.16275V3.98438C9.16275 3.89735 9.12818 3.81389 9.06664 3.75236C9.00511 3.69082 8.92165 3.65625 8.83463 3.65625C8.7476 3.65625 8.66414 3.69082 8.60261 3.75236C8.54107 3.81389 8.5065 3.89735 8.5065 3.98438V13.0076H7.46944V1.64063ZM10.2 22.3594H7.46944V16.3361H8.5065V20.0158C8.5065 20.1028 8.54107 20.1863 8.60261 20.2478C8.66414 20.3094 8.7476 20.3439 8.83463 20.3439C8.92165 20.3439 9.00511 20.3094 9.06664 20.2478C9.12818 20.1863 9.16275 20.1028 9.16275 20.0158V16.3361H10.2V22.3594ZM11.5288 15.4455C11.5288 15.5076 11.5041 15.5672 11.4601 15.6112C11.4162 15.6551 11.3566 15.6798 11.2944 15.6799H6.375C6.31286 15.6798 6.25327 15.6551 6.20933 15.6112C6.16538 15.5672 6.14067 15.5076 6.14062 15.4455V13.8983C6.14067 13.8361 6.16538 13.7765 6.20933 13.7326C6.25327 13.6886 6.31286 13.6639 6.375 13.6639H11.2944C11.3566 13.6639 11.4162 13.6886 11.4601 13.7326C11.5041 13.7765 11.5288 13.8361 11.5288 13.8983V15.4455Z" fill="#0A58CA"/>
</svg>
