<svg width="24" height="24" viewBox="0 0 24 24" fill="none" xmlns="http://www.w3.org/2000/svg">
<path d="M12.0264 24H11.9736C5.37143 24 0 18.6286 0 12.0264V11.9736C0 5.37142 5.37143 0 11.9736 0H12.0264C18.6286 0 24 5.37142 24 11.9736V12.0264C24 18.6286 18.6286 24 12.0264 24ZM11.9736 0.812375C5.81904 0.812375 0.812375 5.81904 0.812375 11.9736V12.0264C0.812375 18.181 5.81904 23.1876 11.9736 23.1876H12.0264C18.181 23.1876 23.1876 18.181 23.1876 12.0264V11.9736C23.1876 5.81904 18.181 0.812375 12.0264 0.812375H11.9736Z" fill="#0A58CA"/>
<path d="M15.5878 5.12354H8.41288C6.43068 5.12354 4.81812 6.7361 4.81812 8.7183V15.2823C4.81812 17.2645 6.43068 18.877 8.41288 18.877H15.5878C17.57 18.877 19.1825 17.2645 19.1825 15.2823V8.7183C19.1825 6.7361 17.57 5.12354 15.5878 5.12354ZM6.08623 8.7183C6.08623 7.43556 7.13014 6.39164 8.41288 6.39164H15.5878C16.8705 6.39164 17.9144 7.43556 17.9144 8.7183V15.2823C17.9144 16.565 16.8705 17.6089 15.5878 17.6089H8.41288C7.13014 17.6089 6.08623 16.565 6.08623 15.2823V8.7183Z" fill="#0A58CA"/>
<path d="M12.0002 15.3432C13.8435 15.3432 15.344 13.8436 15.344 11.9995C15.344 10.1554 13.8443 8.65576 12.0002 8.65576C10.1561 8.65576 8.65649 10.1554 8.65649 11.9995C8.65649 13.8436 10.1561 15.3432 12.0002 15.3432ZM12.0002 9.92468C13.1449 9.92468 14.0759 10.8557 14.0759 12.0003C14.0759 13.1449 13.1449 14.0759 12.0002 14.0759C10.8556 14.0759 9.92461 13.1449 9.92461 12.0003C9.92461 10.8557 10.8556 9.92468 12.0002 9.92468Z" fill="#0A58CA"/>
<path d="M15.6536 9.19642C16.15 9.19642 16.5545 8.79256 16.5545 8.29524C16.5545 7.79792 16.1508 7.39404 15.6536 7.39404C15.1564 7.39404 14.7527 7.79792 14.7527 8.29524C14.7527 8.79256 15.1564 9.19642 15.6536 9.19642Z" fill="#0A58CA"/>
</svg>
