<svg width="24" height="24" viewBox="0 0 24 24" fill="none" xmlns="http://www.w3.org/2000/svg">
<path d="M12.0264 24H11.9736C5.37143 24 0 18.6286 0 12.0264V11.9736C0 5.37143 5.37143 0 11.9736 0H12.0264C18.6286 0 24 5.37143 24 11.9736V12.0264C24 18.6286 18.6286 24 12.0264 24ZM11.9736 0.812375C5.81905 0.812375 0.812375 5.81905 0.812375 11.9736V12.0264C0.812375 18.181 5.81905 23.1876 11.9736 23.1876H12.0264C18.181 23.1876 23.1876 18.181 23.1876 12.0264V11.9736C23.1876 5.81905 18.181 0.812375 12.0264 0.812375H11.9736Z" fill="#0A58CA"/>
<path d="M5.93612 8.11337C5.63066 7.82985 5.47876 7.47891 5.47876 7.06135C5.47876 6.64379 5.63148 6.2774 5.93612 5.99307C6.24157 5.70955 6.63476 5.56738 7.1165 5.56738C7.59824 5.56738 7.976 5.70955 8.28064 5.99307C8.58609 6.27659 8.738 6.63323 8.738 7.06135C8.738 7.48947 8.58528 7.82985 8.28064 8.11337C7.97519 8.39689 7.58768 8.53906 7.1165 8.53906C6.64532 8.53906 6.24157 8.39689 5.93612 8.11337ZM8.48129 9.73975V18.4322H5.73465V9.73975H8.48129Z" fill="#0A58CA"/>
<path d="M17.6245 10.5984C18.2233 11.2483 18.5222 12.1403 18.5222 13.276V18.2786H15.9137V13.6285C15.9137 13.0558 15.765 12.6106 15.4685 12.2938C15.172 11.977 14.7723 11.8178 14.2719 11.8178C13.7715 11.8178 13.3718 11.9762 13.0752 12.2938C12.7787 12.6106 12.6301 13.0558 12.6301 13.6285V18.2786H10.0061V9.71534H12.6301V10.851C12.8957 10.4725 13.254 10.1735 13.704 9.95336C14.1541 9.73321 14.6602 9.62354 15.2232 9.62354C16.2256 9.62354 17.0266 9.94849 17.6245 10.5984Z" fill="#0A58CA"/>
</svg>
