<svg width="24" height="24" viewBox="0 0 24 24" fill="none" xmlns="http://www.w3.org/2000/svg">
<g clip-path="url(#clip0_81_277)">
<path d="M4.74747 11.619C3.21213 11.619 1.96313 10.3814 1.96313 8.86056C1.96313 7.33958 3.21213 6.10193 4.74747 6.10193C6.28263 6.10193 7.53143 7.33939 7.53143 8.86056C7.53143 10.3815 6.28263 11.619 4.74747 11.619ZM4.74747 6.87612C3.63892 6.87612 2.73733 7.76637 2.73733 8.86056C2.73733 9.95456 3.63892 10.8448 4.74747 10.8448C5.85565 10.8448 6.75724 9.95456 6.75724 8.86056C6.75724 7.76637 5.85565 6.87612 4.74747 6.87612Z" fill="#0A58CA"/>
<path d="M5.8675 19.2565H1.01178C0.453818 19.2565 0 18.8055 0 18.2511V16.9849C0 14.3928 2.1296 12.2838 4.74742 12.2838C5.77697 12.2838 6.75699 12.6051 7.58071 13.2128C7.75271 13.3398 7.78938 13.5821 7.66236 13.7543C7.53535 13.9261 7.29322 13.9628 7.12103 13.836C6.43133 13.3272 5.61064 13.058 4.74742 13.058C2.55658 13.058 0.774194 14.8198 0.774194 16.9849V18.2511C0.774194 18.3785 0.880796 18.4823 1.01178 18.4823H5.86769C6.08128 18.4823 6.25479 18.6556 6.25479 18.8694C6.25479 19.083 6.08128 19.2565 5.8675 19.2565Z" fill="#0A58CA"/>
<path d="M22.9883 18.9636H18.1326C17.919 18.9636 17.7455 18.7902 17.7455 18.5765C17.7455 18.3629 17.919 18.1894 18.1326 18.1894H22.9885C23.1195 18.1894 23.2261 18.0858 23.2261 17.9584V16.6922C23.2261 14.5267 21.4437 12.7653 19.2529 12.7653C18.3379 12.7653 17.4446 13.0804 16.7375 13.6527C16.5716 13.7871 16.3279 13.7616 16.1932 13.5954C16.0588 13.4293 16.0841 13.1855 16.2506 13.0509C17.095 12.3676 18.1612 11.9911 19.2529 11.9911C21.8705 11.9911 24.0001 14.0999 24.0001 16.6922V17.9584C24.0001 18.5126 23.5463 18.9636 22.9883 18.9636Z" fill="#0A58CA"/>
<path d="M19.2527 11.4276C17.7176 11.4276 16.4688 10.1901 16.4688 8.66915C16.4688 7.14817 17.7176 5.91052 19.2527 5.91052C20.7881 5.91052 22.037 7.14798 22.037 8.66915C22.037 10.1903 20.7879 11.4276 19.2527 11.4276ZM19.2527 6.68472C18.1445 6.68472 17.2429 7.57496 17.2429 8.66915C17.2429 9.76335 18.1445 10.6534 19.2527 10.6534C20.3613 10.6534 21.2629 9.76335 21.2629 8.66915C21.2629 7.57496 20.3611 6.68472 19.2527 6.68472Z" fill="#0A58CA"/>
<path d="M17.2538 20.5162H6.74628C6.04826 20.5162 5.48047 19.9525 5.48047 19.2596V17.4787C5.48047 13.9196 8.40486 11.0242 12.0001 11.0242C15.5953 11.0242 18.5197 13.9196 18.5197 17.4787V19.2596C18.5197 19.9525 17.9519 20.5162 17.2538 20.5162ZM12.0001 11.7986C8.83203 11.7986 6.25466 14.3468 6.25466 17.4789V19.2598C6.25466 19.5257 6.47524 19.7422 6.74628 19.7422H17.2537C17.5247 19.7422 17.7453 19.5257 17.7453 19.2598V17.4789C17.7455 14.3468 15.1681 11.7986 12.0001 11.7986Z" fill="#0A58CA"/>
<path d="M11.8655 10.5718C9.89293 10.5718 8.28784 8.98206 8.28784 7.02767C8.28784 5.07348 9.89274 3.48389 11.8655 3.48389C13.8384 3.48389 15.4433 5.07367 15.4433 7.02786C15.4433 8.98225 13.8382 10.5718 11.8655 10.5718ZM11.8655 4.25808C10.3197 4.25808 9.06204 5.50065 9.06204 7.02786C9.06204 8.55527 10.3197 9.79784 11.8655 9.79784C13.4114 9.79784 14.6691 8.55527 14.6691 7.02786C14.6691 5.50065 13.4114 4.25808 11.8655 4.25808Z" fill="#0A58CA"/>
</g>
<defs>
<clipPath id="clip0_81_277">
<rect width="24" height="24" fill="white"/>
</clipPath>
</defs>
</svg>
