<svg width="691" height="172" viewBox="0 0 691 172" fill="none" xmlns="http://www.w3.org/2000/svg">
<path d="M673.654 72.6521C673.836 72.3802 673.959 72.0737 674.015 71.7521C674.071 71.4305 674.059 71.1008 673.98 70.7839C673.901 70.4671 673.757 70.17 673.556 69.9116C673.355 69.6531 673.102 69.439 672.813 69.2828L549.351 2.24224L547.219 1.08423C546.668 0.785201 546.021 0.715139 545.418 0.889389C544.815 1.06364 544.306 1.468 544.003 2.01382L542.827 4.12678L453.792 164.258C453.642 164.53 453.438 164.769 453.194 164.962C452.95 165.156 452.669 165.299 452.369 165.385C452.069 165.47 451.754 165.496 451.444 165.461C451.134 165.425 450.834 165.329 450.561 165.178L231.153 43.7464L229.014 42.563C228.469 42.2613 227.825 42.1849 227.224 42.3506C226.622 42.5163 226.11 42.9106 225.799 43.4482L224.581 45.558L164.699 149.176C164.541 149.448 164.329 149.687 164.076 149.877C163.823 150.067 163.534 150.205 163.226 150.282C162.919 150.36 162.599 150.375 162.285 150.328C161.972 150.281 161.671 150.172 161.4 150.007L77.5025 98.5121L75.2137 97.1098C74.6868 96.7866 74.0633 96.6548 73.4494 96.737C72.8356 96.8192 72.2695 97.1102 71.8477 97.5603L70.0225 99.5147L36.9537 134.893C36.6093 135.262 36.1546 135.512 35.6564 135.607C35.1582 135.701 34.6426 135.634 34.1855 135.416L17.2148 127.313C16.7581 127.095 16.243 127.029 15.7456 127.125C15.2482 127.22 14.7949 127.472 14.4529 127.843L14.4114 127.887C14.1621 128.159 13.9802 128.485 13.8802 128.839C13.7801 129.193 13.7647 129.565 13.8352 129.926C13.9057 130.286 14.0601 130.626 14.2861 130.917C14.5121 131.208 14.8034 131.443 15.137 131.603L35.2947 141.225C35.7516 141.443 36.2668 141.51 36.7649 141.416C37.263 141.323 37.7179 141.073 38.0629 140.705L72.8546 103.49C73.2282 103.09 73.7301 102.831 74.2747 102.758C74.8192 102.684 75.3726 102.801 75.8403 103.087L161.081 155.419L163.072 156.644C163.343 156.81 163.645 156.921 163.959 156.969C164.274 157.017 164.595 157.002 164.904 156.924C165.212 156.847 165.502 156.708 165.756 156.517C166.01 156.326 166.222 156.087 166.381 155.813L167.547 153.795L227.592 49.8918C227.903 49.3542 228.415 48.9599 229.017 48.7942C229.619 48.6285 230.262 48.7048 230.808 49.0066L450.318 170.496L452.421 171.66C452.694 171.811 452.994 171.907 453.305 171.942C453.615 171.978 453.929 171.952 454.23 171.866C454.53 171.781 454.81 171.637 455.054 171.444C455.299 171.251 455.502 171.011 455.653 170.74L456.82 168.646L545.883 8.46692C546.186 7.9211 546.694 7.51675 547.297 7.3425C547.9 7.16825 548.548 7.23831 549.099 7.53734L670.508 73.4675C671.03 73.7505 671.639 73.8293 672.216 73.6884C672.793 73.5474 673.296 73.1969 673.625 72.7061L673.654 72.6521Z" fill="#1668E0"/>
<path d="M54.4104 139.147L63.5015 110.089L34.9016 121.05L47.461 127.123L54.4104 139.147Z" fill="#3A83ED"/>
<path d="M12.2825 125.111C12.2825 123.545 11.6557 122.044 10.5401 120.936C9.42447 119.829 7.91135 119.207 6.33362 119.207C4.75588 119.207 3.24277 119.829 2.12715 120.936C1.01152 122.044 0.384766 123.545 0.384766 125.111C0.384765 126.678 1.01142 128.18 2.12695 129.287C3.24249 130.395 4.75559 131.018 6.33362 131.019C7.91165 131.018 9.42476 130.395 10.5403 129.287C11.6558 128.18 12.2825 126.678 12.2825 125.111ZM6.33362 128.097C5.93875 128.097 5.54777 128.02 5.183 127.869C4.81823 127.719 4.48684 127.499 4.20778 127.222C3.92872 126.945 3.70744 126.616 3.55663 126.254C3.40581 125.891 3.3284 125.503 3.32882 125.111C3.32882 124.32 3.6454 123.562 4.20891 123.003C4.77242 122.443 5.5367 122.129 6.33362 122.129C7.13054 122.129 7.89483 122.443 8.45833 123.003C9.02184 123.562 9.33841 124.32 9.33841 125.111C9.33883 125.503 9.26143 125.891 9.11061 126.254C8.95979 126.616 8.73853 126.945 8.45947 127.222C8.1804 127.499 7.84901 127.719 7.48425 127.869C7.11948 128.02 6.72848 128.097 6.33362 128.097Z" fill="#3A83ED"/>
<path d="M685.676 68.8291L685.504 69.1464C687.221 69.8088 688.652 71.043 689.554 72.6376C690.455 74.2322 690.77 76.0881 690.444 77.8877C690.119 79.6873 689.173 81.3187 687.769 82.5026C686.365 83.6865 684.591 84.3494 682.749 84.3777C680.907 84.406 679.112 83.798 677.672 82.6579C676.232 81.5177 675.236 79.9162 674.854 78.1275C674.473 76.3387 674.73 74.474 675.581 72.8524C676.432 71.2309 677.824 69.9533 679.52 69.2384L679.347 68.9211C677.579 69.6751 676.129 71.0146 675.246 72.711C674.362 74.4075 674.098 76.3557 674.5 78.2234C674.902 80.0911 675.945 81.7625 677.45 82.9523C678.955 84.1422 680.83 84.7767 682.754 84.7478C684.678 84.7189 686.532 84.0282 688.001 82.7936C689.469 81.5591 690.46 79.8572 690.805 77.9783C691.15 76.0993 690.827 74.1599 689.892 72.4908C688.956 70.8217 687.466 69.5264 685.676 68.826V68.8291Z" fill="#3A83ED"/>
<path d="M681.485 73.3818C680.731 73.6516 680.099 74.1792 679.701 74.87C679.303 75.5609 679.166 76.3697 679.315 77.1515C679.464 77.9334 679.888 78.637 680.512 79.1364C681.136 79.6357 681.919 79.8981 682.721 79.8764C683.522 79.8548 684.29 79.5505 684.885 79.0182C685.481 78.4859 685.866 77.7603 685.972 76.9716C686.078 76.1829 685.897 75.3827 685.462 74.7143C685.027 74.046 684.366 73.5534 683.598 73.3247C682.959 74.4192 682.527 75.1426 682.527 75.1426C682.527 75.1426 682.125 74.4446 681.485 73.3818Z" fill="#3A83ED"/>
<path d="M688.006 60.3107C688.006 58.8575 687.425 57.4639 686.389 56.4363C685.354 55.4088 683.95 54.8315 682.486 54.8315C681.022 54.8315 679.617 55.4088 678.582 56.4363C677.547 57.4639 676.965 58.8575 676.965 60.3107C676.965 63.3373 682.486 72.319 682.486 72.319C682.486 72.319 688.006 63.3373 688.006 60.3107ZM678.576 60.3107C678.576 59.5432 678.806 58.793 679.235 58.155C679.665 57.5169 680.275 57.0196 680.99 56.7259C681.704 56.4322 682.49 56.3554 683.248 56.5051C684.007 56.6548 684.703 57.0244 685.25 57.567C685.797 58.1096 686.169 58.801 686.32 59.5537C686.471 60.3063 686.394 61.0865 686.098 61.7955C685.802 62.5045 685.301 63.1105 684.658 63.5368C684.015 63.9632 683.259 64.1908 682.486 64.1908C681.452 64.1891 680.46 63.7815 679.728 63.057C678.995 62.3324 678.581 61.3497 678.576 60.3233V60.3107Z" fill="#3A83ED"/>
</svg>
