<svg width="38" height="26" viewBox="0 0 38 26" fill="none" xmlns="http://www.w3.org/2000/svg">
<path opacity="0.45" d="M11.925 23.224L11.4815 22.993L11.4794 22.9971L11.925 23.224ZM15.475 16.408L15.0315 16.177L15.475 16.408ZM8.5 15.4L8.94346 15.631L9.32417 14.9H8.5V15.4ZM5.925 20.344L6.3674 20.577L6.36846 20.575L5.925 20.344ZM32.925 23.224L32.4815 22.993L32.4794 22.9971L32.925 23.224ZM36.475 16.408L36.0315 16.177L36.475 16.408ZM29.5 15.4L29.9435 15.631L30.3242 14.9H29.5V15.4ZM26.925 20.344L27.3674 20.577L27.3685 20.575L26.925 20.344ZM8.925 25.5C10.3759 25.5 11.7298 24.709 12.3706 23.4509L11.4794 22.9971C11.0201 23.899 10.0241 24.5 8.925 24.5V25.5ZM12.3685 23.455L15.9185 16.639L15.0315 16.177L11.4815 22.993L12.3685 23.455ZM15.9185 16.639C16.3055 15.8958 16.5 15.0966 16.5 14.272H15.5C15.5 14.9354 15.3445 15.5762 15.0315 16.177L15.9185 16.639ZM16.5 14.272V3.4H15.5V14.272H16.5ZM16.5 3.4C16.5 1.78482 15.1317 0.5 13.5 0.5V1.5C14.6183 1.5 15.5 2.37518 15.5 3.4H16.5ZM13.5 0.5H3.5V1.5H13.5V0.5ZM3.5 0.5C1.86829 0.5 0.5 1.78482 0.5 3.4H1.5C1.5 2.37518 2.38171 1.5 3.5 1.5V0.5ZM0.5 3.4V13H1.5V3.4H0.5ZM0.5 13C0.5 14.6152 1.86829 15.9 3.5 15.9V14.9C2.38171 14.9 1.5 14.0248 1.5 13H0.5ZM3.5 15.9H8.5V14.9H3.5V15.9ZM8.05654 15.169L5.48154 20.113L6.36846 20.575L8.94346 15.631L8.05654 15.169ZM5.48261 20.111C4.16467 22.6133 6.08706 25.5 8.925 25.5V24.5C6.76294 24.5 5.43533 22.3467 6.36739 20.577L5.48261 20.111ZM29.925 25.5C31.3759 25.5 32.7299 24.709 33.3706 23.4509L32.4794 22.9971C32.0201 23.899 31.0241 24.5 29.925 24.5V25.5ZM33.3685 23.455L36.9185 16.639L36.0315 16.177L32.4815 22.993L33.3685 23.455ZM36.9185 16.639C37.3055 15.8958 37.5 15.0966 37.5 14.272H36.5C36.5 14.9354 36.3445 15.5762 36.0315 16.177L36.9185 16.639ZM37.5 14.272V3.4H36.5V14.272H37.5ZM37.5 3.4C37.5 1.78482 36.1317 0.5 34.5 0.5V1.5C35.6183 1.5 36.5 2.37518 36.5 3.4H37.5ZM34.5 0.5H24.5V1.5H34.5V0.5ZM24.5 0.5C22.8683 0.5 21.5 1.78482 21.5 3.4H22.5C22.5 2.37518 23.3817 1.5 24.5 1.5V0.5ZM21.5 3.4V13H22.5V3.4H21.5ZM21.5 13C21.5 14.6152 22.8683 15.9 24.5 15.9V14.9C23.3817 14.9 22.5 14.0248 22.5 13H21.5ZM24.5 15.9H29.5V14.9H24.5V15.9ZM29.0565 15.169L26.4815 20.113L27.3685 20.575L29.9435 15.631L29.0565 15.169ZM26.4826 20.111C25.1647 22.6133 27.0871 25.5 29.925 25.5V24.5C27.7629 24.5 26.4353 22.3467 27.3674 20.577L26.4826 20.111Z" fill="#0A58CA"/>
</svg>
