<svg width="973" height="658" viewBox="0 0 973 658" fill="none" xmlns="http://www.w3.org/2000/svg">
<path d="M71.8277 313.917C76.7668 319.721 80.6649 325.478 83.5219 331.188C78.4463 334.028 74.5537 338.293 70.0613 343.234C64.5348 349.3 57.6515 356.852 46.1889 364.166C32.9517 372.588 17.7785 378.084 0.992105 380.563V382.204C18.1053 379.713 33.5804 374.119 47.0824 365.533C58.7394 358.116 65.6972 350.478 71.2899 344.338C75.7906 339.413 79.4928 335.333 84.2458 332.653C87.7909 340.218 89.4828 347.671 89.2884 354.952C89.0443 364.063 86.0328 369.834 79.4391 382.479C75.41 390.208 70.3964 399.824 64.0095 413.967C62.3548 417.661 60.6464 421.412 58.9421 425.336C44.0957 419.537 24.6908 419.291 0.992105 424.618V426.301C24.5047 420.965 43.6903 421.154 58.2885 426.847C55.3929 433.528 52.4972 440.76 49.5437 449.17C44.6335 463.223 40.6499 474.616 37.8949 484.38L0.979695 474.534V476.233L37.4399 485.96C33.3033 501.052 32.2526 512.277 35.3716 523.695C37.0262 529.683 39.3717 534.699 41.6469 539.546C45.829 548.469 49.1383 555.52 46.5694 565.165C45.4236 569.47 44.1123 572.023 42.5404 574.248L0.979695 574.202V580.359L63.7033 580.425L60.878 614.49C40.8926 617.812 20.9265 620.785 0.979695 623.409V629.618C21.0754 626.983 41.207 623.997 61.3744 620.659L70.2144 657.035H71.9145L63.0001 620.384C84.4609 616.808 105.902 612.84 127.325 608.481L203.798 642.801L195.579 657.035H202.731L209.466 645.367L227.539 653.477L228.312 657.035H230.426L229.342 652.032L210.5 643.577L247.39 579.76C251.374 578.631 255.25 577.515 259.035 576.398L285.307 657.035H287.044L260.636 575.93C278.477 570.652 294.556 565.411 312.178 559.567L341.217 657.035H343.372L314.143 558.914L325.283 555.22C334.065 552.29 343.414 549.175 353.664 545.805L383.448 646.261C373.936 649.887 364.389 653.478 354.806 657.035H360.676C368.767 654.012 376.835 650.963 384.879 647.891C389.369 646.178 393.755 644.494 398.038 642.838L389.885 657.035H392.263L399.85 643.827L423.561 657.035H427.788L400.553 641.849C430.283 630.357 455.314 620.22 477.494 611.018L486.082 615.795L468.952 657.035H470.743L487.513 616.62L532.379 641.599L523.646 657.035H525.545L533.818 642.399L560.111 657.035H564.338L479.893 610.029C499.489 601.873 516.858 594.432 533.289 587.406L541.848 583.745L548.309 596.238L617.804 602.198L581.762 657.035H584.244L628.394 589.905L670.538 616.247L647.431 657.035H649.33L671.911 617.121L733.448 655.578L732.467 657.035H734.457L734.85 656.456L735.781 657.035H739.661L736 654.749L777.892 592.705L799.762 604.825L769.929 657.035H772.307L801.566 605.822L862.974 639.85L853.6 657.035H855.482L864.418 640.651L893.982 657.035H898.214L865.39 638.849L890.495 592.824L908.94 587.898C909.084 595.99 910.451 604.014 912.994 611.703C915.124 618.024 917.42 622.034 919.443 625.568C922.169 630.328 924.32 634.092 925.048 641.595C925.64 647.727 924.903 652.676 923.435 657.027H925.631C927.029 652.611 927.7 647.587 927.104 641.398C926.335 633.456 923.977 629.331 921.242 624.57C919.265 621.118 917.023 617.182 914.955 611.067C911.364 600.421 910.222 588.604 911.459 576.181L974.46 609.425L948.494 657.035H955.527L960.139 648.58C960.141 648.728 960.184 648.872 960.261 648.998C960.339 649.123 960.45 649.226 960.582 649.294L975.598 657.035H979.184L961.343 647.837C961.214 647.771 961.069 647.739 960.924 647.746C960.779 647.752 960.638 647.797 960.516 647.874L993.261 587.82L1066.54 627.484L1050.65 657.035H1052.05L1067.63 628.055L1086.93 638.5L1075.77 657.035H1077.69L1088.39 639.288L1111.22 651.642L1109.92 653.013L1109.72 653.222L1108.94 657.035H1111.05L1111.63 654.207L1113.1 652.66L1121.18 657.035H1125.5L1114.56 651.117L1146.08 617.942L1216.73 657.035H1229.47L1229.28 656.928C1230.51 650.455 1231.11 643.88 1231.07 637.293C1230.96 620.347 1226.81 610.328 1205.13 562.665L1241.94 550.989V549.265L1204.55 561.122C1204.51 561.134 1204.47 561.151 1204.43 561.171L1203.56 559.255L1198.32 547.763C1166.31 477.477 1162.96 470.126 1164.49 456.997C1165.51 448.164 1168 441.905 1171.43 436.475L1241.97 478.77V476.369L1172.59 434.743C1175.21 430.943 1178.31 427.479 1181.69 423.707C1184.34 420.735 1187.21 417.55 1190.15 413.799L1238.48 445.931C1238.58 446 1238.7 446.037 1238.82 446.038C1238.96 446.038 1239.09 445.996 1239.19 445.917C1239.3 445.838 1239.38 445.727 1239.42 445.6C1239.46 445.474 1239.45 445.338 1239.41 445.214C1239.36 445.089 1239.28 444.983 1239.17 444.909L1190.9 412.83C1196.81 405.192 1202.99 395.354 1208.42 380.998C1209.98 376.852 1211.36 372.652 1212.55 368.397L1241.97 383.69V381.839L1213.01 366.768C1215.22 358.482 1216.74 350.033 1217.56 341.502C1225.75 336.432 1233.89 331.262 1241.97 325.992V323.529C1233.97 328.764 1225.92 333.898 1217.81 338.933C1218.24 333.852 1218.46 328.653 1218.45 323.337C1218.45 310.568 1217.3 298.259 1215.56 284.875C1226.6 277.241 1235.97 270.432 1241.46 266.443L1241.95 266.086V258.473L1241.9 258.514C1240.94 259.195 1239.55 260.205 1237.8 261.481C1232.77 265.13 1224.48 271.155 1214.63 278.005C1214.19 274.779 1213.72 271.487 1213.23 268.097C1210.49 249.148 1207.14 236.01 1203.47 225.002L1241.94 203.442V202.026L1203.05 223.812C1200.7 216.913 1198.22 210.826 1195.68 204.612C1190.48 191.848 1185.1 178.648 1179.92 156.403C1175.78 138.636 1174.13 125.244 1173.78 112.898L1241.97 150.977V149.565L1173.78 111.482C1173.56 99.6903 1174.52 88.7195 1175.67 75.6146C1175.8 74.1452 1175.93 72.6513 1176.08 71.1327L1241.97 108.203V101.123L1209.17 82.6534L1211.15 36.825C1211.19 36.827 1211.22 36.827 1211.26 36.825L1241.97 37.1698V35.5281L1211.28 35.1833H1211.22L1213.26 -11.9625L1238.81 1.6965C1238.93 1.76529 1239.06 1.8095 1239.2 1.82652C1239.34 1.84353 1239.48 1.833 1239.61 1.79555C1239.74 1.7581 1239.87 1.69449 1239.98 1.60849C1240.08 1.5225 1240.17 1.41587 1240.24 1.29493C1240.31 1.17398 1240.35 1.04119 1240.36 0.904427C1240.37 0.767662 1240.36 0.629707 1240.31 0.498737C1240.27 0.367771 1240.21 0.246456 1240.12 0.141994C1240.03 0.0375366 1239.92 -0.0479469 1239.79 -0.109386L1213.22 -14.3102L1210.21 -40.6925H1208.97L1211.9 -15.012L1177.25 -33.5305C1177.25 -33.7604 1177.23 -33.9902 1177.21 -34.2242C1177.08 -36.4405 1176.95 -38.5911 1176.8 -40.6925H1170.59C1170.67 -39.6199 1170.74 -38.535 1170.8 -37.4378L1165.81 -40.6925H1162.05L1170.95 -34.8767C1170.95 -34.5361 1170.99 -34.2036 1171.01 -33.8589C1173.66 10.7218 1172.38 38.9716 1170.67 61.0074L1122.58 33.952L1152.98 -40.6925H1150.75L1134.34 -0.396683L1096.92 -21.6733L1107.68 -40.6925H1105.78L1095.48 -22.4859L1063.46 -40.6925H1060.98L1094.9 -21.4024L1077.83 8.77227L1061.77 -0.257141C1061.65 -0.652348 1061.45 -1.01959 1061.18 -1.33693C1060.92 -1.65426 1060.59 -1.91517 1060.22 -2.10406C1059.55 -2.45135 1058.77 -2.53911 1058.04 -2.35032L1030.99 -17.5731L1048.36 -40.672H1045.78L1029.18 -18.5951L989.914 -40.6925H975.023L965.653 -23.865C960.528 -26.8241 948.776 -33.6003 936.453 -40.6925H933.971C944.792 -34.4581 956.106 -27.9364 965.041 -22.7814L939.39 23.3343C927.195 16.7017 915.207 10.2006 904.741 4.52435L931.567 -40.6925H930.128L903.653 3.94975C887.26 -4.93192 874.792 -11.6752 871.421 -13.4975L886.462 -40.6925H884.099L856.02 10.098L820.445 -7.55044L838.704 -40.6925H836.818L818.968 -8.30153L778.392 -28.4535L784.142 -40.6925H781.863L776.597 -29.5042L759.939 -40.6925H757.721L776.072 -28.3797L755.724 14.9369L660.13 -40.6925H647.865L672.507 -26.3521L641.383 23.2563L626.313 14.8671L576.384 10.7136L606.085 -40.6925H598.933L566.829 14.8384L487.699 -23.9306C490.021 -29.403 492.538 -34.9903 495.249 -40.6925H492.961C477.726 -8.42876 468.662 20.0508 465.949 44.143L409.049 15.1996L438.788 -37.3639C438.895 -37.5534 438.922 -37.7773 438.863 -37.9866C438.804 -38.1958 438.664 -38.3734 438.473 -38.4803L438.382 -38.5213L459.698 -40.6925H398.923L367.729 -37.5158L367.898 -40.6925H366.244L366.053 -37.3475L265.368 -27.0868L272.901 -40.6925H271.01L263.374 -26.8898L219.778 -22.449L230.215 -40.6925H223.079L212.2 -21.6774L201.858 -20.6267C200.339 -27.2026 199.92 -33.9816 200.617 -40.6925L198.963 -40.6925C198.276 -33.9255 198.695 -27.0928 200.204 -20.4584L139.929 -14.302L154.862 -40.6925H152.963L137.902 -14.1132L86.7609 -8.90486L104.987 -39.7157L119.465 -40.6925H95.1086L29.6134 -36.264L32.2071 -40.6925H29.8161L6.5931 -1.04927C6.53518 -0.950432 6.49593 -0.841942 6.47727 -0.72913L0.979695 -0.170948V6.0183L33.9941 2.6569L63.5958 19.033L44.1537 53.3653L0.979695 29.3101V31.194L43.3594 54.7977L29.4149 79.448L0.979695 80.5643V82.2061L28.48 81.1225L31.3756 152.841C21.6739 146.851 11.5419 141.235 0.979695 135.993V137.844C14.2414 144.438 27.0884 151.823 39.4503 159.958L20.3474 193.662L0.979695 197.187V203.446L61.242 192.521L74.9591 187.005C91.6504 201.71 96.1924 209.513 98.2111 217.787C100.664 227.83 98.6247 235.616 96.6143 243.147C96.089 245.142 95.5678 247.112 95.1417 249.086C91.4765 246.752 87.2385 245.455 82.8849 245.335C79.013 245.171 65.9247 245.253 60.0714 253.309C55.5583 259.515 57.7342 266.853 60.0383 274.652C62.4044 282.651 64.8533 290.921 60.5306 298.965C56.6049 306.275 48.3234 311.434 42.4494 310.228C35.6488 308.832 31.9382 298.736 26.8046 284.818C25.4827 281.295 24.3857 277.692 23.5202 274.032C22.6009 270.154 21.4277 266.34 20.0082 262.614C14.916 248.885 11.5488 239.819 3.31275 236.215C2.55223 235.885 1.7683 235.61 0.967285 235.394V237.102C1.53742 237.276 2.09682 237.482 2.64262 237.721C9.91481 240.902 12.9056 248.228 18.4569 263.168C19.8478 266.832 20.9975 270.581 21.8986 274.393C22.7765 278.112 23.8901 281.772 25.2327 285.351C30.7634 300.344 34.4078 310.223 42.1102 311.82C42.8124 311.964 43.5276 312.035 44.2447 312.033C50.5571 312.033 58.1189 306.928 61.9866 299.721C66.6279 291.102 63.9681 282.097 61.6185 274.167C59.4343 266.78 57.3702 259.802 61.4117 254.262C66.7893 246.874 79.1495 246.808 82.8063 246.968C87.0877 247.09 91.2469 248.412 94.8025 250.781C93.7518 256.433 93.636 262.236 96.3951 269C102.674 284.387 119.382 293.006 125.67 296.252C132.549 299.803 138.494 301.51 143.764 303.02C151.21 305.159 156.587 306.714 160.186 312.296C162.991 316.671 163.909 322.306 162.871 329.078L90.3556 294.492L0.979695 352.621V359.98L71.8277 313.917ZM1177.38 -31.1254L1212.04 -12.5987L1207.96 81.9885L1176.63 64.3401C1178.42 42.2139 1179.92 14.0093 1177.38 -31.1254ZM69.6477 416.475C75.9602 402.496 80.9324 392.962 84.9284 385.282C91.7538 372.186 95.1831 365.615 95.4644 355.091C95.6877 346.916 93.8387 338.613 89.9544 330.256C91.1062 329.938 92.2762 329.689 93.4581 329.509C114.712 326.275 138.642 344.428 149.493 363.85C153.352 370.757 154.246 375.498 155.284 380.994C155.926 384.811 156.839 388.579 158.018 392.268C160.333 399.193 163.726 405.716 168.075 411.599L134.642 485.374C128.82 482.474 123.185 479.219 117.769 475.626C101.88 465.082 93.1809 455.182 85.5034 446.453C80.4856 440.744 76.1546 435.814 70.7149 431.78C68.7635 430.338 66.706 429.043 64.5596 427.905C66.2805 423.969 67.993 420.218 69.6477 416.475ZM186.714 298.662C185.188 295.017 184.017 292.333 183.074 290.174C180.613 284.535 180.104 283.361 180.116 280.693C180.141 275.202 182.354 271.721 185.705 266.451C187.194 264.104 188.869 261.46 190.669 258.148C195.178 261.674 199.145 265.786 201.523 272.698C203.083 277.237 203.004 280.086 202.901 283.689C202.785 287.855 202.648 292.575 204.969 300.57C207.642 309.701 212.011 318.256 217.851 325.795L198.71 346.189L184.509 339.413C190.003 336.031 193.444 332.025 194.747 327.437C195.691 324.084 195.674 320.074 186.714 298.662ZM850.87 485.558C814.724 493.274 773.751 502.02 716.587 518.392C712.026 519.698 707.583 520.988 703.259 522.263C703.215 522.233 703.167 522.209 703.118 522.189L635.224 495.302C634.475 491.776 629.705 469.367 628.605 466.572C628.576 466.501 628.536 466.435 628.489 466.375L715.838 442.705L716.277 442.586C735.384 437.407 754.747 431.915 773.478 426.645C779.366 424.985 785.282 423.315 791.228 421.638L890.962 476.816C884.443 478.314 877.957 479.755 871.417 481.179H871.384C864.62 482.624 857.811 484.077 850.87 485.558ZM869.597 483.642L843.048 529.704L801.95 498.417C819.841 494.284 836.007 490.832 851.304 487.565C857.493 486.248 863.57 484.947 869.597 483.642ZM240.337 413.327L262.083 376.86L334.297 417.082L313.022 453.873L240.337 413.327ZM312.199 455.301L284.07 503.95L211.298 462.02L239.493 414.739L312.199 455.301ZM207.397 270.711C204.303 261.715 199.05 256.712 193.515 252.542C195.608 248.027 196.737 244.419 197.995 240.414C198.102 240.073 198.21 239.728 198.322 239.384C201.31 241.004 204.501 242.226 207.811 243.02C214.43 244.662 219.323 244.251 223.654 243.886C228.755 243.475 233.168 243.106 239.208 245.963C245.413 248.893 250.662 253.978 254.82 261.087C248.59 271.709 242.513 282.052 236.953 291.516L235.427 294.106L243.146 298.838L222.144 321.219C217.089 314.499 213.292 306.932 210.934 298.879C208.895 291.795 209.011 287.761 209.118 283.862C209.226 279.963 209.329 276.302 207.397 270.711ZM184.34 85.8383L302.9 151.433C298.56 163.282 292.302 171.01 284.285 174.417C277.89 177.134 272.731 176.108 263.366 174.24C259.552 173.481 255.229 172.599 249.843 171.802C244.809 171.039 240.039 170.317 235.456 169.726C235.397 168.789 235.279 167.857 235.1 166.935C233.532 158.726 227.708 153.226 216.105 142.239C208.444 134.987 201.589 130.595 183.5 120.216C178.693 117.466 173.849 114.723 168.968 111.987C172.947 102.656 178.112 93.8681 184.34 85.8383ZM163.524 108.958C157.86 105.819 152.177 102.714 146.477 99.641L162.651 73.8374L178.855 82.8094C172.695 90.877 167.548 99.6575 163.524 108.958ZM235.477 171.396C239.969 171.975 244.648 172.685 249.583 173.448C254.927 174.269 259.229 175.119 263.027 175.874C272.4 177.741 278.059 178.87 284.926 175.948C293.332 172.373 299.863 164.411 304.368 152.258L314.739 158.004C308.629 169.11 281.079 216.326 255.771 259.482C251.523 252.505 246.203 247.465 239.919 244.497C233.47 241.456 228.635 241.85 223.518 242.273C219.108 242.634 214.55 243.008 208.212 241.452C204.936 240.667 201.784 239.44 198.843 237.807C199.418 236.01 200.055 234.114 200.845 231.971C207.641 213.576 216.593 202.507 223.787 193.613C230.314 185.507 235.307 179.33 235.477 171.396ZM628.249 185.839L648.192 145.338L671.969 158.706L618.532 250.071C617.622 247.74 615.5 242.843 610.76 232.279C606.966 223.82 601.891 212.64 595.644 198.973L628.249 185.839ZM594.958 197.479C593.907 195.178 592.825 192.81 591.711 190.374C578.643 161.85 565.348 133.095 563.933 130.041L576.343 104.948L646.757 144.534L627.046 184.563L594.958 197.479ZM977.732 369.859C951.216 375.465 921.155 381.827 886.201 390.105C878.863 391.842 871.52 393.642 864.173 395.502L856.69 360.053L888.058 355.744L888.278 355.715L910.326 332.206L916.378 335.317L934.438 306.259L959.436 320.332L1028.1 358.912C1012.44 362.528 995.838 366.042 977.732 369.871V369.859ZM1028.36 365.18C1013.86 382.253 1001.68 401.147 992.144 421.375C988.41 429.253 985.204 437.367 982.547 445.665C981.889 447.635 981.257 449.535 980.57 451.46C963.965 457.099 948.842 461.721 934.533 465.739L909.747 390.955C935.427 385.102 958.311 380.283 979.027 375.88C996.711 372.149 1013 368.705 1028.36 365.192V365.18ZM490.516 374.574C489.925 353.831 487.947 340.969 486.355 330.63C484.427 318.112 483.153 309.838 486.028 296.564C487.162 291.045 488.968 285.682 491.406 280.595C494.355 282.269 496.907 284.547 500.022 287.326C503.82 290.716 508.539 294.931 515.774 299.503C518.283 301.101 520.872 302.572 523.531 303.911L555.945 431.607L516.858 443.51L488.547 427.093C490.363 409.653 491.021 392.113 490.516 374.587V374.574ZM525.458 304.834C534.439 309.021 541.67 310.17 549.219 311.377C558.878 312.916 568.868 314.508 584.157 322.241C585.919 323.133 587.628 324.044 589.282 324.974L585.332 340.16L611.248 414.731L557.513 431.119L525.458 304.834ZM724.629 251.963L791.15 289.723L757.155 350.815L748.737 345.771L748.451 345.602L703.776 366.185L671.374 348.258L724.629 251.963ZM704.649 283.829L627.492 238.838L650.781 199.026L727.855 241.875L704.649 283.829ZM933.375 305.664L915.943 333.708L805.413 276.876L823.705 244.005L933.375 305.664ZM824.706 242.207L843.292 208.807L909.478 251.327L892.422 280.291L824.706 242.207ZM909.196 331.627L887.686 354.566L786.608 368.447L762.491 354L804.813 277.956L909.196 331.627ZM756.555 351.894L738.052 385.139L705.124 366.92L748.377 346.99L756.555 351.894ZM719.251 381.79L660.358 399.75C651.96 382.481 640.817 366.665 627.356 352.908C621.325 346.751 609.423 334.591 591.202 324.178L594.213 312.608L719.251 381.79ZM626.177 354.049C639.457 367.62 650.461 383.214 658.769 400.238L612.853 414.246L587.086 340.09L590.809 325.828C608.576 336.08 620.232 347.983 626.169 354.049H626.177ZM611.93 416.672L627.103 460.337C603.653 466.695 582.928 472.318 564.789 477.247L557.943 433.138L611.93 416.672ZM613.51 416.188L721.766 383.177L737.775 392.03L783.551 417.345L771.765 420.674C753.051 425.96 733.708 431.427 714.63 436.598L714.192 436.717L628.692 459.886L613.51 416.188ZM743.483 388.143L761.883 355.079L786.148 369.612L786.335 369.723L855.466 360.234L862.982 395.818C839.163 401.856 815.411 408.414 792.002 414.985L743.483 388.143ZM961.363 319.048L998.593 253.379L1044.77 278.44L1003.58 342.758L961.363 319.048ZM1034.37 265.803L1069.09 204.468L1104.22 224.904L1073.61 287.083L1034.37 265.803ZM1039.98 180.385L1060.12 144.85L1091.15 162.141L1070.69 198.259L1039.98 180.385ZM1067.66 203.639L1032.91 265.015L1001.63 248.035L1036.94 185.753L1067.66 203.639ZM999.822 247.05L934.302 211.495L971.734 147.801L1035.14 184.715L999.822 247.05ZM996.777 252.415L959.564 318.022L893.506 280.882L931.15 216.802L996.777 252.415ZM910.086 250.26L843.9 207.723L860.26 178.328L930.066 216.235L910.086 250.26ZM819.299 239.178L752.489 201.616L799.204 117.133L834.055 114.195L874.329 140.298L819.299 239.178ZM818.302 240.976L791.762 288.668L725.237 250.908L751.496 203.422L818.302 240.976ZM728.653 240.451L651.613 197.602L673.769 159.715L749.684 202.4L728.653 240.451ZM626.892 239.925L704.074 284.941L669.582 347.26L589.874 303.16L626.892 239.925ZM592.72 311.783L589.712 323.357C588.153 322.491 586.556 321.637 584.91 320.804C569.389 312.957 558.812 311.27 549.48 309.784C539.577 308.208 530.224 306.714 516.647 298.128C509.528 293.613 504.862 289.46 501.114 286.115C497.966 283.308 495.29 280.919 492.129 279.138C495.025 273.593 498.405 269.365 501.875 265.007C502.512 264.21 503.154 263.406 503.791 262.593L592.72 311.783ZM500.27 263.722C496.717 268.179 493.275 272.505 490.297 278.181C487.783 277.055 485.108 276.322 482.367 276.01C462.098 273.424 445.137 288.475 440.409 293.15C428.07 305.364 424.781 319.343 419.809 340.497C416.449 354.812 414.631 369.441 414.386 384.137L374.029 360.743L448.488 231.963L501.991 261.567L500.27 263.722ZM318.846 253.744L297.721 262.675L267.986 306.829L249.616 295.567H249.591L243.833 292.037C248.871 283.455 265.624 254.939 282.142 226.677C288.019 216.605 293.274 207.593 297.907 199.642L339.405 222.757C329.502 237.652 320.286 251.569 318.846 253.744ZM340.853 223.562L420.516 267.949L392.189 316.954L300.111 263.435L319.967 255.045L320.108 254.84C320.298 254.541 330.185 239.63 340.853 223.562ZM298.527 264.432L391.365 318.362L364.01 365.68L269.393 307.691L298.527 264.432ZM421.339 266.509L341.767 222.182C351.695 207.222 362.12 191.638 365.842 186.254L443.04 228.959L421.339 266.509ZM340.319 221.362L298.734 198.222C302.829 191.179 306.399 185.026 309.406 179.814C313.299 173.075 316.298 167.842 318.317 164.259C319.048 162.962 319.658 161.867 320.149 160.975L364.391 185.453C360.543 191.023 350.202 206.521 340.319 221.382V221.362ZM320.286 154.002L307.049 146.688L339.769 87.9726L359.381 99.6451L326.64 157.515L320.286 154.002ZM248.524 302.138L289.327 327.145L276.789 348.167C275.714 347.519 273.658 346.362 269.666 344.129C265.447 341.765 259.573 338.498 252.209 334.422C243.303 329.497 234.331 324.543 229.826 322.06L248.524 302.138ZM291.085 328.225L360.92 371.024L335.12 415.658L262.927 375.436L291.085 328.225ZM372.991 362.528L416.946 388.004C416.845 388.072 416.761 388.163 416.702 388.27L365.905 478.052L320.741 452.9L372.991 362.528ZM416.011 385.102C416.186 370.214 417.989 355.388 421.389 340.886C426.295 320.008 429.538 306.214 441.547 294.328C446.134 289.788 462.615 275.165 482.123 277.652C484.679 277.942 487.175 278.62 489.523 279.663C487.348 284.108 485.453 289.39 483.993 296.142C481.035 309.805 482.338 318.223 484.295 330.971C485.875 341.231 487.844 354.045 488.431 374.661C488.922 391.794 488.295 408.94 486.553 425.993L416.011 385.102ZM516.192 445.537L516.581 445.763L556.334 433.639L563.176 477.678C509.321 492.314 478.594 500.748 467.206 504.089C450.561 508.977 435.507 513.5 421.765 517.703L476.969 422.791L516.192 445.537ZM606.019 472.449L618.4 516.907L544.768 541.38L481.846 506.351C502.918 500.449 543.155 489.486 606.019 472.433V472.449ZM618.843 518.491L626.847 547.221C602.027 556.279 579.876 565.37 556.156 575.43L545.732 542.792L618.843 518.491ZM608.013 471.907L627.004 466.757C626.985 466.895 627.001 467.036 627.05 467.167C627.96 469.453 631.794 487.073 633.697 496.073L633.788 496.484L700.727 522.993C673.012 531.202 649.904 538.852 628.795 546.507L608.013 471.907ZM799.667 419.249C828.681 411.123 858.233 403.087 887.641 396.122C894.811 394.423 901.774 392.803 908.53 391.262L933.35 466.1C921.797 469.314 910.768 472.117 899.914 474.719L799.667 419.249ZM979.66 453.963C977.618 459.307 975.19 464.497 972.396 469.494C963.217 486.215 955.279 494.198 947.675 501.138L902.565 476.176C926.144 470.491 950.658 463.723 979.66 453.947V453.963ZM974.212 470.475C975.006 469.03 975.726 467.668 976.392 466.371L1034.75 498.873L1013.63 537.6L949.582 502.168C956.925 495.425 965.115 487.028 974.212 470.459V470.475ZM1031.44 517.867L1097.63 558.815L1086.73 578.081L1019.02 540.617L1031.44 517.867ZM1032.23 516.418L1045.12 492.782C1045.91 493.356 1046.9 494.062 1048.17 494.941C1051.6 497.325 1056.7 500.74 1063.31 505.095C1074.45 512.417 1090.05 522.501 1109.68 535.056L1110.72 535.717L1098.46 557.379L1032.23 516.418ZM1045.71 491.698L1077.28 433.828L1145.04 475.076L1111.32 534.658C1081.77 515.716 1053.6 497.469 1045.71 491.682V491.698ZM1035.53 497.444L977.161 464.934C977.161 464.934 977.161 464.934 977.132 464.934C979.043 461.086 980.731 457.133 982.187 453.093C989.19 450.705 996.454 448.144 1004.04 445.373C1030.01 435.884 1055.66 425.451 1080.98 414.074L1035.53 497.444ZM1003.32 443.485C996.31 446.046 989.553 448.438 983.048 450.66C983.54 449.239 984.016 447.819 984.504 446.358C987.139 438.139 990.318 430.1 994.018 422.295C1003.86 401.374 1016.56 381.894 1031.75 364.4C1064.73 356.762 1093.61 348.66 1123.34 336.368L1082.6 411.066C1056.55 422.861 1030.12 433.655 1003.32 443.448V443.485ZM1031.07 358.28L1005.01 343.624L1046.22 279.285L1132.14 325.877L1129.32 327.108C1129.15 327.166 1128.98 327.239 1128.82 327.326C1096.88 341.293 1066.34 350.035 1031.07 358.243V358.28ZM1108.6 306.123L1153.89 253.859L1205.85 284.104C1192.53 293.158 1177.56 302.807 1164.38 309.961C1155.77 314.631 1147.42 318.855 1139.14 322.709L1108.6 306.123ZM1107.49 305.52L1074.67 287.711L1105.28 225.564L1152.8 253.174L1107.49 305.52ZM1072.13 199.137L1092.59 162.982L1129.54 183.574L1107.2 219.548L1072.13 199.137ZM1093.4 161.55L1114.13 124.932L1153.1 145.646L1130.41 182.174L1093.4 161.55ZM1091.96 160.729L1060.94 143.438L1081.32 107.472L1112.67 124.135L1091.96 160.729ZM1038.18 179.367L985.343 148.613L1015.45 90.6937L1071.77 120.134L1038.18 179.367ZM979.987 145.494L949.375 127.669L991.205 53.041C1004.86 60.5396 1015.23 66.3143 1019.75 68.9615L979.987 145.494ZM970.65 147.197L933.201 210.9L897.01 191.265L933.673 125.65L970.65 147.197ZM895.918 190.703L863.239 172.964L900.344 106.241L932.61 125.018L895.918 190.703ZM874.912 139.235L834.373 112.947L799.919 115.853L828.367 64.3771L894.991 103.15L874.912 139.235ZM788.25 132.668L752.389 110.85L790.148 42.1442L826.58 63.351L788.25 132.668ZM787.654 133.748L750.673 200.623L714.291 180.167L751.794 111.929L787.654 133.748ZM712.856 179.334L674.799 157.942L714.866 89.4419L750.379 111.047L712.856 179.334ZM691.089 126.019C691.06 125.999 691.035 125.974 691.002 125.954L627.265 85.5592L642.57 62.9857L681.802 69.4664C681.892 69.4829 681.985 69.4829 682.075 69.4664L713.1 88.346L691.089 126.019ZM690.113 127.337C690.164 127.366 690.218 127.391 690.274 127.411L673.008 156.929L604.84 118.607L626.351 86.9219L690.113 127.337ZM603.396 117.794L588.716 109.524L609.572 76.2795L624.944 86.023L603.396 117.794ZM609.188 74.6008C609.063 74.6638 608.957 74.7587 608.882 74.8758C608.803 74.9989 608.759 75.1405 608.753 75.2862L587.657 108.941L536.3 80.0677L554.828 47.9599L606.408 50.7878L619.356 57.999C619.413 58.03 619.474 58.0535 619.538 58.0688L609.188 74.6008ZM575.267 104.328L562.568 130.017L562.692 130.284C571.255 148.782 583.292 174.901 593.953 198.218C593.889 198.395 593.889 198.59 593.953 198.768C594.033 198.951 594.181 199.098 594.366 199.178C606.16 224.982 616.162 247.145 617.722 251.401L597.651 285.721L554.435 148.999L554.34 148.704L514.864 117.101L535.25 81.8367L575.267 104.328ZM552.553 149.91L596.017 287.354C596.089 287.574 596.235 287.763 596.43 287.888L588.083 302.158L507.543 257.598C512.093 251.126 516.399 243.164 519.489 230.391C523.295 214.639 525.607 189.48 514.988 159.071C512.22 151.001 508.496 143.286 503.894 136.087L513.822 118.882L552.553 149.91ZM513.015 159.761C523.473 189.722 521.202 214.446 517.462 229.944C514.43 242.474 510.202 250.272 505.71 256.622L451.549 226.66L502.711 138.127C506.958 144.922 510.414 152.173 513.015 159.74V159.761ZM446.13 223.623L354.521 172.943L389.409 117.511L477.262 169.787L446.13 223.623ZM353.056 172.139L328.063 158.312L360.792 100.495L387.982 116.67L353.056 172.139ZM360.167 98.2086L340.559 86.5402L385.649 5.60378L406.572 16.2462L360.167 98.2086ZM305.253 145.687L234.025 106.286L270.663 43.4904C270.741 43.4295 270.807 43.3542 270.857 43.2687C270.902 43.1866 270.932 43.0979 270.948 43.0061L274.775 36.4392C274.818 36.4739 274.863 36.5055 274.911 36.5336L344.477 75.2821L305.253 145.687ZM232.577 105.465L165.617 68.4198C165.737 68.3496 165.836 68.2508 165.907 68.1325L202.57 6.15785H202.595L268.95 43.1251L232.577 105.465ZM164.459 67.2952C164.387 67.4204 164.349 67.5616 164.347 67.7056L131.159 49.3677L154.837 17.1778L184.05 34.1778L164.459 67.2952ZM157.228 70.8331L113.281 140.955L66.752 115.032L87.3111 78.701L140.731 61.7052L157.228 70.8331ZM145.604 101.036C151.374 104.142 157.132 107.289 162.879 110.476C161.222 114.447 159.775 118.501 158.544 122.621C155.83 131.7 152.752 141.993 153.58 155.492C154.254 166.84 157.162 173.875 160.244 181.32C161.237 183.721 162.242 186.159 163.206 188.811C160.281 190.284 157.721 190.744 155.032 189.512C151.243 187.776 150.068 183.931 148.587 179.059C147.04 173.974 145.112 167.649 139.433 161.685C133.567 155.529 125.393 151.507 115.117 149.701L145.604 101.036ZM159.756 155.135C159.015 142.711 161.799 133.382 164.492 124.373C165.595 120.682 166.872 117.062 168.323 113.513C173.138 116.211 177.917 118.92 182.66 121.64C200.617 131.946 207.414 136.296 214.951 143.434C226.298 154.179 231.994 159.572 233.462 167.239C233.606 167.992 233.708 168.752 233.768 169.516C220.486 167.875 208.742 167.526 196.708 170.809C184.89 174.035 176.968 179.588 170.602 184.046C169.895 184.542 169.216 185.018 168.559 185.47C167.69 183.159 166.809 181.025 165.965 178.981C162.966 171.733 160.372 165.461 159.756 155.139V155.135ZM171.558 185.392C177.816 181.004 185.622 175.541 197.147 172.398C208.977 169.168 220.618 169.557 233.826 171.166C233.748 178.611 229.077 184.39 222.492 192.533C215.224 201.522 206.177 212.71 199.29 231.36C198.541 233.383 197.933 235.189 197.378 236.892C193.755 234.631 190.983 232.02 188.406 229.583C184.013 225.433 180.162 221.809 173.729 221.436C174.375 217.66 175.036 212.443 173.386 203.04C172.438 197.614 171.019 192.279 169.146 187.095L171.558 185.392ZM173.444 223.077C179.388 223.356 182.904 226.668 187.264 230.789C189.999 233.371 192.944 236.149 196.861 238.534C196.712 238.998 196.568 239.466 196.423 239.921C195.215 243.771 194.123 247.239 192.166 251.532C191.339 250.937 190.512 250.354 189.709 249.771C183.467 245.335 177.572 241.152 174.217 232.209C172.699 228.175 172.914 226.11 173.444 223.081V223.077ZM202.02 351.677L228.647 323.304C242.629 331.003 270.841 346.596 275.933 349.571L250.054 392.966C249.995 392.849 249.906 392.749 249.798 392.674L224.035 375.26L223.84 375.128L192.013 373.749L202.02 351.677ZM223.298 376.758L248.867 394.045C249.003 394.138 249.165 394.188 249.33 394.189L217.478 447.622C198.16 438.207 183.339 427.433 173.146 415.412L191.289 375.379L223.298 376.758ZM216.626 449.034L209.495 460.994L164.285 434.948L172.389 417.062C182.706 428.989 197.457 439.645 216.643 449.03L216.626 449.034ZM208.44 462.763L166.685 532.782L130.456 509.663L163.462 436.828L208.44 462.763ZM55.3846 451.189C58.2389 443.026 61.0849 435.97 63.8978 429.436C65.925 430.527 67.8701 431.761 69.718 433.13C75.017 437.062 79.2943 441.93 84.2458 447.569C91.9896 456.377 100.768 466.363 116.838 477.025C122.329 480.669 128.043 483.969 133.947 486.909L124.599 507.537L43.8765 485.977C46.5736 476.422 50.5075 465.164 55.397 451.185L55.3846 451.189ZM49.7919 574.256C50.9917 571.856 51.9291 569.335 52.5882 566.737C55.7279 554.941 51.6327 546.215 47.2934 536.948C45.1258 532.331 42.8878 527.561 41.3821 522.074C38.5982 511.961 39.6075 501.606 43.4504 487.561L123.937 509.031L94.3599 574.289L49.7919 574.256ZM125.016 602.678C104.234 606.889 83.413 610.735 62.5534 614.215L65.3539 580.429L98.3476 580.466L129.745 511.177L165.849 534.194L125.016 602.678ZM167.599 535.302L233.396 577.248C222.471 580.215 210.595 583.277 197.234 586.548C174.201 592.185 151.036 597.375 127.738 602.12L167.599 535.302ZM204.828 641.028L130.783 607.784C153.523 603.132 176.166 598.046 198.71 592.524C213.71 588.855 226.839 585.44 238.865 582.136L204.828 641.028ZM243.274 574.539C240.748 575.25 238.168 575.965 235.535 576.681L168.443 533.907L210.247 463.806L283.052 505.743L243.274 574.539ZM323.301 549.384C297.989 557.818 276.938 564.832 251.841 572.076L288.413 508.813L345.809 541.877C337.825 544.52 330.379 547.003 323.306 549.367L323.301 549.384ZM348.423 541.036L289.439 507.056L319.914 454.325L366.529 480.288L418.134 389.071C418.19 388.974 418.225 388.866 418.237 388.755L475.546 421.971L419.449 518.421C390.848 527.188 368.002 534.567 348.427 541.019L348.423 541.036ZM384.987 645.666L355.232 545.284C365.834 541.803 377.4 538.056 390.298 533.968L421.191 630.636C421.244 630.802 421.349 630.946 421.49 631.048C421.631 631.151 421.801 631.206 421.976 631.207C422.062 631.207 422.147 631.194 422.229 631.17C422.438 631.104 422.612 630.958 422.713 630.765C422.813 630.572 422.833 630.347 422.767 630.14L391.891 533.455C403.697 529.724 416.607 525.71 430.899 521.372C432.715 528.083 455.194 606.918 458.019 616.825C436.769 625.498 412.859 634.999 384.991 645.65L384.987 645.666ZM541.657 581.59L541.587 581.635L532.486 585.539C515.526 592.803 497.54 600.494 477.138 608.97L477.076 608.994C471.434 611.337 465.594 613.743 459.558 616.214C456.662 606.002 434.101 526.917 432.479 520.908C443.756 517.49 455.88 513.865 468.993 510.016C471.542 509.265 475.07 508.259 479.624 506.978L544.019 542.829L554.642 576.074C550.442 577.855 546.184 579.669 541.868 581.516C541.798 581.529 541.728 581.548 541.661 581.574L541.657 581.59ZM627.07 588.124L618.797 600.737C618.691 600.671 618.57 600.632 618.445 600.622L549.364 594.695L543.374 583.109C574.85 569.659 602.371 558.101 635.058 546.449L627.07 588.124ZM629.197 588.017L637.317 545.645C648.171 541.803 659.605 537.945 671.953 533.997C672 534.037 672.051 534.073 672.106 534.104L742.015 572.84L706.2 636.14L629.197 588.017ZM734.598 653.891L707.598 637.018L743.454 573.64L776.44 591.917L734.598 653.891ZM800.784 603.056L674.617 533.147C687.659 528.982 701.724 524.762 717.162 520.362C745.705 512.203 770.198 505.936 792.076 500.748L748.377 572.983C748.32 573.076 748.283 573.178 748.267 573.285C748.25 573.392 748.255 573.501 748.281 573.606C748.308 573.711 748.354 573.809 748.419 573.896C748.484 573.983 748.565 574.056 748.658 574.112C748.783 574.186 748.926 574.226 749.072 574.227C749.216 574.226 749.358 574.188 749.483 574.116C749.607 574.044 749.711 573.941 749.783 573.817L794.318 500.19L799.857 498.897L842.162 531.103C842.162 531.103 842.196 531.103 842.212 531.132L800.784 603.056ZM908.923 586.228L889.39 591.424L863.958 638.049L802.591 604.045L841.195 537.059L909.507 575.105C909.101 578.798 908.906 582.51 908.923 586.224V586.228ZM909.709 573.336L842.018 535.635L872.318 483.055C879.446 481.499 886.519 479.927 893.634 478.273L942.86 505.501C935.766 511.973 928.994 518.844 922.26 532.688C915.546 546.441 911.352 560.195 909.709 573.332V573.336ZM975.258 607.952L911.658 574.399C913.197 561.241 917.37 547.422 924.105 533.578C930.839 519.735 937.615 513.028 944.747 506.552L1010.66 543.022L975.258 607.952ZM1067.51 625.658L994.274 586.031L1016.08 546.035L1088.71 586.22L1067.51 625.658ZM1087.99 636.739L1068.61 626.253L1089.8 586.815L1111.02 598.553L1087.99 636.739ZM1112.68 650.099L1089.44 637.523L1112.46 599.353L1144.21 616.92L1112.68 650.099ZM1088.18 578.865L1112.1 536.591C1142.06 555.75 1171.8 574.535 1176.7 577.634V588.826L1159.93 618.549L1088.18 578.865ZM1178.76 589.364L1178.83 519.792C1182.73 528.411 1187.31 538.483 1192.68 550.279L1197.92 561.771C1220.5 611.383 1224.76 621.233 1224.87 637.314C1224.9 642.814 1224.46 648.306 1223.54 653.731L1161.72 619.551L1178.62 589.589L1178.76 589.364ZM1176.77 515.208L1176.7 576.177C1161.34 566.478 1136.67 550.841 1112.71 535.52L1146.59 475.638L1161.03 477.477C1163.76 485.612 1168.6 496.997 1176.78 515.208H1176.77ZM1158.34 456.27C1157.63 462.353 1157.79 467.2 1160.48 475.749L1146.41 473.964L1078.05 432.35L1090.34 409.814C1097.21 406.653 1104.06 403.423 1110.87 400.124L1166.12 433.27C1162.34 439.274 1159.5 446.342 1158.35 456.27H1158.34ZM1202.6 378.831C1194.64 399.922 1185.29 410.388 1177.04 419.623C1173.5 423.584 1170.15 427.335 1167.27 431.55L1113.1 399.052C1146.46 382.832 1179.05 365.02 1210.88 345.615C1209.42 356.966 1206.65 368.113 1202.6 378.831ZM1211.2 343.012C1172.74 366.543 1132.94 387.839 1092 406.793L1132.54 332.452C1137.41 330.304 1142.33 328.03 1147.29 325.631C1147.17 325.719 1147.09 325.846 1147.06 325.989C1147.03 326.132 1147.05 326.281 1147.12 326.411L1168.24 365.775C1168.3 365.874 1168.37 365.957 1168.47 366.015C1168.57 366.073 1168.68 366.103 1168.79 366.103C1168.89 366.103 1168.99 366.078 1169.08 366.029C1169.22 365.953 1169.33 365.825 1169.38 365.671C1169.43 365.517 1169.41 365.351 1169.34 365.208L1148.21 325.82C1148.14 325.697 1148.04 325.601 1147.91 325.546C1147.78 325.49 1147.64 325.48 1147.5 325.516C1154.01 322.361 1160.62 318.96 1167.36 315.313C1180.91 307.958 1196.27 298.042 1209.85 288.799C1212.03 306.419 1213.31 324.408 1211.2 343.012ZM1207.11 268.971C1207.57 272.118 1208.02 275.278 1208.46 278.452L1159.24 249.813L1197.96 228.113C1201.43 238.608 1204.53 251.163 1207.11 268.971ZM1173.91 157.811C1179.2 180.528 1184.66 193.953 1189.97 206.943C1192.59 213.379 1195.16 219.667 1197.58 226.919L1158.02 249.082L1108.27 220.134L1154.18 146.192L1173.6 156.514L1173.91 157.811ZM1173.02 153.871L1136.64 134.531L1169.32 76.7391C1167.14 101.792 1165.71 120.675 1173.02 153.871ZM1170.12 67.7754C1169.98 69.4718 1169.84 71.1368 1169.71 72.7703L1135.18 133.739L1082.34 105.666L1119.85 39.4928L1170.12 67.7754ZM1096.31 -20.5815L1133.87 0.760723L1120.76 32.9342L1079.24 9.56851L1096.31 -20.5815ZM1059.66 5.64482L1118.05 38.4996L1072.37 119.038L1016.02 89.5773L1059.66 5.64482ZM980.979 -38.6404L1054.26 2.59123L1020.34 67.878C1019.35 67.2993 1018.09 66.5769 1016.57 65.7109C1012.65 63.4864 1006.86 60.2605 999.358 56.1233C986.733 49.1461 969.095 39.5051 946.931 27.4468L944.862 26.314L980.979 -38.6404ZM944.234 27.3852C960.751 36.3736 976.661 45.0582 989.757 52.2489L947.936 126.815L903.343 100.864L944.234 27.3852ZM904.108 5.60378C915.339 11.6904 927.149 18.1013 938.786 24.426L897.982 97.7531L861.911 76.7556L904.108 5.60378ZM870.817 -12.414C880.331 -7.27956 891.339 -1.33246 903.016 5.01276L860.823 76.1358L831.329 58.9676L870.817 -12.414ZM777.871 -27.3372L855.42 11.1774L829.571 57.9251L757.515 15.9876L777.871 -27.3372ZM788.721 41.2905L750.979 109.963L715.495 88.3748L754.64 21.4504L788.721 41.2905ZM752.853 20.412L713.733 87.3118L682.708 68.4321C682.668 68.3015 682.595 68.183 682.497 68.0873L675.345 -24.6858L752.853 20.412ZM673.595 -25.7283L674.062 -25.4574L681.26 67.7303L641.809 61.2127L625.887 84.6768L610.466 74.9004L673.595 -25.7283ZM575.478 12.2855L625.838 16.4719L640.502 24.6517L620.369 56.7472C620.311 56.6794 620.241 56.6224 620.162 56.5789L606.879 49.1912L555.747 46.388L575.478 12.2855ZM487.079 -22.412L566.026 16.2667L530.836 77.1332L467.934 45.1403C470.019 25.5095 476.439 2.88264 487.058 -22.412H487.079ZM467.471 50.365C467.54 49.3636 467.623 48.3539 467.719 47.3361L529.806 78.9144L500.022 130.452C496.742 125.97 493.424 122.067 490.264 118.352C485.999 113.345 481.991 108.617 478.553 103.134C469.721 89.0233 465.994 71.2681 467.45 50.365H467.471ZM465.738 46.3305C465.61 47.6398 465.498 48.9409 465.407 50.2214C463.918 71.5636 467.748 89.7292 476.787 104.213C480.286 109.824 484.361 114.609 488.675 119.678C491.985 123.561 495.459 127.653 498.88 132.401L478.098 168.355L390.277 116.12L441.832 34.1819L465.738 46.3305ZM440.376 33.4308L388.854 115.27L361.602 99.0582L408.024 16.9931L440.376 33.4308ZM437.605 -38.4434C437.498 -38.3737 437.41 -38.2793 437.348 -38.1684L407.564 14.4526L386.054 3.50648L373.384 -31.9011L437.605 -38.4434ZM371.266 -31.6877L384.089 4.14265L345.279 73.8169L275.722 35.0807C275.679 35.0581 275.635 35.0389 275.59 35.0233L310.921 -25.5436L371.266 -31.6877ZM308.885 -25.3343L269.782 41.705L203.385 4.72546L207.128 -1.60334L203.447 -14.5975L308.885 -25.3343ZM201.776 -14.4251L205.329 -1.83318L184.886 32.7741L155.387 15.61L152.769 -9.4261L201.776 -14.4251ZM8.9427 -0.979492L28.6124 -34.5361L102.989 -39.5802L84.7215 -8.67912L8.9427 -0.979492ZM44.7535 1.58158L151.139 -9.27014L153.77 15.8604L129.72 48.5592L44.7535 1.58158ZM65.0229 19.8538L138.729 60.6093L86.6078 77.1988L62.483 78.1469L62.0321 63.3058L45.6139 54.1697L65.0229 19.8538ZM44.7866 55.6226L60.3734 64.3032L60.787 78.2331L31.326 79.3905L44.7866 55.6226ZM33.0592 153.891C33.0632 153.864 33.0632 153.837 33.0592 153.809L30.1636 81.5001L30.4159 81.0527L85.3007 78.8939L40.2611 158.517C37.8839 156.949 35.4833 155.407 33.0592 153.891ZM59.5005 186.578L22.4653 193.292L40.8154 160.869C50.8362 167.54 60.4769 174.757 69.6932 182.486L59.5005 186.578ZM71.4264 181.78C61.9351 173.772 51.991 166.308 41.6427 159.424L65.9247 116.464L112.404 142.358L93.1768 173.038L71.4264 181.78ZM98.2152 243.545C100.259 235.817 102.373 227.826 99.8202 217.38C97.7519 208.917 93.2016 200.963 76.6551 186.315L97.3631 177.984L114.141 151.215C124.367 152.902 132.458 156.793 138.2 162.822C143.627 168.503 145.41 174.372 147.003 179.543C148.541 184.6 149.873 188.983 154.341 191.01C155.543 191.582 156.859 191.879 158.192 191.881C160.021 191.881 161.845 191.318 163.756 190.374C165.297 194.855 166.473 199.452 167.272 204.12C168.881 213.28 168.099 217.75 167.45 221.358C167.38 221.768 167.309 222.146 167.243 222.535C165.241 223.475 162.929 225.133 159.036 227.924C155.727 230.305 151.176 233.564 144.624 237.963C117.219 256.367 112.453 256.047 110.158 255.916C104.78 255.575 101.549 253.375 98.1614 251.048C97.6609 250.707 97.1562 250.362 96.6433 250.022C97.0735 247.863 97.6402 245.721 98.2152 243.545ZM161.572 311.422C157.65 305.306 151.718 303.624 144.198 301.448C139.015 299.963 133.145 298.276 126.41 294.804C120.268 291.635 103.957 283.217 97.905 268.393C95.423 262.302 95.423 256.97 96.2875 251.783L97.1976 252.402C100.635 254.754 104.188 257.184 110.021 257.557C112.689 257.721 117.666 258.042 145.526 239.31C152.091 234.898 156.649 231.631 159.975 229.242C163.197 226.935 165.266 225.449 166.933 224.518C166.635 227.231 166.78 230.128 168.372 234.368C172.393 245.064 179.343 250.005 186.065 254.783C187.165 255.567 188.257 256.342 189.324 257.139C187.488 260.512 185.783 263.201 184.269 265.577C180.799 271.085 178.482 274.721 178.441 280.673C178.441 283.681 179.024 285.052 181.535 290.81C182.474 292.965 183.645 295.645 185.167 299.277C193.904 320.139 193.962 324.043 193.13 326.973C191.889 331.389 188.365 335.272 182.698 338.547L164.418 329.83C165.617 322.434 164.666 316.248 161.572 311.422ZM90.8355 301.547L195.347 351.422L168.873 409.879C164.893 404.339 161.772 398.238 159.615 391.78C158.461 388.153 157.565 384.45 156.935 380.698C155.921 375.301 154.961 370.199 150.97 363.05C139.842 343.136 115.208 324.539 93.2347 327.884C91.8943 328.086 90.569 328.377 89.2677 328.754C86.259 322.694 82.1872 316.611 77.0522 310.507L90.8355 301.547Z" fill="#0D5ED5"/>
</svg>
