<svg width="973" height="558" viewBox="0 0 973 558" fill="none" xmlns="http://www.w3.org/2000/svg">
<g clip-path="url(#clip0_4831_19657)">
<path d="M71.8277 213.914C76.7668 219.718 80.6649 225.475 83.5219 231.185C78.4463 234.025 74.5537 238.29 70.0613 243.231C64.5348 249.297 57.6515 256.849 46.1889 264.163C32.9517 272.585 17.7785 278.081 0.992105 280.56V282.201C18.1053 279.71 33.5804 274.116 47.0824 265.53C58.7394 258.113 65.6972 250.475 71.2899 244.335C75.7906 239.41 79.4928 235.33 84.2458 232.65C87.7909 240.215 89.4828 247.668 89.2884 254.949C89.0443 264.06 86.0328 269.831 79.4391 282.476C75.41 290.205 70.3964 299.821 64.0095 313.964C62.3548 317.658 60.6464 321.409 58.9421 325.333C44.0957 319.534 24.6908 319.288 0.992105 324.615V326.298C24.5047 320.962 43.6903 321.151 58.2885 326.844C55.3929 333.525 52.4972 340.757 49.5437 349.167C44.6335 363.22 40.6499 374.613 37.8949 384.377L0.979695 374.531V376.23L37.4399 385.957C33.3033 401.049 32.2526 412.274 35.3716 423.692C37.0262 429.68 39.3717 434.696 41.6469 439.543C45.829 448.466 49.1383 455.517 46.5694 465.162C45.4236 469.467 44.1123 472.02 42.5404 474.245L0.979695 474.199V480.356L63.7033 480.422L60.878 514.487C40.8926 517.809 20.9265 520.782 0.979695 523.406V529.615C21.0754 526.98 41.207 523.994 61.3744 520.656L70.2144 557.032H71.9145L63.0001 520.381C84.4609 516.805 105.902 512.837 127.325 508.478L203.798 542.798L195.579 557.032H202.731L209.466 545.364L227.539 553.474L228.312 557.032H230.426L229.342 552.029L210.5 543.574L247.39 479.757C251.374 478.628 255.25 477.512 259.035 476.395L285.307 557.032H287.044L260.636 475.927C278.477 470.649 294.556 465.408 312.178 459.564L341.217 557.032H343.372L314.143 458.911L325.283 455.217C334.065 452.287 343.414 449.172 353.664 445.802L383.448 546.258C373.936 549.884 364.389 553.475 354.806 557.032H360.676C368.767 554.009 376.835 550.96 384.879 547.888C389.369 546.175 393.755 544.491 398.038 542.835L389.885 557.032H392.263L399.85 543.824L423.561 557.032H427.788L400.553 541.846C430.283 530.354 455.314 520.217 477.494 511.015L486.082 515.792L468.952 557.032H470.743L487.513 516.617L532.379 541.596L523.646 557.032H525.545L533.818 542.396L560.111 557.032H564.338L479.893 510.026C499.489 501.87 516.858 494.429 533.289 487.403L541.848 483.742L548.309 496.235L617.804 502.195L581.762 557.032H584.244L628.394 489.902L670.538 516.244L647.431 557.032H649.33L671.911 517.118L733.448 555.575L732.467 557.032H734.457L734.85 556.453L735.781 557.032H739.661L736 554.746L777.892 492.702L799.762 504.822L769.929 557.032H772.307L801.566 505.819L862.974 539.847L853.6 557.032H855.482L864.418 540.648L893.982 557.032H898.214L865.39 538.846L890.495 492.821L908.94 487.895C909.084 495.987 910.451 504.011 912.994 511.7C915.124 518.021 917.42 522.031 919.443 525.565C922.169 530.325 924.32 534.089 925.048 541.592C925.64 547.724 924.903 552.673 923.435 557.024H925.631C927.029 552.608 927.7 547.584 927.104 541.395C926.335 533.453 923.977 529.328 921.242 524.567C919.265 521.115 917.023 517.179 914.955 511.064C911.364 500.418 910.222 488.601 911.459 476.178L974.46 509.422L948.494 557.032H955.527L960.139 548.577C960.141 548.725 960.184 548.869 960.261 548.995C960.339 549.12 960.45 549.223 960.582 549.291L975.598 557.032H979.184L961.343 547.834C961.214 547.768 961.069 547.736 960.924 547.743C960.779 547.749 960.638 547.794 960.516 547.871L993.261 487.817L1066.54 527.481L1050.65 557.032H1052.05L1067.63 528.052L1086.93 538.497L1075.77 557.032H1077.69L1088.39 539.285L1111.22 551.639L1109.92 553.01L1109.72 553.219L1108.94 557.032H1111.05L1111.63 554.204L1113.1 552.657L1121.18 557.032H1125.5L1114.56 551.114L1146.08 517.939L1216.73 557.032H1229.47L1229.28 556.925C1230.51 550.452 1231.11 543.877 1231.07 537.29C1230.96 520.344 1226.81 510.325 1205.13 462.662L1241.94 450.986V449.262L1204.55 461.119C1204.51 461.131 1204.47 461.148 1204.43 461.168L1203.56 459.252L1198.32 447.76C1166.31 377.474 1162.96 370.123 1164.49 356.994C1165.51 348.161 1168 341.902 1171.43 336.472L1241.97 378.767V376.366L1172.59 334.74C1175.21 330.94 1178.31 327.476 1181.69 323.704C1184.34 320.732 1187.21 317.547 1190.15 313.796L1238.48 345.928C1238.58 345.997 1238.7 346.034 1238.82 346.035C1238.96 346.035 1239.09 345.993 1239.19 345.914C1239.3 345.835 1239.38 345.724 1239.42 345.597C1239.46 345.471 1239.45 345.335 1239.41 345.211C1239.36 345.086 1239.28 344.98 1239.17 344.906L1190.9 312.827C1196.81 305.189 1202.99 295.351 1208.42 280.995C1209.98 276.849 1211.36 272.649 1212.55 268.394L1241.97 283.687V281.836L1213.01 266.765C1215.22 258.479 1216.74 250.03 1217.56 241.499C1225.75 236.429 1233.89 231.259 1241.97 225.989V223.526C1233.97 228.761 1225.92 233.895 1217.81 238.93C1218.24 233.849 1218.46 228.65 1218.45 223.334C1218.45 210.565 1217.3 198.256 1215.56 184.872C1226.6 177.238 1235.97 170.429 1241.46 166.44L1241.95 166.083V158.47L1241.9 158.511C1240.94 159.192 1239.55 160.202 1237.8 161.478C1232.77 165.127 1224.48 171.152 1214.63 178.002C1214.19 174.776 1213.72 171.484 1213.23 168.094C1210.49 149.145 1207.14 136.007 1203.47 124.999L1241.94 103.439V102.023L1203.05 123.809C1200.7 116.91 1198.22 110.823 1195.68 104.609C1190.48 91.8452 1185.1 78.6452 1179.92 56.4002C1175.78 38.6332 1174.13 25.2412 1173.78 12.8952L1241.97 50.9742V49.5622L1173.78 11.4792C1173.56 -0.312513 1174.52 -11.2833 1175.67 -24.3882C1175.8 -25.8576 1175.93 -27.3515 1176.08 -28.8701L1241.97 8.2002V1.12019L1209.17 -17.3494L1211.15 -63.1778C1211.19 -63.1758 1211.22 -63.1758 1211.26 -63.1778L1241.97 -62.833V-64.4747L1211.28 -64.8195H1211.22L1213.26 -111.965L1238.81 -98.3063C1238.93 -98.2375 1239.06 -98.1933 1239.2 -98.1763C1239.34 -98.1593 1239.48 -98.1698 1239.61 -98.2073C1239.74 -98.2447 1239.87 -98.3083 1239.98 -98.3943C1240.08 -98.4803 1240.17 -98.5869 1240.24 -98.7079C1240.31 -98.8288 1240.35 -98.9616 1240.36 -99.0984C1240.37 -99.2351 1240.36 -99.3731 1240.31 -99.5041C1240.27 -99.635 1240.21 -99.7564 1240.12 -99.8608C1240.03 -99.9653 1239.92 -100.051 1239.79 -100.112L1213.22 -114.313L1210.21 -140.695H1208.97L1211.9 -115.015L1177.25 -133.533C1177.25 -133.763 1177.23 -133.993 1177.21 -134.227C1177.08 -136.443 1176.95 -138.594 1176.8 -140.695H1170.59C1170.67 -139.623 1170.74 -138.538 1170.8 -137.441L1165.81 -140.695H1162.05L1170.95 -134.88C1170.95 -134.539 1170.99 -134.206 1171.01 -133.862C1173.66 -89.281 1172.38 -61.0312 1170.67 -38.9954L1122.58 -66.0508L1152.98 -140.695H1150.75L1134.34 -100.399L1096.92 -121.676L1107.68 -140.695H1105.78L1095.48 -122.489L1063.46 -140.695H1060.98L1094.9 -121.405L1077.83 -91.2305L1061.77 -100.26C1061.65 -100.655 1061.45 -101.022 1061.18 -101.34C1060.92 -101.657 1060.59 -101.918 1060.22 -102.107C1059.55 -102.454 1058.77 -102.542 1058.04 -102.353L1030.99 -117.576L1048.36 -140.675H1045.78L1029.18 -118.598L989.914 -140.695H975.023L965.653 -123.868C960.528 -126.827 948.776 -133.603 936.453 -140.695H933.971C944.792 -134.461 956.106 -127.939 965.041 -122.784L939.39 -76.6685C927.195 -83.3011 915.207 -89.8022 904.741 -95.4785L931.567 -140.695H930.128L903.653 -96.0531C887.26 -104.935 874.792 -111.678 871.421 -113.5L886.462 -140.695H884.099L856.02 -89.9048L820.445 -107.553L838.704 -140.695H836.818L818.968 -108.304L778.392 -128.456L784.142 -140.695H781.863L776.597 -129.507L759.939 -140.695H757.721L776.072 -128.383L755.724 -85.0659L660.13 -140.695H647.865L672.507 -126.355L641.383 -76.7465L626.313 -85.1357L576.384 -89.2892L606.085 -140.695H598.933L566.829 -85.1644L487.699 -123.933C490.021 -129.406 492.538 -134.993 495.249 -140.695H492.961C477.726 -108.432 468.662 -79.952 465.949 -55.8598L409.049 -84.8032L438.788 -137.367C438.895 -137.556 438.922 -137.78 438.863 -137.989C438.804 -138.199 438.664 -138.376 438.473 -138.483L438.382 -138.524L459.698 -140.695H398.923L367.729 -137.519L367.898 -140.695H366.244L366.053 -137.35L265.368 -127.09L272.901 -140.695H271.01L263.374 -126.893L219.778 -122.452L230.215 -140.695H223.079L212.2 -121.68L201.858 -120.63C200.339 -127.205 199.92 -133.984 200.617 -140.695H198.963C198.276 -133.928 198.695 -127.096 200.204 -120.461L139.929 -114.305L154.862 -140.695H152.963L137.902 -114.116L86.7609 -108.908L104.987 -139.719L119.465 -140.695H95.1086L29.6134 -136.267L32.2071 -140.695H29.8161L6.5931 -101.052C6.53518 -100.953 6.49593 -100.845 6.47727 -100.732L0.979695 -100.174V-93.9845L33.9941 -97.3459L63.5958 -80.9698L44.1537 -46.6375L0.979695 -70.6927V-68.8088L43.3594 -45.2051L29.4149 -20.5548L0.979695 -19.4385V-17.7967L28.48 -18.8803L31.3756 52.8382C21.6739 46.8482 11.5419 41.2322 0.979695 35.9902V37.8412C14.2414 44.4352 27.0884 51.8202 39.4503 59.9552L20.3474 93.6592L0.979695 97.1842V103.443L61.242 92.5182L74.9591 87.0022C91.6504 101.707 96.1924 109.51 98.2111 117.784C100.664 127.827 98.6247 135.613 96.6143 143.144C96.089 145.139 95.5678 147.109 95.1417 149.083C91.4765 146.749 87.2385 145.452 82.8849 145.332C79.013 145.168 65.9247 145.25 60.0714 153.306C55.5583 159.512 57.7342 166.85 60.0383 174.649C62.4044 182.648 64.8533 190.918 60.5306 198.962C56.6049 206.272 48.3234 211.431 42.4494 210.225C35.6488 208.829 31.9382 198.733 26.8046 184.815C25.4827 181.292 24.3857 177.689 23.5202 174.029C22.6009 170.151 21.4277 166.337 20.0082 162.611C14.916 148.882 11.5488 139.816 3.31275 136.212C2.55223 135.882 1.7683 135.607 0.967285 135.391V137.099C1.53742 137.273 2.09682 137.479 2.64262 137.718C9.91481 140.899 12.9056 148.225 18.4569 163.165C19.8478 166.829 20.9975 170.578 21.8986 174.39C22.7765 178.109 23.8901 181.769 25.2327 185.348C30.7634 200.341 34.4078 210.22 42.1102 211.817C42.8124 211.961 43.5276 212.032 44.2447 212.03C50.5571 212.03 58.1189 206.925 61.9866 199.718C66.6279 191.099 63.9681 182.094 61.6185 174.164C59.4343 166.777 57.3702 159.799 61.4117 154.259C66.7893 146.871 79.1495 146.805 82.8063 146.965C87.0877 147.087 91.2469 148.409 94.8025 150.778C93.7518 156.43 93.636 162.233 96.3951 168.997C102.674 184.384 119.382 193.003 125.67 196.249C132.549 199.8 138.494 201.507 143.764 203.017C151.21 205.156 156.587 206.711 160.186 212.293C162.991 216.668 163.909 222.303 162.871 229.075L90.3556 194.489L0.979695 252.618V259.977L71.8277 213.914ZM1177.38 -131.128L1212.04 -112.602L1207.96 -18.0143L1176.63 -35.6627C1178.42 -57.7889 1179.92 -85.9935 1177.38 -131.128ZM69.6477 316.472C75.9602 302.493 80.9324 292.959 84.9284 285.279C91.7538 272.183 95.1831 265.612 95.4644 255.088C95.6877 246.913 93.8387 238.61 89.9544 230.253C91.1062 229.935 92.2762 229.686 93.4581 229.506C114.712 226.272 138.642 244.425 149.493 263.847C153.352 270.754 154.246 275.495 155.284 280.991C155.926 284.808 156.839 288.576 158.018 292.265C160.333 299.19 163.726 305.713 168.075 311.596L134.642 385.371C128.82 382.471 123.185 379.216 117.769 375.623C101.88 365.079 93.1809 355.179 85.5034 346.45C80.4856 340.741 76.1546 335.811 70.7149 331.777C68.7635 330.335 66.706 329.04 64.5596 327.902C66.2805 323.966 67.993 320.215 69.6477 316.472ZM186.714 198.659C185.188 195.014 184.017 192.33 183.074 190.171C180.613 184.532 180.104 183.358 180.116 180.69C180.141 175.199 182.354 171.718 185.705 166.448C187.194 164.101 188.869 161.457 190.669 158.145C195.178 161.671 199.145 165.783 201.523 172.695C203.083 177.234 203.004 180.083 202.901 183.686C202.785 187.852 202.648 192.572 204.969 200.567C207.642 209.698 212.011 218.253 217.851 225.792L198.71 246.186L184.509 239.41C190.003 236.028 193.444 232.022 194.747 227.434C195.691 224.081 195.674 220.071 186.714 198.659ZM850.87 385.555C814.724 393.271 773.751 402.017 716.587 418.389C712.026 419.695 707.583 420.985 703.259 422.26C703.215 422.23 703.167 422.206 703.118 422.186L635.224 395.299C634.475 391.773 629.705 369.364 628.605 366.569C628.576 366.498 628.536 366.432 628.489 366.372L715.838 342.702L716.277 342.583C735.384 337.404 754.747 331.912 773.478 326.642C779.366 324.982 785.282 323.312 791.228 321.635L890.962 376.813C884.443 378.311 877.957 379.752 871.417 381.176H871.384C864.62 382.621 857.811 384.074 850.87 385.555ZM869.597 383.639L843.048 429.701L801.95 398.414C819.841 394.281 836.007 390.829 851.304 387.562C857.493 386.245 863.57 384.944 869.597 383.639ZM240.337 313.324L262.083 276.857L334.297 317.079L313.022 353.87L240.337 313.324ZM312.199 355.298L284.07 403.947L211.298 362.017L239.493 314.736L312.199 355.298ZM207.397 170.708C204.303 161.712 199.05 156.709 193.515 152.539C195.608 148.024 196.737 144.416 197.995 140.411C198.102 140.07 198.21 139.725 198.322 139.381C201.31 141.001 204.501 142.223 207.811 143.017C214.43 144.659 219.323 144.248 223.654 143.883C228.755 143.472 233.168 143.103 239.208 145.96C245.413 148.89 250.662 153.975 254.82 161.084C248.59 171.706 242.513 182.049 236.953 191.513L235.427 194.103L243.146 198.835L222.144 221.216C217.089 214.496 213.292 206.929 210.934 198.876C208.895 191.792 209.011 187.758 209.118 183.859C209.226 179.96 209.329 176.299 207.397 170.708ZM184.34 -14.1645L302.9 51.4302C298.56 63.2792 292.302 71.0072 284.285 74.4142C277.89 77.1312 272.731 76.1052 263.366 74.2372C259.552 73.4782 255.229 72.5962 249.843 71.7992C244.809 71.0362 240.039 70.3142 235.456 69.7232C235.397 68.7862 235.279 67.8542 235.1 66.9322C233.532 58.7232 227.708 53.2232 216.105 42.2362C208.444 34.9842 201.589 30.5922 183.5 20.2132C178.693 17.4632 173.849 14.7202 168.968 11.9842C172.947 2.65319 178.112 -6.1347 184.34 -14.1645ZM163.524 8.95518C157.86 5.81618 152.177 2.71118 146.477 -0.361816L162.651 -26.1654L178.855 -17.1934C172.695 -9.1258 167.548 -0.345315 163.524 8.95518ZM235.477 71.3932C239.969 71.9722 244.648 72.6822 249.583 73.4452C254.927 74.2662 259.229 75.1162 263.027 75.8712C272.4 77.7382 278.059 78.8672 284.926 75.9452C293.332 72.3702 299.863 64.4082 304.368 52.2552L314.739 58.0012C308.629 69.1072 281.079 116.323 255.771 159.479C251.523 152.502 246.203 147.462 239.919 144.494C233.47 141.453 228.635 141.847 223.518 142.27C219.108 142.631 214.55 143.005 208.212 141.449C204.936 140.664 201.784 139.437 198.843 137.804C199.418 136.007 200.055 134.111 200.845 131.968C207.641 113.573 216.593 102.504 223.787 93.6102C230.314 85.5042 235.307 79.3272 235.477 71.3932ZM628.249 85.8362L648.192 45.3352L671.969 58.7032L618.532 150.068C617.622 147.737 615.5 142.84 610.76 132.276C606.966 123.817 601.891 112.637 595.644 98.9702L628.249 85.8362ZM594.958 97.4762C593.907 95.1752 592.825 92.8072 591.711 90.3712C578.643 61.8472 565.348 33.0922 563.933 30.0382L576.343 4.94519L646.757 44.5312L627.046 84.5602L594.958 97.4762ZM977.732 269.856C951.216 275.462 921.155 281.824 886.201 290.102C878.863 291.839 871.52 293.639 864.173 295.499L856.69 260.05L888.058 255.741L888.278 255.712L910.326 232.203L916.378 235.314L934.438 206.256L959.436 220.329L1028.1 258.909C1012.44 262.525 995.838 266.039 977.732 269.868V269.856ZM1028.36 265.177C1013.86 282.25 1001.68 301.144 992.144 321.372C988.41 329.25 985.204 337.364 982.547 345.662C981.889 347.632 981.257 349.532 980.57 351.457C963.965 357.096 948.842 361.718 934.533 365.736L909.747 290.952C935.427 285.099 958.311 280.28 979.027 275.877C996.711 272.146 1013 268.702 1028.36 265.189V265.177ZM490.516 274.571C489.925 253.828 487.947 240.966 486.355 230.627C484.427 218.109 483.153 209.835 486.028 196.561C487.162 191.042 488.968 185.679 491.406 180.592C494.355 182.266 496.907 184.544 500.022 187.323C503.82 190.713 508.539 194.928 515.774 199.5C518.283 201.098 520.872 202.569 523.531 203.908L555.945 331.604L516.858 343.507L488.547 327.09C490.363 309.65 491.021 292.11 490.516 274.584V274.571ZM525.458 204.831C534.439 209.018 541.67 210.167 549.219 211.374C558.878 212.913 568.868 214.505 584.157 222.238C585.919 223.13 587.628 224.041 589.282 224.971L585.332 240.157L611.248 314.728L557.513 331.116L525.458 204.831ZM724.629 151.96L791.15 189.72L757.155 250.812L748.737 245.768L748.451 245.599L703.776 266.182L671.374 248.255L724.629 151.96ZM704.649 183.826L627.492 138.835L650.781 99.0232L727.855 141.872L704.649 183.826ZM933.375 205.661L915.943 233.705L805.413 176.873L823.705 144.002L933.375 205.661ZM824.706 142.204L843.292 108.804L909.478 151.324L892.422 180.288L824.706 142.204ZM909.196 231.624L887.686 254.563L786.608 268.444L762.491 253.997L804.813 177.953L909.196 231.624ZM756.555 251.891L738.052 285.136L705.124 266.917L748.377 246.987L756.555 251.891ZM719.251 281.787L660.358 299.747C651.96 282.478 640.817 266.662 627.356 252.905C621.325 246.748 609.423 234.588 591.202 224.175L594.213 212.605L719.251 281.787ZM626.177 254.046C639.457 267.617 650.461 283.211 658.769 300.235L612.853 314.243L587.086 240.087L590.809 225.825C608.576 236.077 620.232 247.98 626.169 254.046H626.177ZM611.93 316.669L627.103 360.334C603.653 366.692 582.928 372.315 564.789 377.244L557.943 333.135L611.93 316.669ZM613.51 316.185L721.766 283.174L737.775 292.027L783.551 317.342L771.765 320.671C753.051 325.957 733.708 331.424 714.63 336.595L714.192 336.714L628.692 359.883L613.51 316.185ZM743.483 288.14L761.883 255.076L786.148 269.609L786.335 269.72L855.466 260.231L862.982 295.815C839.163 301.853 815.411 308.411 792.002 314.982L743.483 288.14ZM961.363 219.045L998.593 153.376L1044.77 178.437L1003.58 242.755L961.363 219.045ZM1034.37 165.8L1069.09 104.465L1104.22 124.901L1073.61 187.08L1034.37 165.8ZM1039.98 80.3822L1060.12 44.8472L1091.15 62.1382L1070.69 98.2562L1039.98 80.3822ZM1067.66 103.636L1032.91 165.012L1001.63 148.032L1036.94 85.7502L1067.66 103.636ZM999.822 147.047L934.302 111.492L971.734 47.7982L1035.14 84.7122L999.822 147.047ZM996.777 152.412L959.564 218.019L893.506 180.879L931.15 116.799L996.777 152.412ZM910.086 150.257L843.9 107.72L860.26 78.3252L930.066 116.232L910.086 150.257ZM819.299 139.175L752.489 101.613L799.204 17.1302L834.055 14.1922L874.329 40.2952L819.299 139.175ZM818.302 140.973L791.762 188.665L725.237 150.905L751.496 103.419L818.302 140.973ZM728.653 140.448L651.613 97.5992L673.769 59.7122L749.684 102.397L728.653 140.448ZM626.892 139.922L704.074 184.938L669.582 247.257L589.874 203.157L626.892 139.922ZM592.72 211.78L589.712 223.354C588.153 222.488 586.556 221.634 584.91 220.801C569.389 212.954 558.812 211.267 549.48 209.781C539.577 208.205 530.224 206.711 516.647 198.125C509.528 193.61 504.862 189.457 501.114 186.112C497.966 183.305 495.29 180.916 492.129 179.135C495.025 173.59 498.405 169.362 501.875 165.004C502.512 164.207 503.154 163.403 503.791 162.59L592.72 211.78ZM500.27 163.719C496.717 168.176 493.275 172.502 490.297 178.178C487.783 177.052 485.108 176.319 482.367 176.007C462.098 173.421 445.137 188.472 440.409 193.147C428.07 205.361 424.781 219.34 419.809 240.494C416.449 254.809 414.631 269.438 414.386 284.134L374.029 260.74L448.488 131.96L501.991 161.564L500.27 163.719ZM318.846 153.741L297.721 162.672L267.986 206.826L249.616 195.564H249.591L243.833 192.034C248.871 183.452 265.624 154.936 282.142 126.674C288.019 116.602 293.274 107.59 297.907 99.6392L339.405 122.754C329.502 137.649 320.286 151.566 318.846 153.741ZM340.853 123.559L420.516 167.946L392.189 216.951L300.111 163.432L319.967 155.042L320.108 154.837C320.298 154.538 330.185 139.627 340.853 123.559ZM298.527 164.429L391.365 218.359L364.01 265.677L269.393 207.688L298.527 164.429ZM421.339 166.506L341.767 122.179C351.695 107.219 362.12 91.6352 365.842 86.2512L443.04 128.956L421.339 166.506ZM340.319 121.359L298.734 98.2192C302.829 91.1762 306.399 85.0232 309.406 79.8112C313.299 73.0722 316.298 67.8392 318.317 64.2562C319.048 62.9592 319.658 61.8642 320.149 60.9722L364.391 85.4502C360.543 91.0202 350.202 106.518 340.319 121.379V121.359ZM320.286 53.9992L307.049 46.6852L339.769 -12.0302L359.381 -0.357712L326.64 57.5122L320.286 53.9992ZM248.524 202.135L289.327 227.142L276.789 248.164C275.714 247.516 273.658 246.359 269.666 244.126C265.447 241.762 259.573 238.495 252.209 234.419C243.303 229.494 234.331 224.54 229.826 222.057L248.524 202.135ZM291.085 228.222L360.92 271.021L335.12 315.655L262.927 275.433L291.085 228.222ZM372.991 262.525L416.946 288.001C416.845 288.069 416.761 288.16 416.702 288.267L365.905 378.049L320.741 352.897L372.991 262.525ZM416.011 285.099C416.186 270.211 417.989 255.385 421.389 240.883C426.295 220.005 429.538 206.211 441.547 194.325C446.134 189.785 462.615 175.162 482.123 177.649C484.679 177.939 487.175 178.617 489.523 179.66C487.348 184.105 485.453 189.387 483.993 196.139C481.035 209.802 482.338 218.22 484.295 230.968C485.875 241.228 487.844 254.042 488.431 274.658C488.922 291.791 488.295 308.937 486.553 325.99L416.011 285.099ZM516.192 345.534L516.581 345.76L556.334 333.636L563.176 377.675C509.321 392.311 478.594 400.745 467.206 404.086C450.561 408.974 435.507 413.497 421.765 417.7L476.969 322.788L516.192 345.534ZM606.019 372.446L618.4 416.904L544.768 441.377L481.846 406.348C502.918 400.446 543.155 389.483 606.019 372.43V372.446ZM618.843 418.488L626.847 447.218C602.027 456.276 579.876 465.367 556.156 475.427L545.732 442.789L618.843 418.488ZM608.013 371.904L627.004 366.754C626.985 366.892 627.001 367.033 627.05 367.164C627.96 369.45 631.794 387.07 633.697 396.07L633.788 396.481L700.727 422.99C673.012 431.199 649.904 438.849 628.795 446.504L608.013 371.904ZM799.667 319.246C828.681 311.12 858.233 303.084 887.641 296.119C894.811 294.42 901.774 292.8 908.53 291.259L933.35 366.097C921.797 369.311 910.768 372.114 899.914 374.716L799.667 319.246ZM979.66 353.96C977.618 359.304 975.19 364.494 972.396 369.491C963.217 386.212 955.279 394.195 947.675 401.135L902.565 376.173C926.144 370.488 950.658 363.72 979.66 353.944V353.96ZM974.212 370.472C975.006 369.027 975.726 367.665 976.392 366.368L1034.75 398.87L1013.63 437.597L949.582 402.165C956.925 395.422 965.115 387.025 974.212 370.456V370.472ZM1031.44 417.864L1097.63 458.812L1086.73 478.078L1019.02 440.614L1031.44 417.864ZM1032.23 416.415L1045.12 392.779C1045.91 393.353 1046.9 394.059 1048.17 394.938C1051.6 397.322 1056.7 400.737 1063.31 405.092C1074.45 412.414 1090.05 422.498 1109.68 435.053L1110.72 435.714L1098.46 457.376L1032.23 416.415ZM1045.71 391.695L1077.28 333.825L1145.04 375.073L1111.32 434.655C1081.77 415.713 1053.6 397.466 1045.71 391.679V391.695ZM1035.53 397.441L977.161 364.931C977.161 364.931 977.161 364.931 977.132 364.931C979.043 361.083 980.731 357.13 982.187 353.09C989.19 350.702 996.454 348.141 1004.04 345.37C1030.01 335.881 1055.66 325.448 1080.98 314.071L1035.53 397.441ZM1003.32 343.482C996.31 346.043 989.553 348.435 983.048 350.657C983.54 349.236 984.016 347.816 984.504 346.355C987.139 338.136 990.318 330.097 994.018 322.292C1003.86 301.371 1016.56 281.891 1031.75 264.397C1064.73 256.759 1093.61 248.657 1123.34 236.365L1082.6 311.063C1056.55 322.858 1030.12 333.652 1003.32 343.445V343.482ZM1031.07 258.277L1005.01 243.621L1046.22 179.282L1132.14 225.874L1129.32 227.105C1129.15 227.163 1128.98 227.236 1128.82 227.323C1096.88 241.29 1066.34 250.032 1031.07 258.24V258.277ZM1108.6 206.12L1153.89 153.856L1205.85 184.101C1192.53 193.155 1177.56 202.804 1164.38 209.958C1155.77 214.628 1147.42 218.852 1139.14 222.706L1108.6 206.12ZM1107.49 205.517L1074.67 187.708L1105.28 125.561L1152.8 153.171L1107.49 205.517ZM1072.13 99.1342L1092.59 62.9792L1129.54 83.5712L1107.2 119.545L1072.13 99.1342ZM1093.4 61.5472L1114.13 24.9292L1153.1 45.6432L1130.41 82.1712L1093.4 61.5472ZM1091.96 60.7262L1060.94 43.4352L1081.32 7.46919L1112.67 24.1322L1091.96 60.7262ZM1038.18 79.3642L985.343 48.6102L1015.45 -9.30911L1071.77 20.1312L1038.18 79.3642ZM979.987 45.4912L949.375 27.6662L991.205 -46.9618C1004.86 -39.4632 1015.23 -33.6885 1019.75 -31.0413L979.987 45.4912ZM970.65 47.1942L933.201 110.897L897.01 91.2622L933.673 25.6472L970.65 47.1942ZM895.918 90.7002L863.239 72.9612L900.344 6.23819L932.61 25.0152L895.918 90.7002ZM874.912 39.2322L834.373 12.9442L799.919 15.8502L828.367 -35.6257L894.991 3.14719L874.912 39.2322ZM788.25 32.6652L752.389 10.8472L790.148 -57.8586L826.58 -36.6518L788.25 32.6652ZM787.654 33.7452L750.673 100.62L714.291 80.1642L751.794 11.9262L787.654 33.7452ZM712.856 79.3312L674.799 57.9392L714.866 -10.5609L750.379 11.0442L712.856 79.3312ZM691.089 26.0162C691.06 25.9962 691.035 25.9712 691.002 25.9512L627.265 -14.4436L642.57 -37.0171L681.802 -30.5364C681.892 -30.5199 681.985 -30.5199 682.075 -30.5364L713.1 -11.6568L691.089 26.0162ZM690.113 27.3342C690.164 27.3632 690.218 27.3882 690.274 27.4082L673.008 56.9262L604.84 18.6042L626.351 -13.0809L690.113 27.3342ZM603.396 17.7912L588.716 9.52119L609.572 -23.7233L624.944 -13.9798L603.396 17.7912ZM609.188 -25.402C609.063 -25.339 608.957 -25.2441 608.882 -25.127C608.803 -25.0039 608.759 -24.8623 608.753 -24.7166L587.657 8.93819L536.3 -19.9351L554.828 -52.0429L606.408 -49.215L619.356 -42.0038C619.413 -41.9728 619.474 -41.9493 619.538 -41.934L609.188 -25.402ZM575.267 4.3252L562.568 30.0142L562.692 30.2812C571.255 48.7792 583.292 74.8982 593.953 98.2152C593.889 98.3922 593.889 98.5872 593.953 98.7652C594.033 98.9482 594.181 99.0952 594.366 99.1752C606.16 124.979 616.162 147.142 617.722 151.398L597.651 185.718L554.435 48.9962L554.34 48.7012L514.864 17.0982L535.25 -18.1661L575.267 4.3252ZM552.553 49.9072L596.017 187.351C596.089 187.571 596.235 187.76 596.43 187.885L588.083 202.155L507.543 157.595C512.093 151.123 516.399 143.161 519.489 130.388C523.295 114.636 525.607 89.4772 514.988 59.0682C512.22 50.9982 508.496 43.2832 503.894 36.0842L513.822 18.8792L552.553 49.9072ZM513.015 59.7582C523.473 89.7192 521.202 114.443 517.462 129.941C514.43 142.471 510.202 150.269 505.71 156.619L451.549 126.657L502.711 38.1242C506.958 44.9192 510.414 52.1702 513.015 59.7372V59.7582ZM446.13 123.62L354.521 72.9402L389.409 17.5082L477.262 69.7842L446.13 123.62ZM353.056 72.1362L328.063 58.3092L360.792 0.492188L387.982 16.6672L353.056 72.1362ZM360.167 -1.7942L340.559 -13.4626L385.649 -94.399L406.572 -83.7566L360.167 -1.7942ZM305.253 45.6842L234.025 6.28319L270.663 -56.5124C270.741 -56.5733 270.807 -56.6486 270.857 -56.7341C270.902 -56.8162 270.932 -56.9049 270.948 -56.9967L274.775 -63.5636C274.818 -63.5289 274.863 -63.4973 274.911 -63.4692L344.477 -24.7207L305.253 45.6842ZM232.577 5.46219L165.617 -31.583C165.737 -31.6532 165.836 -31.752 165.907 -31.8703L202.57 -93.845H202.595L268.95 -56.8777L232.577 5.46219ZM164.459 -32.7076C164.387 -32.5824 164.349 -32.4412 164.347 -32.2972L131.159 -50.6351L154.837 -82.825L184.05 -65.825L164.459 -32.7076ZM157.228 -29.1697L113.281 40.9522L66.752 15.0292L87.3111 -21.3018L140.731 -38.2976L157.228 -29.1697ZM145.604 1.03319C151.374 4.13919 157.132 7.28619 162.879 10.4732C161.222 14.4442 159.775 18.4982 158.544 22.6182C155.83 31.6972 152.752 41.9902 153.58 55.4892C154.254 66.8372 157.162 73.8722 160.244 81.3172C161.237 83.7182 162.242 86.1562 163.206 88.8082C160.281 90.2812 157.721 90.7412 155.032 89.5092C151.243 87.7732 150.068 83.9282 148.587 79.0562C147.04 73.9712 145.112 67.6462 139.433 61.6822C133.567 55.5262 125.393 51.5042 115.117 49.6982L145.604 1.03319ZM159.756 55.1322C159.015 42.7082 161.799 33.3792 164.492 24.3702C165.595 20.6792 166.872 17.0592 168.323 13.5102C173.138 16.2082 177.917 18.9172 182.66 21.6372C200.617 31.9432 207.414 36.2932 214.951 43.4312C226.298 54.1762 231.994 59.5692 233.462 67.2362C233.606 67.9892 233.708 68.7492 233.768 69.5132C220.486 67.8722 208.742 67.5232 196.708 70.8062C184.89 74.0322 176.968 79.5852 170.602 84.0432C169.895 84.5392 169.216 85.0152 168.559 85.4672C167.69 83.1562 166.809 81.0222 165.965 78.9782C162.966 71.7302 160.372 65.4582 159.756 55.1362V55.1322ZM171.558 85.3892C177.816 81.0012 185.622 75.5382 197.147 72.3952C208.977 69.1652 220.618 69.5542 233.826 71.1632C233.748 78.6082 229.077 84.3872 222.492 92.5302C215.224 101.519 206.177 112.707 199.29 131.357C198.541 133.38 197.933 135.186 197.378 136.889C193.755 134.628 190.983 132.017 188.406 129.58C184.013 125.43 180.162 121.806 173.729 121.433C174.375 117.657 175.036 112.44 173.386 103.037C172.438 97.6112 171.019 92.2762 169.146 87.0922L171.558 85.3892ZM173.444 123.074C179.388 123.353 182.904 126.665 187.264 130.786C189.999 133.368 192.944 136.146 196.861 138.531C196.712 138.995 196.568 139.463 196.423 139.918C195.215 143.768 194.123 147.236 192.166 151.529C191.339 150.934 190.512 150.351 189.709 149.768C183.467 145.332 177.572 141.149 174.217 132.206C172.699 128.172 172.914 126.107 173.444 123.078V123.074ZM202.02 251.674L228.647 223.301C242.629 231 270.841 246.593 275.933 249.568L250.054 292.963C249.995 292.846 249.906 292.746 249.798 292.671L224.035 275.257L223.84 275.125L192.013 273.746L202.02 251.674ZM223.298 276.755L248.867 294.042C249.003 294.135 249.165 294.185 249.33 294.186L217.478 347.619C198.16 338.204 183.339 327.43 173.146 315.409L191.289 275.376L223.298 276.755ZM216.626 349.031L209.495 360.991L164.285 334.945L172.389 317.059C182.706 328.986 197.457 339.642 216.643 349.027L216.626 349.031ZM208.44 362.76L166.685 432.779L130.456 409.66L163.462 336.825L208.44 362.76ZM55.3846 351.186C58.2389 343.023 61.0849 335.967 63.8978 329.433C65.925 330.524 67.8701 331.758 69.718 333.127C75.017 337.059 79.2943 341.927 84.2458 347.566C91.9896 356.374 100.768 366.36 116.838 377.022C122.329 380.666 128.043 383.966 133.947 386.906L124.599 407.534L43.8765 385.974C46.5736 376.419 50.5075 365.161 55.397 351.182L55.3846 351.186ZM49.7919 474.253C50.9917 471.853 51.9291 469.332 52.5882 466.734C55.7279 454.938 51.6327 446.212 47.2934 436.945C45.1258 432.328 42.8878 427.558 41.3821 422.071C38.5982 411.958 39.6075 401.603 43.4504 387.558L123.937 409.028L94.3599 474.286L49.7919 474.253ZM125.016 502.675C104.234 506.886 83.413 510.732 62.5534 514.212L65.3539 480.426L98.3476 480.463L129.745 411.174L165.849 434.191L125.016 502.675ZM167.599 435.299L233.396 477.245C222.471 480.212 210.595 483.274 197.234 486.545C174.201 492.182 151.036 497.372 127.738 502.117L167.599 435.299ZM204.828 541.025L130.783 507.781C153.523 503.129 176.166 498.043 198.71 492.521C213.71 488.852 226.839 485.437 238.865 482.133L204.828 541.025ZM243.274 474.536C240.748 475.247 238.168 475.962 235.535 476.678L168.443 433.904L210.247 363.803L283.052 405.74L243.274 474.536ZM323.301 449.381C297.989 457.815 276.938 464.829 251.841 472.073L288.413 408.81L345.809 441.874C337.825 444.517 330.379 447 323.306 449.364L323.301 449.381ZM348.423 441.033L289.439 407.053L319.914 354.322L366.529 380.285L418.134 289.068C418.19 288.971 418.225 288.863 418.237 288.752L475.546 321.968L419.449 418.418C390.848 427.185 368.002 434.564 348.427 441.016L348.423 441.033ZM384.987 545.663L355.232 445.281C365.834 441.8 377.4 438.053 390.298 433.965L421.191 530.633C421.244 530.799 421.349 530.943 421.49 531.045C421.631 531.148 421.801 531.203 421.976 531.204C422.062 531.204 422.147 531.191 422.229 531.167C422.438 531.101 422.612 530.955 422.713 530.762C422.813 530.569 422.833 530.344 422.767 530.137L391.891 433.452C403.697 429.721 416.607 425.707 430.899 421.369C432.715 428.08 455.194 506.915 458.019 516.822C436.769 525.495 412.859 534.996 384.991 545.647L384.987 545.663ZM541.657 481.587L541.587 481.632L532.486 485.536C515.526 492.8 497.54 500.491 477.138 508.967L477.076 508.991C471.434 511.334 465.594 513.74 459.558 516.211C456.662 505.999 434.101 426.914 432.479 420.905C443.756 417.487 455.88 413.862 468.993 410.013C471.542 409.262 475.07 408.256 479.624 406.975L544.019 442.826L554.642 476.071C550.442 477.852 546.184 479.666 541.868 481.513C541.798 481.526 541.728 481.545 541.661 481.571L541.657 481.587ZM627.07 488.121L618.797 500.734C618.691 500.668 618.57 500.629 618.445 500.619L549.364 494.692L543.374 483.106C574.85 469.656 602.371 458.098 635.058 446.446L627.07 488.121ZM629.197 488.014L637.317 445.642C648.171 441.8 659.605 437.942 671.953 433.994C672 434.034 672.051 434.07 672.106 434.101L742.015 472.837L706.2 536.137L629.197 488.014ZM734.598 553.888L707.598 537.015L743.454 473.637L776.44 491.914L734.598 553.888ZM800.784 503.053L674.617 433.144C687.659 428.979 701.724 424.759 717.162 420.359C745.705 412.2 770.198 405.933 792.076 400.745L748.377 472.98C748.32 473.073 748.283 473.175 748.267 473.282C748.25 473.389 748.255 473.498 748.281 473.603C748.308 473.708 748.354 473.806 748.419 473.893C748.484 473.98 748.565 474.053 748.658 474.109C748.783 474.183 748.926 474.223 749.072 474.224C749.216 474.223 749.358 474.185 749.483 474.113C749.607 474.041 749.711 473.938 749.783 473.814L794.318 400.187L799.857 398.894L842.162 431.1C842.162 431.1 842.196 431.1 842.212 431.129L800.784 503.053ZM908.923 486.225L889.39 491.421L863.958 538.046L802.591 504.042L841.195 437.056L909.507 475.102C909.101 478.795 908.906 482.507 908.923 486.221V486.225ZM909.709 473.333L842.018 435.632L872.318 383.052C879.446 381.496 886.519 379.924 893.634 378.27L942.86 405.498C935.766 411.97 928.994 418.841 922.26 432.685C915.546 446.438 911.352 460.192 909.709 473.329V473.333ZM975.258 507.949L911.658 474.396C913.197 461.238 917.37 447.419 924.105 433.575C930.839 419.732 937.615 413.025 944.747 406.549L1010.66 443.019L975.258 507.949ZM1067.51 525.655L994.274 486.028L1016.08 446.032L1088.71 486.217L1067.51 525.655ZM1087.99 536.736L1068.61 526.25L1089.8 486.812L1111.02 498.55L1087.99 536.736ZM1112.68 550.096L1089.44 537.52L1112.46 499.35L1144.21 516.917L1112.68 550.096ZM1088.18 478.862L1112.1 436.588C1142.06 455.747 1171.8 474.532 1176.7 477.631V488.823L1159.93 518.546L1088.18 478.862ZM1178.76 489.361L1178.83 419.789C1182.73 428.408 1187.31 438.48 1192.68 450.276L1197.92 461.768C1220.5 511.38 1224.76 521.23 1224.87 537.311C1224.9 542.811 1224.46 548.303 1223.54 553.728L1161.72 519.548L1178.62 489.586L1178.76 489.361ZM1176.77 415.205L1176.7 476.174C1161.34 466.475 1136.67 450.838 1112.71 435.517L1146.59 375.635L1161.03 377.474C1163.76 385.609 1168.6 396.994 1176.78 415.205H1176.77ZM1158.34 356.267C1157.63 362.35 1157.79 367.197 1160.48 375.746L1146.41 373.961L1078.05 332.347L1090.34 309.811C1097.21 306.65 1104.06 303.42 1110.87 300.121L1166.12 333.267C1162.34 339.271 1159.5 346.339 1158.35 356.267H1158.34ZM1202.6 278.828C1194.64 299.919 1185.29 310.385 1177.04 319.62C1173.5 323.581 1170.15 327.332 1167.27 331.547L1113.1 299.049C1146.46 282.829 1179.05 265.017 1210.88 245.612C1209.42 256.963 1206.65 268.11 1202.6 278.828ZM1211.2 243.009C1172.74 266.54 1132.94 287.836 1092 306.79L1132.54 232.449C1137.41 230.301 1142.33 228.027 1147.29 225.628C1147.17 225.716 1147.09 225.843 1147.06 225.986C1147.03 226.129 1147.05 226.278 1147.12 226.408L1168.24 265.772C1168.3 265.871 1168.37 265.954 1168.47 266.012C1168.57 266.07 1168.68 266.1 1168.79 266.1C1168.89 266.1 1168.99 266.075 1169.08 266.026C1169.22 265.95 1169.33 265.822 1169.38 265.668C1169.43 265.514 1169.41 265.348 1169.34 265.205L1148.21 225.817C1148.14 225.694 1148.04 225.598 1147.91 225.543C1147.78 225.487 1147.64 225.477 1147.5 225.513C1154.01 222.358 1160.62 218.957 1167.36 215.31C1180.91 207.955 1196.27 198.039 1209.85 188.796C1212.03 206.416 1213.31 224.405 1211.2 243.009ZM1207.11 168.968C1207.57 172.115 1208.02 175.275 1208.46 178.449L1159.24 149.81L1197.96 128.11C1201.43 138.605 1204.53 151.16 1207.11 168.968ZM1173.91 57.8082C1179.2 80.5252 1184.66 93.9502 1189.97 106.94C1192.59 113.376 1195.16 119.664 1197.58 126.916L1158.02 149.079L1108.27 120.131L1154.18 46.1892L1173.6 56.5112L1173.91 57.8082ZM1173.02 53.8682L1136.64 34.5282L1169.32 -23.2637C1167.14 1.78918 1165.71 20.6722 1173.02 53.8682ZM1170.12 -32.2274C1169.98 -30.531 1169.84 -28.866 1169.71 -27.2325L1135.18 33.7362L1082.34 5.66319L1119.85 -60.51L1170.12 -32.2274ZM1096.31 -120.584L1133.87 -99.2421L1120.76 -67.0686L1079.24 -90.4343L1096.31 -120.584ZM1059.66 -94.358L1118.05 -61.5032L1072.37 19.0352L1016.02 -10.4255L1059.66 -94.358ZM980.979 -138.643L1054.26 -97.4116L1020.34 -32.1248C1019.35 -32.7035 1018.09 -33.4259 1016.57 -34.2919C1012.65 -36.5164 1006.86 -39.7423 999.358 -43.8795C986.733 -50.8567 969.095 -60.4977 946.931 -72.556L944.862 -73.6888L980.979 -138.643ZM944.234 -72.6176C960.751 -63.6292 976.661 -54.9446 989.757 -47.7539L947.936 26.8122L903.343 0.861191L944.234 -72.6176ZM904.108 -94.399C915.339 -88.3124 927.149 -81.9015 938.786 -75.5768L897.982 -2.24971L861.911 -23.2472L904.108 -94.399ZM870.817 -112.417C880.331 -107.282 891.339 -101.335 903.016 -94.9901L860.823 -23.867L831.329 -41.0352L870.817 -112.417ZM777.871 -127.34L855.42 -88.8254L829.571 -42.0777L757.515 -84.0152L777.871 -127.34ZM788.721 -58.7123L750.979 9.96019L715.495 -11.628L754.64 -78.5524L788.721 -58.7123ZM752.853 -79.5908L713.733 -12.691L682.708 -31.5707C682.668 -31.7013 682.595 -31.8198 682.497 -31.9155L675.345 -124.689L752.853 -79.5908ZM673.595 -125.731L674.062 -125.46L681.26 -32.2725L641.809 -38.7901L625.887 -15.326L610.466 -25.1024L673.595 -125.731ZM575.478 -87.7173L625.838 -83.5309L640.502 -75.3511L620.369 -43.2556C620.311 -43.3234 620.241 -43.3804 620.162 -43.4239L606.879 -50.8116L555.747 -53.6148L575.478 -87.7173ZM487.079 -122.415L566.026 -83.7361L530.836 -22.8696L467.934 -54.8625C470.019 -74.4933 476.439 -97.1202 487.058 -122.415H487.079ZM467.471 -49.6378C467.54 -50.6392 467.623 -51.6489 467.719 -52.6667L529.806 -21.0884L500.022 30.4492C496.742 25.9672 493.424 22.0642 490.264 18.3492C485.999 13.3422 481.991 8.61419 478.553 3.1312C469.721 -10.9795 465.994 -28.7347 467.45 -49.6378H467.471ZM465.738 -53.6723C465.61 -52.363 465.498 -51.0619 465.407 -49.7814C463.918 -28.4392 467.748 -10.2736 476.787 4.21019C480.286 9.82119 484.361 14.6062 488.675 19.6752C491.985 23.5582 495.459 27.6502 498.88 32.3982L478.098 68.3522L390.277 16.1172L441.832 -65.8209L465.738 -53.6723ZM440.376 -66.572L388.854 15.2672L361.602 -0.944611L408.024 -83.0097L440.376 -66.572ZM437.605 -138.446C437.498 -138.377 437.41 -138.282 437.348 -138.171L407.564 -85.5502L386.054 -96.4963L373.384 -131.904L437.605 -138.446ZM371.266 -131.691L384.089 -95.8602L345.279 -26.1859L275.722 -64.9221C275.679 -64.9447 275.635 -64.9639 275.59 -64.9795L310.921 -125.546L371.266 -131.691ZM308.885 -125.337L269.782 -58.2978L203.385 -95.2774L207.128 -101.606L203.447 -114.6L308.885 -125.337ZM201.776 -114.428L205.329 -101.836L184.886 -67.2287L155.387 -84.3928L152.769 -109.429L201.776 -114.428ZM8.9427 -100.982L28.6124 -134.539L102.989 -139.583L84.7215 -108.682L8.9427 -100.982ZM44.7535 -98.4212L151.139 -109.273L153.77 -84.1424L129.72 -51.4436L44.7535 -98.4212ZM65.0229 -80.149L138.729 -39.3935L86.6078 -22.804L62.483 -21.8559L62.0321 -36.697L45.6139 -45.8331L65.0229 -80.149ZM44.7866 -44.3802L60.3734 -35.6996L60.787 -21.7697L31.326 -20.6123L44.7866 -44.3802ZM33.0592 53.8882C33.0632 53.8612 33.0632 53.8342 33.0592 53.8062L30.1636 -18.5027L30.4159 -18.9501L85.3007 -21.1089L40.2611 58.5142C37.8839 56.9462 35.4833 55.4042 33.0592 53.8882ZM59.5005 86.5752L22.4653 93.2892L40.8154 60.8662C50.8362 67.5372 60.4769 74.7542 69.6932 82.4832L59.5005 86.5752ZM71.4264 81.7772C61.9351 73.7692 51.991 66.3052 41.6427 59.4212L65.9247 16.4612L112.404 42.3552L93.1768 73.0352L71.4264 81.7772ZM98.2152 143.542C100.259 135.814 102.373 127.823 99.8202 117.377C97.7519 108.914 93.2016 100.96 76.6551 86.3122L97.3631 77.9812L114.141 51.2122C124.367 52.8992 132.458 56.7902 138.2 62.8192C143.627 68.5002 145.41 74.3692 147.003 79.5402C148.541 84.5972 149.873 88.9802 154.341 91.0072C155.543 91.5792 156.859 91.8762 158.192 91.8782C160.021 91.8782 161.845 91.3152 163.756 90.3712C165.297 94.8522 166.473 99.4492 167.272 104.117C168.881 113.277 168.099 117.747 167.45 121.355C167.38 121.765 167.309 122.143 167.243 122.532C165.241 123.472 162.929 125.13 159.036 127.921C155.727 130.302 151.176 133.561 144.624 137.96C117.219 156.364 112.453 156.044 110.158 155.913C104.78 155.572 101.549 153.372 98.1614 151.045C97.6609 150.704 97.1562 150.359 96.6433 150.019C97.0735 147.86 97.6402 145.718 98.2152 143.542ZM161.572 211.419C157.65 205.303 151.718 203.621 144.198 201.445C139.015 199.96 133.145 198.273 126.41 194.801C120.268 191.632 103.957 183.214 97.905 168.39C95.423 162.299 95.423 156.967 96.2875 151.78L97.1976 152.399C100.635 154.751 104.188 157.181 110.021 157.554C112.689 157.718 117.666 158.039 145.526 139.307C152.091 134.895 156.649 131.628 159.975 129.239C163.197 126.932 165.266 125.446 166.933 124.515C166.635 127.228 166.78 130.125 168.372 134.365C172.393 145.061 179.343 150.002 186.065 154.78C187.165 155.564 188.257 156.339 189.324 157.136C187.488 160.509 185.783 163.198 184.269 165.574C180.799 171.082 178.482 174.718 178.441 180.67C178.441 183.678 179.024 185.049 181.535 190.807C182.474 192.962 183.645 195.642 185.167 199.274C193.904 220.136 193.962 224.04 193.13 226.97C191.889 231.386 188.365 235.269 182.698 238.544L164.418 229.827C165.617 222.431 164.666 216.245 161.572 211.419ZM90.8355 201.544L195.347 251.419L168.873 309.876C164.893 304.336 161.772 298.235 159.615 291.777C158.461 288.15 157.565 284.447 156.935 280.695C155.921 275.298 154.961 270.196 150.97 263.047C139.842 243.133 115.208 224.536 93.2347 227.881C91.8943 228.083 90.569 228.374 89.2677 228.751C86.259 222.691 82.1872 216.608 77.0522 210.504L90.8355 201.544Z" fill="#0D5ED5"/>
</g>
<defs>
<clipPath id="clip0_4831_19657">
<rect width="973" height="558" fill="white"/>
</clipPath>
</defs>
</svg>
