<svg width="14" height="14" viewBox="0 0 14 14" fill="none" xmlns="http://www.w3.org/2000/svg">
<path d="M7.2951 1.06499L9.0801 4.68499C9.10352 4.73244 9.138 4.77356 9.18064 4.80489C9.22328 4.83621 9.27282 4.85683 9.3251 4.86499L13.3251 5.44499C13.3838 5.45603 13.4384 5.4828 13.4831 5.52244C13.5278 5.56208 13.5609 5.6131 13.5788 5.67007C13.5968 5.72704 13.599 5.78782 13.5851 5.84592C13.5712 5.90403 13.5419 5.95728 13.5001 5.99999L10.6101 8.81499C10.5721 8.85211 10.5436 8.89786 10.5271 8.94835C10.5105 8.99884 10.5064 9.05258 10.5151 9.10499L11.1951 13.105C11.2081 13.1684 11.2022 13.2343 11.178 13.2944C11.1539 13.3545 11.1126 13.4061 11.0592 13.4429C11.0059 13.4797 10.943 13.5 10.8782 13.5012C10.8135 13.5025 10.7498 13.4847 10.6951 13.45L7.1251 11.57C7.07801 11.5455 7.0257 11.5326 6.9726 11.5326C6.9195 11.5326 6.86719 11.5455 6.8201 11.57L3.2751 13.435C3.22041 13.4697 3.15672 13.4875 3.09196 13.4862C3.02721 13.485 2.96426 13.4647 2.91095 13.4279C2.85765 13.3911 2.81634 13.3395 2.79219 13.2794C2.76803 13.2193 2.76209 13.1534 2.7751 13.09L3.4551 9.08999C3.46378 9.03758 3.45968 8.98384 3.44314 8.93335C3.4266 8.88286 3.39811 8.83711 3.3601 8.79999L0.500101 5.99999C0.456889 5.9571 0.426387 5.90308 0.411971 5.84393C0.397555 5.78477 0.399786 5.72278 0.418418 5.66481C0.437051 5.60684 0.471357 5.55516 0.517542 5.51548C0.563727 5.4758 0.619988 5.44968 0.680101 5.43999L4.6801 4.85999C4.73238 4.85183 4.78192 4.83121 4.82456 4.79989C4.8672 4.76856 4.90168 4.72744 4.9251 4.67999L6.7101 1.05999C6.73847 1.00679 6.78087 0.962372 6.83271 0.931568C6.88454 0.900764 6.94382 0.884751 7.00412 0.885266C7.06441 0.885781 7.12341 0.902806 7.17471 0.934491C7.22601 0.966176 7.26765 1.01131 7.2951 1.06499Z" fill="currentColor"/>
</svg>
