<svg width="24" height="24" viewBox="0 0 24 24" fill="none" xmlns="http://www.w3.org/2000/svg">
<path d="M12.0264 24H11.9736C5.37143 24 0 18.6286 0 12.0264V11.9736C0 5.37142 5.37143 0 11.9736 0H12.0264C18.6286 0 24 5.37142 24 11.9736V12.0264C24 18.6286 18.6286 24 12.0264 24ZM11.9736 0.812375C5.81904 0.812375 0.812375 5.81904 0.812375 11.9736V12.0264C0.812375 18.181 5.81904 23.1876 11.9736 23.1876H12.0264C18.181 23.1876 23.1876 18.181 23.1876 12.0264V11.9736C23.1876 5.81904 18.181 0.812375 12.0264 0.812375H11.9736Z" fill="#0A58CA"/>
<path d="M17.6051 8.7949V10.9842C17.2225 10.9469 16.7253 10.86 16.1753 10.6585C15.4572 10.3953 14.9226 10.0354 14.5725 9.75676V14.1818L14.5636 14.1679C14.5693 14.2557 14.5725 14.345 14.5725 14.4352C14.5725 16.6327 12.7845 18.4215 10.5862 18.4215C8.38789 18.4215 6.59985 16.6327 6.59985 14.4352C6.59985 12.2377 8.38789 10.4481 10.5862 10.4481C10.8015 10.4481 11.0127 10.4651 11.219 10.4984V12.6561C11.0208 12.5854 10.808 12.5473 10.5862 12.5473C9.54553 12.5473 8.69822 13.3938 8.69822 14.4352C8.69822 15.4767 9.54553 16.3232 10.5862 16.3232C11.6268 16.3232 12.4741 15.4759 12.4741 14.4352C12.4741 14.3962 12.4733 14.3572 12.4709 14.3182V5.71924H14.6586C14.6667 5.90446 14.6741 6.09131 14.6822 6.27654C14.6968 6.64129 14.8268 6.99143 15.0534 7.2782C15.3191 7.61534 15.7115 8.00689 16.2622 8.31965C16.7781 8.6113 17.2623 8.73722 17.6051 8.79653V8.7949Z" fill="#0A58CA"/>
</svg>
