<svg width="24" height="24" viewBox="0 0 24 24" fill="none" xmlns="http://www.w3.org/2000/svg">
<path d="M16.8 6.4H14.4V2H15.2C15.4209 2 15.6 1.8209 15.6 1.6V0.4C15.6 0.179102 15.4209 0 15.2 0H8.79995C8.57905 0 8.39995 0.179102 8.39995 0.4V1.6C8.39995 1.8209 8.57905 2 8.79995 2H9.59995V6.4H7.19995C6.09585 6.40137 5.20132 7.2959 5.19995 8.4V20.8C5.20132 21.9041 6.09585 22.7986 7.19995 22.8V23.6C7.19995 23.8209 7.37905 24 7.59995 24H9.19995C9.42085 24 9.59995 23.8209 9.59995 23.6V22.8H14.4V23.6C14.4 23.8209 14.5791 24 14.8 24H16.4C16.6209 24 16.8 23.8209 16.8 23.6V22.8C17.9041 22.7986 18.7986 21.9041 18.8 20.8V8.4C18.7986 7.2959 17.9041 6.40137 16.8 6.4ZM9.19995 0.8H14.8V1.2H9.19995V0.8ZM10.4 2H13.6V6.4H10.4V2ZM8.79995 23.2H7.99995V22.8H8.79995V23.2ZM16 23.2H15.2V22.8H16V23.2ZM18 20.8C18 21.4627 17.4626 22 16.8 22H7.19995C6.53726 22 5.99995 21.4627 5.99995 20.8V8.4C5.99995 7.7373 6.53726 7.2 7.19995 7.2H16.8C17.4626 7.2 18 7.7373 18 8.4V20.8Z" fill="#0A58CA"/>
<path d="M12.0001 8C11.7792 8 11.6001 8.1791 11.6001 8.4V20.8C11.6001 21.0209 11.7792 21.2 12.0001 21.2C12.221 21.2 12.4001 21.0209 12.4001 20.8V8.4C12.4001 8.1791 12.221 8 12.0001 8Z" fill="#0A58CA"/>
<path d="M15.2 8.80005C14.9792 8.80005 14.8 8.97915 14.8 9.20005V20C14.8 20.2209 14.9792 20.4 15.2 20.4C15.4209 20.4 15.6 20.2209 15.6 20V9.20005C15.6 8.97915 15.4209 8.80005 15.2 8.80005Z" fill="#0A58CA"/>
<path d="M8.7999 8.80005C8.579 8.80005 8.3999 8.97915 8.3999 9.20005V20C8.3999 20.2209 8.579 20.4 8.7999 20.4C9.0208 20.4 9.1999 20.2209 9.1999 20V9.20005C9.1999 8.97915 9.0208 8.80005 8.7999 8.80005Z" fill="#0A58CA"/>
</svg>
