<svg width="24" height="24" viewBox="0 0 24 24" fill="none" xmlns="http://www.w3.org/2000/svg">
<path d="M12.001 1.25006C9.87483 1.25006 7.79643 1.88054 6.0286 3.06176C4.26077 4.24299 2.88292 5.92191 2.06928 7.88622C1.25563 9.85052 1.04275 12.012 1.45754 14.0973C1.87233 16.1826 2.89617 18.098 4.39958 19.6015C5.903 21.1049 7.81847 22.1287 9.90376 22.5435C11.9891 22.9583 14.1505 22.7454 16.1148 21.9318C18.0791 21.1181 19.7581 19.7403 20.9393 17.9724C22.1205 16.2046 22.751 14.1262 22.751 12.0001C22.7478 9.14996 21.6142 6.4175 19.5989 4.40217C17.5835 2.38684 14.8511 1.25324 12.001 1.25006ZM5.75098 12.0001C5.75098 12.199 5.67196 12.3897 5.53131 12.5304C5.39066 12.671 5.19989 12.7501 5.00098 12.7501C4.80207 12.7501 4.6113 12.671 4.47065 12.5304C4.33 12.3897 4.25098 12.199 4.25098 12.0001C4.25336 9.94537 5.07064 7.97551 6.52354 6.52261C7.97643 5.06972 9.94629 4.25244 12.001 4.25006C13.0282 4.24726 14.0454 4.45131 14.992 4.85006C15.0851 4.88662 15.17 4.94143 15.2416 5.01128C15.3132 5.08113 15.3701 5.1646 15.409 5.25678C15.4479 5.34895 15.4679 5.44798 15.4679 5.54802C15.468 5.64806 15.448 5.74709 15.4091 5.83928C15.3703 5.93148 15.3134 6.01498 15.2418 6.08486C15.1703 6.15474 15.0854 6.2096 14.9923 6.2462C14.8992 6.2828 14.7997 6.3004 14.6997 6.29798C14.5997 6.29555 14.5012 6.27314 14.41 6.23206C13.6474 5.91164 12.8282 5.74773 12.001 5.75006C10.3439 5.75191 8.75531 6.41099 7.58361 7.58269C6.41191 8.75439 5.75283 10.343 5.75098 12.0001ZM17.611 7.43606L13.364 13.3811C13.4977 13.6762 13.5322 14.0068 13.4624 14.3232C13.3926 14.6396 13.2222 14.9249 12.9767 15.1364C12.7313 15.348 12.4239 15.4743 12.1006 15.4965C11.7773 15.5188 11.4555 15.4357 11.1834 15.2598C10.9113 15.0839 10.7034 14.8246 10.5909 14.5207C10.4784 14.2168 10.4674 13.8847 10.5594 13.574C10.6515 13.2633 10.8417 12.9908 11.1015 12.7972C11.3614 12.6036 11.6769 12.4993 12.001 12.5001C12.049 12.5001 12.094 12.5101 12.141 12.5141L16.391 6.56406C16.4472 6.48141 16.5194 6.41083 16.6033 6.35647C16.6871 6.30211 16.7811 6.26507 16.8795 6.24752C16.9779 6.22998 17.0788 6.23228 17.1763 6.25429C17.2738 6.2763 17.3659 6.31759 17.4472 6.37571C17.5286 6.43384 17.5974 6.50763 17.6498 6.59276C17.7022 6.67789 17.7371 6.77263 17.7523 6.87142C17.7676 6.9702 17.7629 7.07104 17.7387 7.16801C17.7144 7.26498 17.671 7.35611 17.611 7.43606ZM19.001 12.7501C18.8021 12.7501 18.6113 12.671 18.4707 12.5304C18.33 12.3897 18.251 12.199 18.251 12.0001C18.2538 11.4748 18.1865 10.9515 18.051 10.4441C18.0255 10.3489 18.019 10.2497 18.0319 10.152C18.0448 10.0544 18.0767 9.96023 18.126 9.87494C18.2255 9.70269 18.3893 9.57701 18.5815 9.52556C18.7736 9.47411 18.9784 9.5011 19.1506 9.60058C19.2359 9.64985 19.3106 9.71542 19.3706 9.79358C19.4305 9.87173 19.4745 9.96092 19.5 10.0561C19.6685 10.6903 19.7529 11.3439 19.751 12.0001C19.751 12.199 19.672 12.3897 19.5313 12.5304C19.3907 12.671 19.1999 12.7501 19.001 12.7501Z" fill="#0A58CA"/>
</svg>
