<svg width="24" height="24" viewBox="0 0 24 24" fill="none" xmlns="http://www.w3.org/2000/svg">
<path d="M17.0665 15.3896L15.1311 15.2094L14.8065 14.7938L14.7563 14.0756C15.0174 13.9077 15.2626 13.7163 15.489 13.5039C16.4325 12.6187 17.0013 11.4059 17.0787 10.1145L17.0822 10.056C17.4309 10.0096 17.751 9.83817 17.9828 9.5736C18.2147 9.30904 18.3427 8.9693 18.343 8.6175C18.3411 8.29696 18.2338 7.98594 18.0376 7.73246C17.8414 7.47898 17.5672 7.29714 17.2573 7.215L17.2624 7.13306C17.2682 7.01696 17.251 6.90086 17.2118 6.79144C17.2939 6.66731 17.3753 6.53381 17.457 6.38831C17.8737 5.7326 18.1967 5.02184 18.4167 4.27669C18.514 3.96046 18.5 3.62041 18.3768 3.3133C18.2537 3.00619 18.029 2.7506 17.7402 2.58919C15.6612 1.4175 13.1318 0.890625 11.9998 0.890625C10.8679 0.890625 8.33835 1.4175 6.25878 2.58862C5.97001 2.75009 5.74534 3.0057 5.62226 3.3128C5.49919 3.6199 5.48514 3.95992 5.58247 4.27612C5.8024 5.02092 6.12554 5.73126 6.54247 6.38644C6.62722 6.53644 6.71122 6.67556 6.79822 6.80325C6.76327 6.90784 6.74826 7.01806 6.75397 7.12819L6.75903 7.20881C6.44469 7.28734 6.16554 7.46853 5.96583 7.72367C5.76612 7.97881 5.65727 8.29331 5.65653 8.61731C5.65674 8.97218 5.78681 9.31471 6.02221 9.58026C6.25761 9.84582 6.58206 10.016 6.93435 10.0588L6.93772 10.1151C6.98689 10.9075 7.22109 11.6773 7.62154 12.3628C8.02198 13.0483 8.57753 13.6305 9.2436 14.0625L9.1926 14.7938L8.8686 15.2094L6.93341 15.3896C5.73324 15.4952 4.61654 16.0478 3.80464 16.938C2.99273 17.8281 2.54488 18.9908 2.54985 20.1956V22.7812C2.54985 22.8683 2.58442 22.9517 2.64595 23.0133C2.70749 23.0748 2.79095 23.1094 2.87797 23.1094H21.1217C21.1648 23.1094 21.2075 23.1009 21.2473 23.0844C21.2871 23.068 21.3233 23.0438 21.3538 23.0133C21.3843 22.9829 21.4084 22.9467 21.4249 22.9068C21.4414 22.867 21.4499 22.8243 21.4498 22.7812V20.1956C21.4549 18.9908 21.007 17.8282 20.1952 16.938C19.3833 16.0479 18.2666 15.4952 17.0665 15.3896ZM15.5215 17.2787L16.3382 17.9361L13.6418 22.4531H13.3498L13.9345 19.4513C13.9797 19.4626 14.0275 19.4588 14.0704 19.4404C14.1218 19.4234 14.1683 19.394 14.2056 19.3548C14.2429 19.3155 14.2699 19.2676 14.2842 19.2154L15.2029 15.8768L16.1367 15.9632L15.4686 16.8216C15.4157 16.8895 15.3916 16.9754 15.4015 17.0609C15.4114 17.1465 15.4545 17.2247 15.5215 17.2787ZM11.3177 22.4537L10.6558 19.0553L11.9998 17.9979L13.3437 19.0549L12.682 22.4531L11.3177 22.4537ZM10.3581 22.4537L7.66147 17.9361L8.47803 17.2787C8.54517 17.2247 8.58837 17.1465 8.5983 17.0609C8.60823 16.9753 8.58409 16.8893 8.5311 16.8214L7.86172 15.9634L8.7966 15.8769L9.71535 19.2156C9.72971 19.2678 9.75675 19.3157 9.79407 19.3549C9.8314 19.3942 9.87784 19.4236 9.92928 19.4406C9.97217 19.459 10.0199 19.4628 10.0652 19.4514L10.6498 22.4531L10.3581 22.4537ZM10.2165 18.5661L9.39978 15.5961L9.53628 15.4215L11.5163 17.5438L10.2165 18.5661ZM14.4634 15.4215L14.5997 15.5961L13.7832 18.5661L12.4832 17.5438L14.4634 15.4215ZM7.28628 6.35737C8.48197 5.76787 9.66022 5.58244 11.9998 5.58244C14.3395 5.58244 15.5155 5.76825 16.7134 6.35906C16.0594 7.41169 15.424 7.60931 11.9998 7.60931C8.57572 7.60931 7.94103 7.4115 7.28628 6.35737ZM17.6867 8.6175C17.6873 8.78764 17.6328 8.9534 17.5314 9.09004C17.43 9.22669 17.2872 9.32691 17.1242 9.37575L17.2157 7.89019C17.3566 7.95222 17.4763 8.05414 17.56 8.18338C17.6437 8.31262 17.6878 8.46353 17.6867 8.6175ZM6.5811 3.16013C8.74559 1.94138 11.1668 1.54762 11.9998 1.54762C12.8329 1.54762 15.2541 1.94138 17.4186 3.16013C17.5772 3.24891 17.7005 3.38947 17.7679 3.55828C17.8352 3.72709 17.8426 3.91391 17.7887 4.0875C17.6117 4.68404 17.3649 5.25763 17.0535 5.79637C15.7382 5.13356 14.4882 4.92619 11.9998 4.92619C9.51153 4.92619 8.25941 5.13244 6.94653 5.79338C6.63495 5.2556 6.38805 4.68288 6.21097 4.08713C6.15719 3.91359 6.1646 3.72685 6.23197 3.55812C6.29934 3.38939 6.42258 3.2489 6.5811 3.16013ZM6.54603 9.17887C6.47168 9.10537 6.41278 9.01774 6.37279 8.92114C6.3328 8.82454 6.31252 8.72092 6.31316 8.61637C6.3134 8.45965 6.35975 8.30647 6.44644 8.17591C6.53313 8.04534 6.65632 7.94317 6.80066 7.88212L6.89291 9.37969C6.7618 9.34419 6.64219 9.27518 6.54585 9.17944L6.54603 9.17887ZM7.5936 10.0747L7.4361 7.51631C8.26485 8.17763 9.46822 8.26631 12.0004 8.26631C14.5832 8.26631 15.766 8.18363 16.582 7.51631L16.4241 10.0764C16.3568 11.2019 15.8623 12.2593 15.0416 13.0324C14.2209 13.8055 13.136 14.2361 12.0085 14.2361C10.881 14.2361 9.796 13.8055 8.9753 13.0324C8.15459 12.2593 7.66009 11.2019 7.59284 10.0764L7.5936 10.0747ZM12.0073 14.8837C12.7373 14.8842 13.4588 14.7272 14.1225 14.4234L14.1488 14.7962L11.9998 17.1L9.85091 14.796L9.87735 14.4141C10.5446 14.724 11.2716 14.8843 12.0073 14.8837ZM3.2061 20.1956C3.20181 19.1546 3.58876 18.1501 4.29026 17.3809C4.99176 16.6118 5.95662 16.1343 6.9936 16.0431L7.08435 16.0344L7.81447 16.9703L7.02697 17.6038C6.96545 17.6535 6.92397 17.7238 6.91018 17.8017C6.8964 17.8795 6.91124 17.9598 6.95197 18.0276L9.59366 22.4526H3.2061V20.1956ZM20.7936 22.4531H14.406L17.0479 18.0281C17.0885 17.9602 17.1031 17.8799 17.0891 17.8021C17.0752 17.7242 17.0336 17.654 16.972 17.6044L16.1845 16.9706L16.9135 16.035L17.0059 16.0436C18.0429 16.1348 19.0078 16.6123 19.7093 17.3815C20.4108 18.1506 20.7977 19.1552 20.7934 20.1962L20.7936 22.4531Z" fill="#0A58CA" stroke="#0A58CA" stroke-width="0.5"/>
</svg>
