<svg width="24" height="24" viewBox="0 0 24 24" fill="none" xmlns="http://www.w3.org/2000/svg">
<path d="M2.99902 0C1.90832 0 0.999023 0.909295 0.999023 2V23C0.999081 23.5523 1.44676 23.9999 1.99902 24H13.999C14.5513 23.9999 14.999 23.5523 14.999 23V18.5C14.999 18.2239 15.2229 18 15.499 18H15.999C16.5632 18 16.999 18.4359 16.999 19V20C16.999 21.645 18.354 23 19.999 23C21.644 23 22.999 21.645 22.999 20V7C22.999 6.0566 22.5545 5.16565 21.7998 4.59961L18.5986 2.19922C18.1101 1.83287 17.4856 2.01007 17.1982 2.40039C16.8706 2.8454 16.957 3.46974 17.3994 3.80078L18.5986 4.69922C18.8508 4.88813 18.9992 5.18489 18.999 5.5V8C18.999 8.92237 19.6461 9.71352 20.5049 9.9375C20.7715 10.007 20.999 10.2239 20.999 10.5V20C20.999 20.5641 20.5632 21 19.999 21C19.4349 21 18.999 20.5641 18.999 20V19C18.999 17.355 17.644 16 15.999 16H15.499C15.2229 16 14.999 15.7761 14.999 15.5V2C14.999 0.909294 14.0897 3e-08 12.999 3e-08L2.99902 0ZM3.49902 2H12.499C12.776 2 12.999 2.223 12.999 2.5V9.5C12.999 9.777 12.776 10 12.499 10H3.49902C3.22202 10 2.99902 9.777 2.99902 9.5V2.5C2.99902 2.223 3.22202 2 3.49902 2Z" fill="#0A58CA"/>
</svg>
