<svg width="24" height="24" viewBox="0 0 24 24" fill="none" xmlns="http://www.w3.org/2000/svg">
<g clip-path="url(#clip0_345_4241)">
<path d="M5.16797 3.35156H12.5898C12.7161 3.35156 12.8193 3.4538 12.8193 3.58008V8.72266C12.8193 8.8487 12.7159 8.95117 12.5898 8.95117H5.16797C5.04171 8.9511 4.93949 8.84887 4.93945 8.72266V3.58008C4.93952 3.46937 5.01775 3.37768 5.12207 3.35645L5.16797 3.35156ZM5.39648 8.49414H12.3613V3.80859H5.39648V8.49414Z" fill="#0A58CA" stroke="#0A58CA"/>
<path d="M1.7041 19.6028C1.29134 19.6028 0.957092 19.9379 0.957031 20.3499V22.7971H16.8008V20.3499C16.8007 19.9373 16.4663 19.6028 16.0537 19.6028H1.7041ZM4.14258 1.20239C3.46484 1.20239 2.91331 1.75323 2.91309 2.43091V19.1458H14.8447V2.43091C14.8445 1.75344 14.2937 1.20239 13.6152 1.20239H4.14258ZM21.3477 4.60376C20.4123 4.60376 19.6514 5.36374 19.6514 6.29907C19.6514 7.23584 20.4144 7.99438 21.3477 7.99438C22.2821 7.99414 23.043 7.23479 23.043 6.29907C23.043 5.36389 22.2828 4.604 21.3477 4.60376ZM21.0527 8.46313L20.7021 8.35278C19.8287 8.07807 19.1943 7.2597 19.1943 6.29907C19.1943 5.37599 19.78 4.58402 20.6016 4.27954L21.3555 4.00024L20.7715 3.44751L19.1572 1.92017V1.91919C19.0661 1.83248 19.0611 1.68759 19.1475 1.59595L19.1484 1.59692C19.2352 1.5053 19.3799 1.5007 19.4717 1.58716L22.582 4.53149L22.6514 4.59692L22.6689 4.60376C23.1749 4.99977 23.5 5.61203 23.5 6.29907C23.5 7.29882 22.813 8.14415 21.8848 8.38403L21.5098 8.48071V17.845C21.5097 18.6135 20.8837 19.2393 20.1152 19.2395C19.3465 19.2395 18.7198 18.6137 18.7197 17.845V13.2639C18.7197 12.5866 18.1686 12.0354 17.4912 12.0354H15.3018V19.1458H16.0537C16.7175 19.1458 17.2587 19.6861 17.2588 20.3499V23.0256C17.2588 23.152 17.1556 23.2551 17.0293 23.2551H0.728516C0.602019 23.2551 0.5 23.1521 0.5 23.0256V20.3499L0.505859 20.2268C0.567742 19.6204 1.082 19.1458 1.7041 19.1458H2.45605V2.43091C2.45628 1.50163 3.21359 0.745361 4.14258 0.745361H13.6152C14.5446 0.745361 15.3015 1.50156 15.3018 2.43091V11.5784H17.4912C18.4197 11.5784 19.1767 12.3354 19.1768 13.2639V17.845C19.1768 18.3625 19.5977 18.7825 20.1152 18.7825C20.6317 18.7822 21.0527 18.3627 21.0527 17.845V8.46313Z" fill="#0A58CA" stroke="#0A58CA"/>
</g>
<defs>
<clipPath id="clip0_345_4241">
<rect width="24" height="24" fill="white"/>
</clipPath>
</defs>
</svg>
