<svg width="24" height="24" viewBox="0 0 24 24" fill="none" xmlns="http://www.w3.org/2000/svg">
<path d="M22.5 8.15553C22.5013 7.91869 22.4179 7.68919 22.2646 7.50859C22.1114 7.32799 21.8986 7.20822 21.6647 7.17097L20.5404 6.98237C20.4069 6.95996 20.27 6.96847 20.1402 7.00725C20.0105 7.04603 19.8914 7.11404 19.792 7.20606L19.4817 6.12268C19.3022 5.50354 18.9269 4.95922 18.4121 4.5712C17.8973 4.18319 17.2706 3.97236 16.626 3.97028H7.64685C7.0022 3.97236 6.37557 4.18319 5.86077 4.5712C5.34597 4.95922 4.9707 5.50354 4.79114 6.12268L4.39953 7.48951C4.31395 7.32033 4.17682 7.18273 4.00794 7.09657C3.83906 7.01042 3.64716 6.98018 3.45996 7.01021L2.3379 7.19881C2.10849 7.23631 1.89934 7.35263 1.74647 7.52773C1.59359 7.70284 1.50656 7.92577 1.50036 8.15814C1.49415 8.39051 1.56917 8.61776 1.71249 8.80078C1.8558 8.98379 2.05845 9.1111 2.28553 9.16078L3.37109 9.39726L3.00586 9.94631C2.60717 10.5448 2.39474 11.2481 2.39539 11.9672C2.39802 11.9818 2.39263 15.5657 2.39612 15.579V18.839C2.39696 19.1552 2.52321 19.4582 2.74717 19.6814C2.97112 19.9046 3.27449 20.0299 3.5907 20.0297H4.70363C5.01984 20.0299 5.32321 19.9046 5.54716 19.6814C5.77112 19.4582 5.89737 19.1552 5.89821 18.839V17.9515H18.375V18.839C18.3753 19.1547 18.5008 19.4573 18.724 19.6806C18.9472 19.9038 19.2499 20.0294 19.5656 20.0297H20.6825C20.9987 20.0299 21.3021 19.9046 21.526 19.6814C21.75 19.4582 21.8762 19.1552 21.8771 18.839C21.8766 17.1335 21.8779 13.6792 21.8775 11.9672C21.9121 10.9859 21.4124 10.0908 20.8513 9.32124L21.7174 9.13221C21.9398 9.08323 22.1387 8.95963 22.281 8.78195C22.4234 8.60426 22.5007 8.38321 22.5 8.15553ZM5.51184 6.32923C5.64618 5.86642 5.92678 5.45956 6.31164 5.16952C6.69651 4.87949 7.16494 4.72188 7.64685 4.72028H16.626C17.1079 4.72188 17.5763 4.87949 17.9612 5.16952C18.3461 5.45956 18.6266 5.86642 18.761 6.32923L19.2107 7.89954C19.3758 8.03036 5.01545 7.90144 5.04501 7.94541C5.04973 7.92953 5.51184 6.32923 5.51184 6.32923ZM2.44776 8.42853C2.39174 8.41551 2.34192 8.38358 2.30669 8.33812C2.27146 8.29266 2.25298 8.23644 2.25436 8.17895C2.25573 8.12145 2.27689 8.06618 2.31425 8.02246C2.35162 7.97874 2.40291 7.94923 2.45949 7.93891L3.58557 7.74958C3.61683 7.7449 3.64875 7.75084 3.67624 7.76644C3.70372 7.78204 3.72518 7.80641 3.73719 7.83564L4.00097 8.4411C3.9864 8.48443 3.84168 8.68377 3.8171 8.72685L2.44776 8.42853ZM21.1274 15.5627C21.1273 15.997 20.9548 16.4135 20.6479 16.7207C20.341 17.0279 19.9248 17.2009 19.4905 17.2015H4.78235C4.34781 17.2007 3.93135 17.0275 3.62442 16.7199C3.3175 16.4123 3.14521 15.9954 3.14539 15.5609V15.1641H21.1274V15.5627ZM5.1482 18.839C5.14752 18.9563 5.10034 19.0686 5.01701 19.1513C4.93367 19.2339 4.82098 19.2801 4.70363 19.2797H3.5907C3.47335 19.2801 3.36066 19.2339 3.27732 19.1513C3.19398 19.0686 3.1468 18.9563 3.14612 18.839V17.2977C3.4148 17.5418 3.73211 17.7263 4.07718 17.839C4.42225 17.9516 4.78726 17.99 5.14821 17.9514L5.1482 18.839ZM20.6825 19.2797H19.5656C19.4487 19.2796 19.3368 19.233 19.2542 19.1504C19.1716 19.0678 19.1251 18.9558 19.125 18.839V17.9515C19.486 17.99 19.851 17.9516 20.1961 17.8389C20.5412 17.7261 20.8584 17.5416 21.1271 17.2974V18.839C21.1264 18.9563 21.0792 19.0686 20.9959 19.1513C20.9125 19.2339 20.7998 19.2801 20.6825 19.2797ZM21.1274 14.4141H3.14539V11.9672C3.14474 11.3958 3.31361 10.837 3.63062 10.3616C3.90399 9.93022 4.47812 9.13229 4.71571 8.69533H19.5574C19.5989 8.76826 19.6336 8.84477 19.6802 8.91488L20.6422 10.3616C20.9592 10.837 21.1281 11.3958 21.1274 11.9672V14.4141ZM21.5548 8.39997L20.4055 8.65087C20.2946 8.49402 20.1966 8.32845 20.1124 8.15578C20.2057 7.98182 20.2494 7.68327 20.4159 7.72193L21.5435 7.91108C21.5994 7.9221 21.6499 7.95188 21.6866 7.9955C21.7233 8.03912 21.7441 8.09397 21.7454 8.15097C21.7467 8.20797 21.7286 8.26372 21.6939 8.30899C21.6593 8.35427 21.6102 8.38636 21.5548 8.39997Z" fill="#0A58CA"/>
<path d="M7.01153 11.1698C6.92134 11.0242 6.797 10.9027 6.64928 10.8159C6.50156 10.7291 6.3349 10.6796 6.16375 10.6718L4.68682 10.6044C4.48376 10.5951 4.28496 10.6646 4.13201 10.7985C3.97905 10.9324 3.88378 11.1202 3.86614 11.3227L3.80096 12.0694C3.78288 12.2721 3.84416 12.474 3.97189 12.6324C4.09962 12.7908 4.28384 12.8935 4.48577 12.9189L7.62237 13.3188C7.69265 13.3277 7.76403 13.3166 7.82825 13.2866C7.89247 13.2567 7.9469 13.2092 7.98524 13.1496C8.02359 13.0901 8.04429 13.0209 8.04495 12.95C8.0456 12.8792 8.02619 12.8096 7.98895 12.7493L7.01153 11.1698ZM4.58099 12.1747C4.57133 12.1735 4.5625 12.1687 4.55636 12.1611C4.55022 12.1536 4.54723 12.144 4.54803 12.1343L4.61321 11.3883C4.61403 11.3786 4.61856 11.3696 4.62586 11.3631C4.63316 11.3567 4.64267 11.3533 4.6524 11.3537L6.12933 11.4211C6.17866 11.4233 6.2267 11.4375 6.26927 11.4625C6.31184 11.4876 6.34766 11.5226 6.37359 11.5646L6.9372 12.4752L4.58099 12.1747Z" fill="#0A58CA"/>
<path d="M19.5855 10.5287L18.109 10.5963C17.9377 10.604 17.771 10.6534 17.6232 10.7402C17.4754 10.8269 17.351 10.9484 17.2608 11.0941L16.2834 12.6736C16.2492 12.7306 16.2306 12.7956 16.2295 12.862C16.2285 12.9285 16.2449 12.994 16.2773 13.0521C16.3096 13.1101 16.3567 13.1586 16.4138 13.1927C16.4709 13.2267 16.5359 13.2451 16.6024 13.246C16.6182 13.246 16.6339 13.245 16.6496 13.2431L19.7866 12.8433C19.9886 12.818 20.1729 12.7152 20.3006 12.5566C20.4283 12.3981 20.4896 12.1961 20.4714 11.9934L20.4062 11.2467C20.388 11.0444 20.2926 10.8569 20.1397 10.7232C19.9869 10.5895 19.7884 10.5198 19.5855 10.5287ZM19.6917 12.0992L17.3351 12.3995L17.8987 11.4889C17.9247 11.4469 17.9605 11.4119 18.0031 11.3869C18.0456 11.3619 18.0937 11.3477 18.143 11.3455L19.6199 11.278C19.6294 11.2784 19.6384 11.282 19.6455 11.2882C19.6526 11.2945 19.6574 11.3029 19.6591 11.3122L19.7243 12.0582C19.7252 12.0679 19.7223 12.0776 19.7163 12.0852C19.7102 12.0929 19.7014 12.0979 19.6917 12.0992Z" fill="#0A58CA"/>
<path d="M15.3474 10.8999C13.2711 11.3645 11.118 11.3664 9.04085 10.9054C8.97514 10.887 8.90564 10.8868 8.83984 10.905C8.77405 10.9231 8.71445 10.9589 8.66746 11.0084C8.62048 11.0579 8.5879 11.1193 8.57322 11.1859C8.55855 11.2526 8.56234 11.322 8.58419 11.3866L9.23275 13.3037C9.25463 13.3683 9.29365 13.4257 9.34565 13.4697C9.39765 13.5138 9.46065 13.5429 9.52792 13.5539C10.6384 13.8209 14.4695 13.6337 14.8339 13.5567C14.9063 13.5497 14.9751 13.5217 15.0319 13.4762C15.0886 13.4307 15.1309 13.3697 15.1536 13.3006L15.7828 11.3835C15.8025 11.3208 15.8056 11.2541 15.7916 11.1899C15.7777 11.1256 15.7472 11.0662 15.7032 11.0173C15.6593 10.9685 15.6033 10.932 15.5409 10.9114C15.4785 10.8908 15.4118 10.8868 15.3474 10.8999ZM14.5183 12.8317C12.9723 12.9758 11.4164 12.9806 9.86959 12.846L9.50704 11.7743C11.2827 12.0774 13.0973 12.0715 14.8709 11.7567L14.5183 12.8317Z" fill="#0A58CA"/>
</svg>
