<svg width="24" height="24" viewBox="0 0 24 24" fill="none" xmlns="http://www.w3.org/2000/svg">
<path d="M21.1667 11.3166H20.4333C20.1416 11.3166 19.8618 11.4325 19.6555 11.6388C19.4492 11.8451 19.3333 12.1249 19.3333 12.4166V12.7833H18.6V10.95C18.6 10.6582 18.4841 10.3784 18.2778 10.1722C18.0715 9.96587 17.7917 9.84998 17.5 9.84998H16.4C16.3028 9.84998 16.2095 9.81135 16.1407 9.74258C16.072 9.67382 16.0333 9.58055 16.0333 9.48331V8.74998C16.0333 8.45824 15.9174 8.17845 15.7112 7.97216C15.5049 7.76587 15.2251 7.64998 14.9333 7.64998H13.4667V6.54998H15.3C15.5917 6.54998 15.8715 6.43408 16.0778 6.22779C16.2841 6.0215 16.4 5.74171 16.4 5.44998C16.4 5.15824 16.2841 4.87845 16.0778 4.67216C15.8715 4.46587 15.5917 4.34998 15.3 4.34998H7.96667C7.67493 4.34998 7.39514 4.46587 7.18885 4.67216C6.98256 4.87845 6.86667 5.15824 6.86667 5.44998C6.86667 5.74171 6.98256 6.0215 7.18885 6.22779C7.39514 6.43408 7.67493 6.54998 7.96667 6.54998H9.8V7.64998H7.96667C7.67493 7.64998 7.39514 7.76587 7.18885 7.97216C6.98256 8.17845 6.86667 8.45824 6.86667 8.74998C6.86667 8.84722 6.82804 8.94049 6.75927 9.00925C6.69051 9.07801 6.59725 9.11664 6.5 9.11664H5.4C5.10826 9.11664 4.82847 9.23253 4.62218 9.43882C4.41589 9.64511 4.3 9.9249 4.3 10.2166V11.6833H3.2V10.2166C3.2 9.9249 3.08411 9.64511 2.87782 9.43882C2.67153 9.23253 2.39174 9.11664 2.1 9.11664C1.80826 9.11664 1.52847 9.23253 1.32218 9.43882C1.11589 9.64511 1 9.9249 1 10.2166L1 16.0833C1 16.375 1.11589 16.6548 1.32218 16.8611C1.52847 17.0674 1.80826 17.1833 2.1 17.1833C2.39174 17.1833 2.67153 17.0674 2.87782 16.8611C3.08411 16.6548 3.2 16.375 3.2 16.0833V14.6166H4.3V16.45C4.3 16.7417 4.41589 17.0215 4.62218 17.2278C4.82847 17.4341 5.10826 17.55 5.4 17.55H6.92973C7.02697 17.55 7.12022 17.5886 7.18897 17.6574L8.95923 19.4277C9.06109 19.5302 9.18228 19.6115 9.31577 19.6668C9.44927 19.7221 9.59243 19.7504 9.73693 19.75H17.5C17.7917 19.75 18.0715 19.6341 18.2778 19.4278C18.4841 19.2215 18.6 18.9417 18.6 18.65V17.1833H19.3333V17.55C19.3333 17.8417 19.4492 18.1215 19.6555 18.3278C19.8618 18.5341 20.1416 18.65 20.4333 18.65H21.1667C21.6527 18.6494 22.1187 18.4561 22.4624 18.1124C22.8061 17.7687 22.9994 17.3027 23 16.8166V13.15C22.9994 12.6639 22.8061 12.1979 22.4624 11.8543C22.1187 11.5106 21.6527 11.3172 21.1667 11.3166ZM7.6 5.44998C7.6 5.35273 7.63863 5.25947 7.70739 5.1907C7.77616 5.12194 7.86942 5.08331 7.96667 5.08331H15.3C15.3972 5.08331 15.4905 5.12194 15.5593 5.1907C15.628 5.25947 15.6667 5.35273 15.6667 5.44998C15.6667 5.54722 15.628 5.64048 15.5593 5.70925C15.4905 5.77801 15.3972 5.81664 15.3 5.81664H7.96667C7.86942 5.81664 7.77616 5.77801 7.70739 5.70925C7.63863 5.64048 7.6 5.54722 7.6 5.44998ZM10.5333 6.54998H12.7333V7.64998H10.5333V6.54998ZM2.46667 16.0833C2.46667 16.1806 2.42804 16.2738 2.35927 16.3426C2.29051 16.4113 2.19725 16.45 2.1 16.45C2.00275 16.45 1.90949 16.4113 1.84073 16.3426C1.77196 16.2738 1.73333 16.1806 1.73333 16.0833V10.2166C1.73333 10.1194 1.77196 10.0261 1.84073 9.95737C1.90949 9.88861 2.00275 9.84998 2.1 9.84998C2.19725 9.84998 2.29051 9.88861 2.35927 9.95737C2.42804 10.0261 2.46667 10.1194 2.46667 10.2166V16.0833ZM3.2 13.8833V12.4166H4.3V13.8833H3.2ZM17.8667 18.65C17.8667 18.7472 17.828 18.8405 17.7593 18.9092C17.6905 18.978 17.5972 19.0166 17.5 19.0166H9.73693C9.6397 19.0166 9.54645 18.978 9.4777 18.9092L7.70743 17.1389C7.60553 17.0365 7.48433 16.9553 7.35084 16.8999C7.21736 16.8446 7.07423 16.8163 6.92973 16.8166H5.4C5.30275 16.8166 5.20949 16.778 5.14073 16.7092C5.07196 16.6405 5.03333 16.5472 5.03333 16.45V10.2166C5.03333 10.1194 5.07196 10.0261 5.14073 9.95737C5.20949 9.88861 5.30275 9.84998 5.4 9.84998H6.5C6.79174 9.84998 7.07153 9.73408 7.27782 9.52779C7.48411 9.3215 7.6 9.04171 7.6 8.74998C7.6 8.65273 7.63863 8.55947 7.70739 8.4907C7.77616 8.42194 7.86942 8.38331 7.96667 8.38331H14.9333C15.0306 8.38331 15.1238 8.42194 15.1926 8.4907C15.2614 8.55947 15.3 8.65273 15.3 8.74998V9.48331C15.3 9.77505 15.4159 10.0548 15.6222 10.2611C15.8285 10.4674 16.1083 10.5833 16.4 10.5833H17.5C17.5972 10.5833 17.6905 10.6219 17.7593 10.6907C17.828 10.7595 17.8667 10.8527 17.8667 10.95V18.65ZM18.6 16.45V13.5166H19.3333V16.45H18.6ZM22.2667 16.8166C22.2667 17.1084 22.1508 17.3882 21.9445 17.5945C21.7382 17.8007 21.4584 17.9166 21.1667 17.9166H20.4333C20.3361 17.9166 20.2428 17.878 20.1741 17.8092C20.1053 17.7405 20.0667 17.6472 20.0667 17.55V12.4166C20.0667 12.3194 20.1053 12.2261 20.1741 12.1574C20.2428 12.0886 20.3361 12.05 20.4333 12.05H21.1667C21.4584 12.05 21.7382 12.1659 21.9445 12.3722C22.1508 12.5784 22.2667 12.8582 22.2667 13.15V16.8166Z" fill="#0A58CA" stroke="#0A58CA" stroke-width="0.2"/>
</svg>
