<svg width="24" height="24" viewBox="0 0 24 24" fill="none" xmlns="http://www.w3.org/2000/svg">
<path d="M18.9509 15.121C18.6059 15.121 18.3259 15.401 18.3259 15.746V19.5115C18.3259 19.994 17.9334 20.3865 17.4509 20.3865H4.33691C3.85441 20.3865 3.46191 19.994 3.46191 19.5115V5.89904C3.72941 6.00504 4.02441 6.06804 4.33691 6.06804H17.4514C17.9339 6.06804 18.3264 6.46054 18.3264 6.94304V9.43254C18.3264 9.77754 18.6064 10.0575 18.9514 10.0575C19.2964 10.0575 19.5764 9.77754 19.5764 9.43254V6.94304C19.5764 5.77154 18.6234 4.81804 17.4514 4.81804H17.2579V4.21554C17.2579 3.19454 16.3049 2.36304 15.1329 2.36304H4.33691C3.16541 2.36304 2.21191 3.19404 2.21191 4.21554C2.21191 4.26754 2.22491 4.31654 2.22941 4.36704C2.22491 4.39704 2.21191 4.42354 2.21191 4.45454V19.512C2.21191 20.684 3.16541 21.637 4.33691 21.637H17.4514C18.6234 21.637 19.5764 20.684 19.5764 19.512V15.7465C19.5759 15.401 19.2964 15.121 18.9509 15.121ZM4.33691 3.61354H15.1329C15.5994 3.61354 16.0079 3.89504 16.0079 4.21604V4.81854H4.33691C3.87091 4.81854 3.46191 4.53704 3.46191 4.21604C3.46191 3.89504 3.87091 3.61354 4.33691 3.61354ZM21.1909 8.81354C20.8499 8.80204 20.5594 9.06454 20.5384 9.40504C20.5364 9.43704 20.2574 12.573 13.3254 12.679L14.5639 11.4405C14.8079 11.1965 14.8079 10.801 14.5639 10.5565C14.3199 10.312 13.9244 10.3125 13.6799 10.5565L11.3694 12.867C11.2524 12.984 11.1864 13.143 11.1864 13.309C11.1864 13.4745 11.2524 13.6335 11.3694 13.751L13.6799 16.0615C13.8019 16.1835 13.9614 16.2445 14.1219 16.2445C14.2824 16.2445 14.4419 16.1835 14.5639 16.0615C14.8079 15.8175 14.8079 15.422 14.5639 15.1775L13.3149 13.9285C21.5614 13.812 21.7829 9.63104 21.7879 9.45054C21.7974 9.10954 21.5314 8.82904 21.1909 8.81354Z" fill="#0A58CA"/>
</svg>
