<svg width="24" height="24" viewBox="0 0 24 24" fill="none" xmlns="http://www.w3.org/2000/svg">
<path d="M17.4349 10.3894V5.84747C17.4349 5.71746 17.3749 5.59734 17.2899 5.50231L12.1977 0.15509C12.1027 0.0551147 11.9676 0 11.8326 0H3.75915C2.26868 0 1.07812 1.21545 1.07812 2.70611V17.9725C1.07812 19.4632 2.26868 20.6587 3.75915 20.6587H10.1319C11.3373 22.6595 13.5284 24 16.0243 24C19.8158 24 22.9121 20.9187 22.9121 17.1222C22.9173 13.8058 20.5362 11.0347 17.4349 10.3894ZM12.3329 1.7558L15.7492 5.35217H13.5333C12.873 5.35217 12.3329 4.80706 12.3329 4.14678V1.7558ZM3.75915 19.6582C2.82385 19.6582 2.07861 18.9078 2.07861 17.9725V2.70611C2.07861 1.76568 2.82385 1.00049 3.75915 1.00049H11.3324V4.14678C11.3324 5.36224 12.3179 6.35265 13.5333 6.35265H16.4344V10.2592C16.2845 10.2543 16.1643 10.2392 16.0343 10.2392C14.2886 10.2392 12.683 10.9096 11.4725 11.9601H5.11981C4.8446 11.9601 4.61956 12.1851 4.61956 12.4601C4.61956 12.7353 4.8446 12.9604 5.11981 12.9604H10.5421C10.1869 13.4606 9.89171 13.9609 9.66173 14.5111H5.11981C4.8446 14.5111 4.61956 14.7361 4.61956 15.0113C4.61956 15.2864 4.8446 15.5116 5.11981 15.5116H9.33654C9.21148 16.0118 9.14647 16.567 9.14647 17.1222C9.14647 18.0225 9.32152 18.9129 9.63665 19.6633H3.75915V19.6582ZM16.0294 23.0046C12.7881 23.0046 10.1519 20.3684 10.1519 17.1271C10.1519 13.8858 12.7829 11.2496 16.0294 11.2496C19.2757 11.2496 21.9067 13.8858 21.9067 17.1271C21.9067 20.3684 19.2707 23.0046 16.0294 23.0046Z" fill="#0A58CA"/>
<path d="M5.11938 10.4544H10.1865C10.4617 10.4544 10.6867 10.2292 10.6867 9.95416C10.6867 9.67895 10.4617 9.45392 10.1865 9.45392H5.11938C4.84418 9.45392 4.61914 9.67895 4.61914 9.95416C4.61914 10.2292 4.84418 10.4544 5.11938 10.4544Z" fill="#0A58CA"/>
<path d="M15.8641 14.0408C15.9042 14.0507 15.9441 14.0558 15.9842 14.0558C16.0342 14.0558 16.0793 14.0507 16.1243 14.0357C16.7846 14.0908 17.2999 14.641 17.2999 15.3114C17.2999 15.5864 17.5249 15.8115 17.7999 15.8115C18.0751 15.8115 18.3002 15.5864 18.3002 15.3114C18.3002 14.2109 17.52 13.2905 16.4845 13.0753V12.7552C16.4845 12.48 16.2593 12.255 15.9842 12.255C15.709 12.255 15.484 12.48 15.484 12.7552V13.0955C14.4835 13.3355 13.7383 14.241 13.7383 15.3114C13.7383 16.5719 14.7637 17.5923 16.0192 17.5923C16.7245 17.5923 17.2999 18.1675 17.2999 18.8728C17.2999 19.5781 16.7295 20.1584 16.0192 20.1584C15.3139 20.1584 14.7388 19.5831 14.7388 18.8777C14.7388 18.6027 14.5135 18.3775 14.2385 18.3775C13.9633 18.3775 13.7383 18.6027 13.7383 18.8777C13.7383 19.9533 14.4835 20.8536 15.484 21.0937V21.6089C15.484 21.8841 15.709 22.1092 15.9842 22.1092C16.2593 22.1092 16.4845 21.8841 16.4845 21.6089V21.1087C17.52 20.8935 18.3002 19.9733 18.3002 18.8728C18.3002 17.6123 17.2748 16.5919 16.0192 16.5919C15.3139 16.5919 14.7388 16.0165 14.7388 15.3114C14.7388 14.661 15.2289 14.1159 15.8641 14.0408Z" fill="#0A58CA"/>
</svg>
