<svg width="24" height="24" viewBox="0 0 24 24" fill="none" xmlns="http://www.w3.org/2000/svg">
<path d="M16 22.5H4C3.3372 22.4992 2.70178 22.2356 2.23311 21.7669C1.76444 21.2982 1.50079 20.6628 1.5 20V4C1.50079 3.3372 1.76444 2.70178 2.23311 2.23311C2.70178 1.76444 3.3372 1.50079 4 1.5H11.73C12.0629 1.50022 12.3925 1.56664 12.6996 1.6954C13.0066 1.82416 13.285 2.01268 13.5185 2.25L17.7875 6.6195C18.2454 7.08696 18.5013 7.71563 18.5 8.37V12.095C18.5 12.2276 18.4473 12.3548 18.3536 12.4486C18.2598 12.5423 18.1326 12.595 18 12.595C17.8674 12.595 17.7402 12.5423 17.6464 12.4486C17.5527 12.3548 17.5 12.2276 17.5 12.095V8.37C17.5002 7.97748 17.3466 7.60052 17.072 7.32L12.8025 2.95C12.6626 2.8075 12.4957 2.69432 12.3115 2.61705C12.1274 2.53979 11.9297 2.5 11.73 2.5H4C3.60218 2.5 3.22064 2.65804 2.93934 2.93934C2.65804 3.22064 2.5 3.60218 2.5 4V20C2.5 20.3978 2.65804 20.7794 2.93934 21.0607C3.22064 21.342 3.60218 21.5 4 21.5H16C16.1886 21.5007 16.3755 21.4642 16.55 21.3925C16.6727 21.342 16.8103 21.3424 16.9328 21.3934C17.0552 21.4445 17.1523 21.5421 17.2027 21.6648C17.2532 21.7874 17.2529 21.9251 17.2018 22.0475C17.1508 22.1699 17.0532 22.267 16.9305 22.3175C16.6353 22.4387 16.3191 22.5008 16 22.5Z" fill="#0A58CA"/>
<path d="M17.795 8.00003H14.5C13.8372 7.99924 13.2018 7.73559 12.7331 7.26692C12.2644 6.79825 12.0008 6.16283 12 5.50003V2.15503C12 2.02242 12.0527 1.89524 12.1464 1.80148C12.2402 1.70771 12.3674 1.65503 12.5 1.65503C12.6326 1.65503 12.7598 1.70771 12.8536 1.80148C12.9473 1.89524 13 2.02242 13 2.15503V5.50003C13 5.89785 13.158 6.27939 13.4393 6.56069C13.7206 6.842 14.1022 7.00003 14.5 7.00003H17.795C17.9276 7.00003 18.0548 7.05271 18.1486 7.14648C18.2423 7.24024 18.295 7.36742 18.295 7.50003C18.295 7.63264 18.2423 7.75981 18.1486 7.85358C18.0548 7.94735 17.9276 8.00003 17.795 8.00003Z" fill="#0A58CA"/>
<path d="M17 22.4271C16.8028 22.4273 16.61 22.369 16.446 22.2596L14.84 21.1886C13.8118 20.5049 12.9688 19.5775 12.386 18.489C11.8033 17.4005 11.4989 16.1847 11.5 14.9501V14.0941C11.501 13.8691 11.5775 13.651 11.7172 13.4746C11.8569 13.2983 12.0517 13.174 12.2705 13.1216C13.7555 12.7111 15.1681 12.0738 16.4585 11.2321C16.62 11.1281 16.808 11.0728 17 11.0728C17.1921 11.0728 17.38 11.1281 17.5415 11.2321C18.8318 12.0739 20.2445 12.7112 21.7295 13.1216C21.9483 13.174 22.1431 13.2983 22.2828 13.4746C22.4226 13.651 22.499 13.8691 22.5 14.0941V14.9501C22.5015 16.1851 22.1972 17.4013 21.6144 18.4901C21.0317 19.579 20.1884 20.5067 19.16 21.1906L17.5545 22.2611C17.3902 22.37 17.1972 22.4278 17 22.4271ZM17 12.0721C15.6176 12.9739 14.1036 13.6557 12.512 14.0931L12.5 14.9501C12.4988 16.0204 12.7625 17.0744 13.2675 18.0181C13.7725 18.9618 14.5033 19.7658 15.3945 20.3586L17 21.4271L18.6055 20.3566C19.4965 19.764 20.227 18.9603 20.732 18.017C21.2371 17.0737 21.5009 16.0201 21.5 14.9501V14.0941C19.9045 13.6569 18.3865 12.975 17 12.0726V12.0721Z" fill="#0A58CA"/>
<path d="M16.4997 18C16.3671 17.9999 16.24 17.9472 16.1462 17.8535L15.1462 16.8535C15.0551 16.7592 15.0047 16.6329 15.0059 16.5018C15.007 16.3707 15.0596 16.2453 15.1523 16.1525C15.245 16.0598 15.3704 16.0073 15.5015 16.0061C15.6326 16.005 15.7589 16.0554 15.8532 16.1465L16.4997 16.793L18.1462 15.1465C18.2405 15.0554 18.3668 15.005 18.4979 15.0061C18.629 15.0073 18.7544 15.0598 18.8471 15.1526C18.9398 15.2453 18.9924 15.3707 18.9936 15.5018C18.9947 15.6329 18.9443 15.7592 18.8532 15.8535L16.8532 17.8535C16.7595 17.9472 16.6323 17.9999 16.4997 18Z" fill="#0A58CA"/>
<path d="M9 6.5H5C4.86739 6.5 4.74021 6.44732 4.64645 6.35355C4.55268 6.25979 4.5 6.13261 4.5 6C4.5 5.86739 4.55268 5.74021 4.64645 5.64645C4.74021 5.55268 4.86739 5.5 5 5.5H9C9.13261 5.5 9.25979 5.55268 9.35355 5.64645C9.44732 5.74021 9.5 5.86739 9.5 6C9.5 6.13261 9.44732 6.25979 9.35355 6.35355C9.25979 6.44732 9.13261 6.5 9 6.5Z" fill="#0A58CA"/>
<path d="M12 9.5H5C4.86739 9.5 4.74021 9.44732 4.64645 9.35355C4.55268 9.25979 4.5 9.13261 4.5 9C4.5 8.86739 4.55268 8.74021 4.64645 8.64645C4.74021 8.55268 4.86739 8.5 5 8.5H12C12.1326 8.5 12.2598 8.55268 12.3536 8.64645C12.4473 8.74021 12.5 8.86739 12.5 9C12.5 9.13261 12.4473 9.25979 12.3536 9.35355C12.2598 9.44732 12.1326 9.5 12 9.5Z" fill="#0A58CA"/>
<path d="M13 12.5H5C4.86739 12.5 4.74021 12.4473 4.64645 12.3536C4.55268 12.2598 4.5 12.1326 4.5 12C4.5 11.8674 4.55268 11.7402 4.64645 11.6464C4.74021 11.5527 4.86739 11.5 5 11.5H13C13.1326 11.5 13.2598 11.5527 13.3536 11.6464C13.4473 11.7402 13.5 11.8674 13.5 12C13.5 12.1326 13.4473 12.2598 13.3536 12.3536C13.2598 12.4473 13.1326 12.5 13 12.5Z" fill="#0A58CA"/>
<path d="M10 15.5H5C4.86739 15.5 4.74021 15.4473 4.64645 15.3536C4.55268 15.2598 4.5 15.1326 4.5 15C4.5 14.8674 4.55268 14.7402 4.64645 14.6464C4.74021 14.5527 4.86739 14.5 5 14.5H10C10.1326 14.5 10.2598 14.5527 10.3536 14.6464C10.4473 14.7402 10.5 14.8674 10.5 15C10.5 15.1326 10.4473 15.2598 10.3536 15.3536C10.2598 15.4473 10.1326 15.5 10 15.5Z" fill="#0A58CA"/>
<path d="M10 18.5H5C4.86739 18.5 4.74021 18.4473 4.64645 18.3536C4.55268 18.2598 4.5 18.1326 4.5 18C4.5 17.8674 4.55268 17.7402 4.64645 17.6464C4.74021 17.5527 4.86739 17.5 5 17.5H10C10.1326 17.5 10.2598 17.5527 10.3536 17.6464C10.4473 17.7402 10.5 17.8674 10.5 18C10.5 18.1326 10.4473 18.2598 10.3536 18.3536C10.2598 18.4473 10.1326 18.5 10 18.5Z" fill="#0A58CA"/>
</svg>
