<svg width="24" height="24" viewBox="0 0 24 24" fill="none" xmlns="http://www.w3.org/2000/svg">
<path d="M21.1185 20.4509C22.4509 19.5506 21.8093 17.4672 20.2078 17.4672H18.7868C18.4513 17.4672 18.1797 17.7391 18.1797 18.0743V21.4874C18.1797 22.2924 19.3939 22.2885 19.3939 21.4874V20.7293H19.738L20.7795 21.8925C21.3095 22.4843 22.2271 21.6891 21.684 21.0826L21.1185 20.4509ZM19.3939 18.6814H20.2078C20.7587 18.6814 20.7589 19.5151 20.2078 19.5151H19.3939V18.6814Z" fill="#0A58CA"/>
<path d="M4.58314 20.0749C6.25777 19.7679 6.03368 17.2755 4.33037 17.2755H2.61444C1.81223 17.2755 1.81139 18.4897 2.61444 18.4897H4.33037C4.56366 18.4897 4.59397 18.8384 4.3643 18.8806C1.6274 19.382 1.59849 21.7908 2.61444 21.7908H5.12984C5.93205 21.7908 5.93289 20.5766 5.12984 20.5766H3.41765C3.70661 20.1773 4.06391 20.17 4.58314 20.0749Z" fill="#0A58CA"/>
<path d="M2.9557 3.21431H3.26534V5.92684C3.26534 6.73165 4.47953 6.72806 4.47953 5.92684V2.60724C4.47953 2.27172 4.20753 2.00012 3.87241 2.00012H2.95567C2.1505 2.00012 2.15508 3.21431 2.9557 3.21431Z" fill="#0A58CA"/>
<path d="M12.3732 5.30109H10.683C9.88081 5.30109 9.87998 6.51528 10.683 6.51528H12.3732C13.533 6.51528 14.2108 5.20157 13.5429 4.25766C14.2097 3.31535 13.5346 2 12.3732 2H10.683C9.88081 2 9.87998 3.21419 10.683 3.21419H12.3732C12.6615 3.21419 12.6616 3.65054 12.3732 3.65054H11.3436C10.5414 3.65054 10.5405 4.86474 11.3436 4.86474H12.3732C12.6615 4.86478 12.6616 5.30109 12.3732 5.30109Z" fill="#0A58CA"/>
<path d="M13.4048 19.1729H13.0536V17.9948C13.0536 17.1926 11.8394 17.1917 11.8394 17.9948V19.1729H11.0501V17.9948C11.0501 17.1926 9.83594 17.1917 9.83594 17.9948V19.78C9.83594 20.1153 10.1077 20.3871 10.4431 20.3871H11.8395V21.2958C11.8395 22.0981 13.0537 22.0989 13.0537 21.2958V20.3871H13.4048C14.207 20.3871 14.2078 19.1729 13.4048 19.1729Z" fill="#0A58CA"/>
<path d="M20.2863 5.30109H18.9041C18.1018 5.30109 18.101 6.51528 18.9041 6.51528H20.2863C22.1852 6.51528 22.186 3.65054 20.2863 3.65054H19.5869L19.6383 3.21419H21.1163C21.9185 3.21419 21.9194 2 21.1163 2H19.0985C18.7907 2 18.5316 2.23034 18.4956 2.53603L18.3011 4.18657C18.2586 4.54714 18.5406 4.86474 18.904 4.86474H20.2863C20.581 4.86478 20.5809 5.30109 20.2863 5.30109Z" fill="#0A58CA"/>
<path d="M19.3846 16.0435C19.3846 16.8457 20.5988 16.8465 20.5988 16.0435V8.05104C20.5988 7.24883 19.3846 7.24799 19.3846 8.05104V11.4401H14.2534C14.0345 10.5991 13.3711 9.93575 12.53 9.71676V8.05084C12.53 7.24887 11.3158 7.24751 11.3158 8.05084V9.71676C10.4748 9.93571 9.81145 10.5991 9.59246 11.4401H4.46126V8.05104C4.46126 7.24883 3.24707 7.24799 3.24707 8.05104V16.0435C3.24707 16.8457 4.46126 16.8465 4.46126 16.0435V12.6544H9.59246C9.81141 13.4954 10.4748 14.1588 11.3158 14.3778V16.0437C11.3158 16.8456 12.53 16.847 12.53 16.0437V14.3778C13.3711 14.1588 14.0344 13.4954 14.2534 12.6544H19.3846V16.0435ZM13.1169 12.0473C13.1169 12.7055 12.5813 13.2412 11.923 13.2412C11.2647 13.2412 10.729 12.7056 10.729 12.0473C10.729 11.3894 11.2642 10.8533 11.923 10.8533C12.5808 10.8533 13.1169 11.3885 13.1169 12.0473Z" fill="#0A58CA"/>
</svg>
