<svg width="24" height="24" viewBox="0 0 24 24" fill="none" xmlns="http://www.w3.org/2000/svg">
<g clip-path="url(#clip0_324_3583)">
<path d="M12.04 19.52H3C1.88 19.52 1 18.64 1 17.52V4.52002C1 3.40002 1.88 2.52002 3 2.52002H21C22.12 2.52002 23 3.40002 23 4.52002V13.2H22V4.52002C22 3.96002 21.56 3.52002 21 3.52002H3C2.44 3.52002 2 3.96002 2 4.52002V17.52C2 18.08 2.44 18.52 3 18.52H12.04V19.52Z" fill="#0A58CA"/>
<path d="M1.51953 7H22.5195V8H1.51953V7Z" fill="#0A58CA"/>
<path d="M4 15.48H8.52V16.48H4V15.48Z" fill="#0A58CA"/>
<path d="M17.52 23C13.92 23 11 20.08 11 16.48C11 12.88 13.92 10 17.52 10C21.12 10 24 12.92 24 16.52C24 20.12 21.08 23 17.52 23ZM17.52 11C14.48 11 12.04 13.48 12.04 16.48C12.04 19.48 14.48 22 17.52 22C20.56 22 23 19.52 23 16.52C23 13.52 20.52 11 17.52 11Z" fill="#0A58CA"/>
<path d="M4 12.5199H6V13.5199H4V12.5199Z" fill="#0A58CA"/>
<path d="M8 12.5199H10V13.5199H8V12.5199Z" fill="#0A58CA"/>
<path d="M16.9994 19.72L13.3594 16.08L14.0794 15.36L16.9994 18.28L20.9194 14.36L21.6394 15.08L16.9994 19.72Z" fill="#0A58CA"/>
</g>
<defs>
<clipPath id="clip0_324_3583">
<rect width="24" height="24" fill="white"/>
</clipPath>
</defs>
</svg>
