<svg width="24" height="24" viewBox="0 0 24 24" fill="none" xmlns="http://www.w3.org/2000/svg">
<path d="M5.35118 11.6507C3.94376 11.6507 2.79883 10.5161 2.79883 9.12205C2.79883 7.72779 3.94376 6.59326 5.35118 6.59326C6.75843 6.59326 7.90318 7.72762 7.90318 9.12205C7.90318 10.5163 6.75843 11.6507 5.35118 11.6507ZM5.35118 7.30295C4.33499 7.30295 3.50852 8.11902 3.50852 9.12205C3.50852 10.1249 4.33499 10.941 5.35118 10.941C6.36702 10.941 7.19349 10.1249 7.19349 9.12205C7.19349 8.11902 6.36702 7.30295 5.35118 7.30295Z" fill="#0A58CA" stroke="#0A58CA" stroke-width="0.1"/>
<path d="M6.37863 18.652H1.92748C1.41601 18.652 1 18.2386 1 17.7304V16.5697C1 14.1935 2.95216 12.2603 5.35187 12.2603C6.29564 12.2603 7.19401 12.5548 7.9491 13.1118C8.10677 13.2283 8.14038 13.4504 8.02395 13.6082C7.90751 13.7657 7.68556 13.7994 7.52772 13.6831C6.89548 13.2167 6.14317 12.9699 5.35187 12.9699C3.34357 12.9699 1.70969 14.5849 1.70969 16.5697V17.7304C1.70969 17.8471 1.80741 17.9423 1.92748 17.9423H6.3788C6.57459 17.9423 6.73365 18.1012 6.73365 18.2971C6.73365 18.4929 6.57459 18.652 6.37863 18.652Z" fill="#0A58CA" stroke="#0A58CA" stroke-width="0.1"/>
<path d="M22.0727 18.3835H17.6216C17.4258 18.3835 17.2667 18.2246 17.2667 18.0286C17.2667 17.8328 17.4258 17.6738 17.6216 17.6738H22.0729C22.193 17.6738 22.2907 17.5788 22.2907 17.4621V16.3014C22.2907 14.3163 20.6568 12.7016 18.6485 12.7016C17.8097 12.7016 16.9909 12.9905 16.3427 13.5151C16.1906 13.6383 15.9672 13.6149 15.8437 13.4626C15.7205 13.3103 15.7437 13.0868 15.8964 12.9634C16.6703 12.3371 17.6477 11.9919 18.6485 11.9919C21.048 11.9919 23.0002 13.925 23.0002 16.3014V17.4621C23.0002 17.9701 22.5842 18.3835 22.0727 18.3835Z" fill="#0A58CA" stroke="#0A58CA" stroke-width="0.1"/>
<path d="M18.6487 11.4754C17.2414 11.4754 16.0967 10.341 16.0967 8.94676C16.0967 7.5525 17.2414 6.41797 18.6487 6.41797C20.0561 6.41797 21.201 7.55233 21.201 8.94676C21.201 10.3412 20.0559 11.4754 18.6487 11.4754ZM18.6487 7.12766C17.6328 7.12766 16.8064 7.94373 16.8064 8.94676C16.8064 9.94978 17.6328 10.7657 18.6487 10.7657C19.6649 10.7657 20.4913 9.94978 20.4913 8.94676C20.4913 7.94373 19.6647 7.12766 18.6487 7.12766Z" fill="#0A58CA" stroke="#0A58CA" stroke-width="0.1"/>
<path d="M16.8159 19.8066H7.18379C6.54392 19.8066 6.02344 19.2899 6.02344 18.6548V17.0223C6.02344 13.7597 8.70418 11.1055 11.9998 11.1055C15.2955 11.1055 17.9762 13.7597 17.9762 17.0223V18.6548C17.9762 19.2899 17.4557 19.8066 16.8159 19.8066ZM11.9998 11.8153C9.09575 11.8153 6.73313 14.1513 6.73313 17.0224V18.6549C6.73313 18.8987 6.93533 19.0971 7.18379 19.0971H16.8157C17.0642 19.0971 17.2664 18.8987 17.2664 18.6549V17.0224C17.2665 14.1513 14.9039 11.8153 11.9998 11.8153Z" fill="#0A58CA" stroke="#0A58CA" stroke-width="0.1"/>
<path d="M11.8762 10.6908C10.068 10.6908 8.59668 9.23343 8.59668 7.44188C8.59668 5.65051 10.0679 4.19336 11.8762 4.19336C13.6847 4.19336 15.1559 5.65068 15.1559 7.44206C15.1559 9.23361 13.6846 10.6908 11.8762 10.6908ZM11.8762 4.90305C10.4593 4.90305 9.30637 6.04209 9.30637 7.44206C9.30637 8.8422 10.4593 9.98124 11.8762 9.98124C13.2933 9.98124 14.4462 8.8422 14.4462 7.44206C14.4462 6.04209 13.2933 4.90305 11.8762 4.90305Z" fill="#0A58CA" stroke="#0A58CA" stroke-width="0.1"/>
</svg>
