<svg width="32" height="32" viewBox="0 0 32 32" fill="none" xmlns="http://www.w3.org/2000/svg">
<path d="M3.33325 16L5.99992 17.3333" stroke="#0A58CA" stroke-width="1.5" stroke-linecap="round" stroke-linejoin="round"/>
<path d="M28.6667 16.667L26.0001 17.3337" stroke="#0A58CA" stroke-width="1.5" stroke-linecap="round" stroke-linejoin="round"/>
<path d="M10.6667 23.3333L10.9943 22.5144C11.4814 21.2966 11.725 20.6877 12.2329 20.3439C12.7408 20 13.3966 20 14.7082 20H17.2919C18.6036 20 19.2594 20 19.7673 20.3439C20.2752 20.6877 20.5187 21.2966 21.0059 22.5144L21.3334 23.3333" stroke="#0A58CA" stroke-width="1.5" stroke-linecap="round" stroke-linejoin="round"/>
<path d="M2.66675 22.667V26.5096C2.66675 27.0146 2.98775 27.4763 3.49593 27.7022C3.82566 27.8487 4.14059 28.0003 4.52085 28.0003H6.81265C7.1929 28.0003 7.50784 27.8487 7.83757 27.7022C8.34574 27.4763 8.66675 27.0146 8.66675 26.5096V24.0003" stroke="#0A58CA" stroke-width="1.5" stroke-linecap="round" stroke-linejoin="round"/>
<path d="M23.3333 24.0003V26.5096C23.3333 27.0146 23.6543 27.4763 24.1624 27.7022C24.4922 27.8487 24.8071 28.0003 25.1874 28.0003H27.4791C27.8594 28.0003 28.1743 27.8487 28.5041 27.7022C29.0122 27.4763 29.3333 27.0146 29.3333 26.5096V22.667" stroke="#0A58CA" stroke-width="1.5" stroke-linecap="round" stroke-linejoin="round"/>
<path d="M26.6667 11.3337L28.0001 10.667" stroke="#0A58CA" stroke-width="1.5" stroke-linecap="round" stroke-linejoin="round"/>
<path d="M5.33325 11.3337L3.99992 10.667" stroke="#0A58CA" stroke-width="1.5" stroke-linecap="round" stroke-linejoin="round"/>
<path d="M6 12L7.45107 7.64679C8.03776 5.88673 8.3311 5.00671 9.02946 4.50335C9.72783 4 10.6555 4 12.5107 4H19.4893C21.3445 4 22.2722 4 22.9705 4.50335C23.6689 5.00671 23.9622 5.88673 24.5489 7.64679L26 12" stroke="#0A58CA" stroke-width="1.5" stroke-linejoin="round"/>
<path d="M6.00008 12H26.0001C27.2764 13.3514 29.3334 15.2333 29.3334 17.3328V21.9602C29.3334 22.7209 28.8274 23.3611 28.1559 23.45L24.0001 24H8.00008L3.84429 23.45C3.17281 23.3611 2.66675 22.7209 2.66675 21.9602V17.3328C2.66675 15.2333 4.72379 13.3514 6.00008 12Z" stroke="#0A58CA" stroke-width="1.5" stroke-linejoin="round"/>
</svg>
