<svg width="32" height="32" viewBox="0 0 32 32" fill="none" xmlns="http://www.w3.org/2000/svg">
<g clip-path="url(#clip0_68_25)">
<path d="M21.5328 5.96707C21.7033 5.96707 21.8672 5.9015 21.9918 5.77691L24.7393 3.07527C24.9951 2.82609 25.0016 2.40642 24.7459 2.15068C24.4967 1.89494 24.0771 1.88839 23.8213 2.14412L21.0738 4.84576C20.818 5.09494 20.8115 5.51461 21.0672 5.77035C21.1918 5.9015 21.3623 5.96707 21.5328 5.96707Z" fill="#0A58CA" stroke="#0A58CA" stroke-width="0.2"/>
<path d="M10.0378 5.7837C10.1623 5.90829 10.3263 5.96731 10.4902 5.96731C10.6607 5.96731 10.8312 5.90173 10.9623 5.77058C11.2181 5.51485 11.2115 5.09518 10.9492 4.846L8.14923 2.14436C7.89349 1.88862 7.48038 1.90173 7.22464 2.15747C6.9689 2.41321 6.97546 2.83288 7.23775 3.08206L10.0378 5.7837Z" fill="#0A58CA" stroke="#0A58CA" stroke-width="0.2"/>
<path d="M15.9853 5.26557C16.346 5.26557 16.6411 4.97049 16.6411 4.60984V0.655738C16.6411 0.295082 16.346 0 15.9853 0C15.6247 0 15.3296 0.295082 15.3296 0.655738V4.60984C15.3296 4.97049 15.6247 5.26557 15.9853 5.26557Z" fill="#0A58CA" stroke="#0A58CA" stroke-width="0.2"/>
<path d="M24.6541 13.0424C24.1295 11.1801 23.0213 9.5867 21.441 8.42604C19.8672 7.27194 17.9787 6.66211 15.9853 6.66211C14.0115 6.66211 12.1361 7.27195 10.5689 8.4326C8.99511 9.59326 7.88691 11.1933 7.36232 13.049C6.84429 14.8588 6.97544 16.826 7.73609 18.59C8.43773 20.2228 9.65085 21.6195 11.1787 22.5637V24.6424L11.1722 27.3441C11.1722 27.3506 11.1722 27.3572 11.1722 27.3572C11.2312 29.9211 13.3886 31.9998 15.9853 31.9998C18.6345 31.9998 20.7918 29.908 20.7918 27.3375V22.5572C22.3394 21.6129 23.5656 20.2096 24.2738 18.5769C25.0345 16.826 25.1722 14.8588 24.6541 13.0424ZM15.9853 30.6883C14.3328 30.6883 12.923 29.5277 12.5689 27.9933H19.4082C19.0935 29.5277 17.6771 30.6883 15.9853 30.6883ZM19.4869 26.6818H19.4804H12.4902L12.4967 25.2916H19.4869V26.6818ZM19.8148 21.6064C19.6049 21.7244 19.4738 21.9408 19.4738 22.1834V23.9801H12.4902V22.1834C12.4902 21.9474 12.359 21.7244 12.1558 21.6129C9.17871 19.9408 7.72298 16.5703 8.6279 13.4031C9.52626 10.2096 12.5492 7.97358 15.9853 7.97358C19.5 7.97358 22.4771 10.1572 23.3951 13.4031C24.3 16.5703 22.8246 19.9474 19.8148 21.6064Z" fill="#0A58CA" stroke="#0A58CA" stroke-width="0.2"/>
</g>
<defs>
<clipPath id="clip0_68_25">
<rect width="32" height="32" fill="white"/>
</clipPath>
</defs>
</svg>
