<svg width="32" height="32" viewBox="0 0 32 32" fill="none" xmlns="http://www.w3.org/2000/svg">
<path d="M29.3334 13.3332V12.2898C29.3334 9.70367 29.3334 8.41059 28.5524 7.60718C27.7713 6.80376 26.5142 6.80376 24.0001 6.80376H21.2285C20.0054 6.80376 19.9953 6.80138 18.8954 6.25096L14.4532 4.02802C12.5985 3.09989 11.6712 2.63583 10.6833 2.66808C9.69533 2.70033 8.79844 3.22395 7.00468 4.27119L5.36752 5.22699C4.04993 5.99623 3.39113 6.38085 3.02894 7.0207C2.66675 7.66054 2.66675 8.43974 2.66675 9.99814V20.9541C2.66675 23.0018 2.66675 24.0256 3.1231 24.5954C3.42676 24.9745 3.85229 25.2294 4.32275 25.3139C5.02977 25.4409 5.89539 24.9355 7.62658 23.9248C8.80216 23.2385 9.93356 22.5257 11.3399 22.719C12.5183 22.8809 13.6134 23.6245 14.6667 24.1516" stroke="#0A58CA" stroke-width="1.5" stroke-linecap="round" stroke-linejoin="round"/>
<path d="M10.6667 2.6665L10.6667 22.6665" stroke="#0A58CA" stroke-width="1.5" stroke-linejoin="round"/>
<path d="M20 6.6665V12.6665" stroke="#0A58CA" stroke-width="1.5" stroke-linecap="round" stroke-linejoin="round"/>
<path d="M24.411 28.9113C24.1219 29.182 23.7355 29.3333 23.3334 29.3333C22.9312 29.3333 22.5448 29.182 22.2557 28.9113C19.6084 26.4173 16.0606 23.6313 17.7907 19.5864C18.7262 17.3994 20.9718 16 23.3334 16C25.695 16 27.9406 17.3994 28.876 19.5864C30.604 23.6262 27.0649 26.4259 24.411 28.9113Z" stroke="#0A58CA" stroke-width="1.5"/>
<path d="M23.3333 22H23.3452" stroke="#0A58CA" stroke-width="2" stroke-linecap="round" stroke-linejoin="round"/>
</svg>
