<svg width="32" height="32" viewBox="0 0 32 32" fill="none" xmlns="http://www.w3.org/2000/svg">
<path d="M20.175 3.33317C18.8617 2.90057 17.4582 2.6665 16.0001 2.6665C8.63628 2.6665 2.66675 8.63604 2.66675 15.9998C2.66675 23.3636 8.63628 29.3332 16.0001 29.3332C23.3639 29.3332 29.3334 23.3636 29.3334 15.9998C29.3334 14.6062 29.1196 13.2626 28.723 11.9998" stroke="#0A58CA" stroke-width="1.5" stroke-linecap="round"/>
<path d="M22.6666 16.0002C22.6666 19.6821 19.6818 22.6668 15.9999 22.6668C12.318 22.6668 9.33325 19.6821 9.33325 16.0002C9.33325 12.3183 12.318 9.3335 15.9999 9.3335" stroke="#0A58CA" stroke-width="1.5" stroke-linecap="round" stroke-linejoin="round"/>
<path d="M26 5.99984L16 15.9998M26 5.99984V2.6665M26 5.99984H29.3333" stroke="#0A58CA" stroke-width="1.5" stroke-linecap="round"/>
</svg>
