<svg width="129" height="35" viewBox="0 0 129 35" fill="none" xmlns="http://www.w3.org/2000/svg">
<path d="M124.005 9.45863L117.632 0H112.431V15.5113H116.572V5.62828L123.045 15.5113H128.035V0.0111679H124.005V9.45863ZM99.9074 8.93377L102.028 3.72985L104.149 8.93377H99.9074ZM99.4833 0.0111679L92.6859 15.5224H97.2509L98.5234 12.3398H105.745L107.129 15.5224H111.806L104.796 0.0111679H99.4833ZM85.8884 7.87289V7.54904C85.8884 5.21509 87.1609 3.61818 89.8173 3.61818H94.494V0.0111679H89.5048C84.4039 0.0111679 81.7586 3.3055 81.7586 7.54904V7.87289C81.7586 12.6525 84.7276 15.4108 89.2927 15.4108H90.6768L92.3733 11.9043H89.9289C87.4846 12.0159 85.8884 10.6312 85.8884 7.87289ZM75.4858 0.0111679V15.5224H79.6268V0.0111679H75.4858ZM67.2039 6.58866H62.8509V3.5065H67.2039C68.4764 3.5065 69.1126 4.25471 69.1126 5.10342C69.1126 5.95213 68.4764 6.58866 67.2039 6.58866ZM73.2535 5.00291C73.2535 2.03243 71.1328 0.0111679 67.7285 0.0111679H58.8104V15.5224H62.9514V10.1063H64.4359L69.1126 15.5224H74.3139L69.213 9.89415C71.769 9.35813 73.2535 7.43737 73.2535 5.00291ZM42.9944 15.5113H56.0535V12.0048H47.1354V9.45863H55.8414V5.95213H47.1354V3.5065H56.0535V0.0111679H42.9944V15.5113ZM29.8349 9.78248L26.3302 0.0111679H19.8565V15.5224H23.8858V4.36638L27.9151 15.5224H31.6319L35.7729 4.36638V15.5224H39.8022V0.0111679H33.3285L29.8349 9.78248ZM7.322 8.93377L9.4427 3.72985L11.5634 8.93377C11.5746 8.93377 7.322 8.93377 7.322 8.93377ZM6.7974 0.0111679L0 15.5224H4.56508L5.8375 12.3398H13.0591L14.4431 15.5224H19.1198L12.2219 0.0111679H6.7974Z" fill="#006FCF"/>
<path d="M123.046 25.3291H119.229C118.381 25.3291 117.845 24.7931 117.845 24.056C117.845 23.319 118.481 22.8835 119.229 22.8835H126.127L127.723 19.377H119.229C115.724 19.377 113.704 21.4987 113.704 24.2682C113.704 27.2387 115.613 28.9473 118.693 28.9473H122.511C123.359 28.9473 123.895 29.4833 123.895 30.2203C123.895 30.9685 123.359 31.4934 122.511 31.4934H114.229V34.9999H122.511C126.015 34.9999 128.036 32.9786 128.036 30.0081C128.036 27.0265 126.227 25.3291 123.046 25.3291ZM107.867 25.3291H104.049C103.201 25.3291 102.665 24.7931 102.665 24.056C102.665 23.319 103.302 22.8835 104.049 22.8835H110.947L112.543 19.377H104.049C100.545 19.377 98.5244 21.4987 98.5244 24.2682C98.5244 27.2387 100.433 28.9473 103.514 28.9473H107.331C108.179 28.9473 108.715 29.4833 108.715 30.2203C108.715 30.9685 108.179 31.4934 107.331 31.4934H99.049V34.9999H107.331C110.836 34.9999 112.856 32.9786 112.856 30.0081C112.856 27.0265 111.048 25.3291 107.867 25.3291ZM83.6572 34.8882H96.7162V31.3817H87.7981V28.8356H96.5042V25.3291H87.7981V22.8835H96.7162V19.3881H83.6572V34.8882ZM75.4757 25.9656H71.1227V22.8835H75.4757C76.7481 22.8835 77.3844 23.6317 77.3844 24.4804C77.2839 25.3291 76.6477 25.9656 75.4757 25.9656ZM81.5365 24.3799C81.5365 21.4094 79.4158 19.3881 76.0115 19.3881H67.0934V34.8994H71.2343V29.4833H72.7188L77.3955 34.8994H82.4964L77.3955 29.2711C79.9404 28.7351 81.5365 26.8143 81.5365 24.3799ZM59.2356 26.2895H54.771V22.8946H59.2356C60.508 22.8946 61.1442 23.6428 61.1442 24.592C61.0438 25.5413 60.4076 26.2895 59.2356 26.2895ZM59.6598 19.3881H50.63V34.8994H54.7821V29.796H59.5593C63.064 29.796 65.1847 27.5625 65.1847 24.592C65.1847 21.5099 63.064 19.3881 59.6598 19.3881ZM49.8934 19.3881H44.5804L40.5511 24.0672L36.5106 19.3881H31.0973L37.8946 27.0377L30.9968 34.8994H36.3097L40.4507 30.0081L44.7032 34.8994H50.1166L43.1071 26.9372L49.8934 19.3881ZM17.3015 34.8882H30.3606V31.3817H21.4425V28.8356H30.1485V25.3291H21.4425V22.8835H30.3606V19.3881H17.3015V34.8882Z" fill="#006FCF"/>
</svg>
