<svg width="61" height="35" viewBox="0 0 61 35" fill="none" xmlns="http://www.w3.org/2000/svg">
<path d="M55.5372 0H5.46283C5.25428 0 5.04536 0 4.83718 0.00108998C4.6612 0.00221299 4.48563 0.00396357 4.31006 0.00825744C3.92715 0.0175388 3.54097 0.037786 3.16285 0.0986929C2.77869 0.160657 2.42122 0.261728 2.07247 0.420865C1.72963 0.577129 1.41575 0.781517 1.14374 1.02541C0.871609 1.2693 0.643561 1.55015 0.469244 1.85776C0.291648 2.17032 0.178803 2.49081 0.110146 2.83537C0.0418234 3.17436 0.0190812 3.52041 0.00876224 3.86322C0.00404502 4.02058 0.00202177 4.17793 0.000875635 4.33525C-0.000340525 4.52223 6.48618e-05 4.70908 6.48618e-05 4.89639V30.104C6.48618e-05 30.2913 -0.000340525 30.4778 0.000875635 30.6651C0.00202177 30.8225 0.00404502 30.9798 0.00876224 31.1372C0.0190812 31.4797 0.0418234 31.8257 0.110146 32.1646C0.178803 32.5093 0.291648 32.8297 0.469244 33.1423C0.643561 33.4499 0.871609 33.7311 1.14374 33.9746C1.41575 34.2189 1.72963 34.4233 2.07247 34.5791C2.42122 34.7387 2.77869 34.8398 3.16285 34.9017C3.54097 34.9622 3.92715 34.9829 4.31006 34.9921C4.48563 34.9957 4.6612 34.9978 4.83718 34.9985C5.04536 35 5.25428 35 5.46283 35H55.5372C55.7454 35 55.9543 35 56.1625 34.9985C56.3381 34.9978 56.5136 34.9957 56.69 34.9921C57.0721 34.9829 57.4582 34.9622 57.8372 34.9017C58.2209 34.8398 58.5784 34.7387 58.9272 34.5791C59.2704 34.4233 59.5834 34.2189 59.856 33.9746C60.1276 33.7311 60.3557 33.4499 60.5305 33.1423C60.7085 32.8297 60.8212 32.5093 60.8895 32.1646C60.9579 31.8257 60.9801 31.4797 60.9904 31.1372C60.9952 30.9798 60.9976 30.8225 60.9984 30.6651C61 30.4778 61 30.2913 61 30.104V4.89639C61 4.70908 61 4.52223 60.9984 4.33525C60.9976 4.17793 60.9952 4.02058 60.9904 3.86322C60.9801 3.52041 60.9579 3.17436 60.8895 2.83537C60.8212 2.49081 60.7085 2.17032 60.5305 1.85776C60.3557 1.55015 60.1276 1.2693 59.856 1.02541C59.5834 0.781517 59.2704 0.577129 58.9272 0.420865C58.5784 0.261728 58.2209 0.160657 57.8372 0.0986929C57.4582 0.037786 57.0721 0.0175388 56.69 0.00825744C56.5136 0.00396357 56.3381 0.00221299 56.1625 0.00108998C55.9543 0 55.7454 0 55.5372 0Z" fill="white"/>
<path d="M55.5373 1.1665L56.1533 1.16756C56.3202 1.16862 56.4871 1.17024 56.6549 1.17433C56.9467 1.1814 57.2882 1.19557 57.6064 1.2467C57.8831 1.29136 58.1151 1.35927 58.3378 1.46086C58.5576 1.56098 58.759 1.69217 58.9349 1.84956C59.1114 2.008 59.258 2.18881 59.3712 2.38801C59.4839 2.58602 59.5592 2.79299 59.6087 3.04276C59.6656 3.3249 59.6814 3.63174 59.6894 3.89496C59.6938 4.04353 59.696 4.19209 59.6969 4.3442C59.6984 4.52814 59.6984 4.71198 59.6984 4.89629V30.1039C59.6984 30.2882 59.6984 30.4717 59.6968 30.6596C59.6961 30.8081 59.6938 30.9567 59.6893 31.1055C59.6813 31.3683 59.6656 31.675 59.608 31.9605C59.5592 32.2068 59.4839 32.4138 59.3706 32.6128C59.2577 32.8115 59.1114 32.9921 58.9356 33.1496C58.7588 33.3081 58.558 33.4389 58.3356 33.5399C58.1146 33.641 57.8829 33.7089 57.609 33.7531C57.2843 33.8049 56.9286 33.8192 56.6606 33.8257C56.4921 33.8291 56.3243 33.8312 56.1525 33.8319C55.9477 33.8333 55.7421 33.8333 55.5373 33.8333H5.4629C5.46018 33.8333 5.45752 33.8333 5.45476 33.8333C5.25229 33.8333 5.04941 33.8333 4.84325 33.8319C4.67516 33.8312 4.50744 33.8292 4.34529 33.8259C4.07125 33.8192 3.71528 33.805 3.39322 33.7534C3.11693 33.7089 2.88531 33.641 2.66139 33.5386C2.44105 33.4385 2.24045 33.3078 2.06352 33.149C1.88795 32.9919 1.74204 32.8118 1.62924 32.6128C1.51632 32.414 1.44077 32.2064 1.39109 31.9571C1.33367 31.6722 1.3179 31.3668 1.31002 31.1057C1.30552 30.9563 1.30364 30.8068 1.30257 30.6583L1.30176 30.2197L1.30179 30.1039V4.89629L1.30176 4.78049L1.30253 4.34281C1.30364 4.19335 1.30552 4.04392 1.31002 3.8946C1.3179 3.6333 1.33367 3.32771 1.39157 3.04041C1.44081 2.79338 1.51632 2.58576 1.62983 2.38596C1.74175 2.18848 1.88791 2.0082 2.0644 1.85005C2.24019 1.69244 2.44145 1.56141 2.66319 1.46034C2.88472 1.35923 3.11678 1.29136 3.39307 1.2468C3.71141 1.19554 4.05308 1.1814 4.34569 1.1743C4.51249 1.17024 4.67929 1.16862 4.84484 1.16759L5.4629 1.1665H55.5373Z" fill="white"/>
<path d="M16.6528 11.7722C17.1751 11.1867 17.5295 10.4005 17.436 9.59717C16.6714 9.63124 15.7384 10.0492 15.1982 10.6352C14.7132 11.137 14.284 11.9561 14.3959 12.7258C15.2541 12.7925 16.1116 12.3413 16.6528 11.7722Z" fill="black"/>
<path d="M17.4262 12.876C16.1798 12.8095 15.12 13.51 14.5248 13.51C13.9293 13.51 13.0178 12.9096 12.0319 12.9258C10.7488 12.9426 9.55816 13.5929 8.90702 14.627C7.56773 16.6959 8.55358 19.7647 9.85597 21.4497C10.4884 22.2833 11.2507 23.2012 12.255 23.1682C13.204 23.1348 13.5759 22.6175 14.7294 22.6175C15.8821 22.6175 16.2171 23.1682 17.2216 23.1515C18.2633 23.1348 18.9146 22.3175 19.5471 21.4831C20.2726 20.5328 20.5696 19.6152 20.5883 19.5649C20.5696 19.5482 18.5796 18.864 18.5612 16.8123C18.5424 15.0944 20.1236 14.2773 20.198 14.2266C19.3051 13.043 17.9099 12.9096 17.4262 12.876Z" fill="black"/>
<path d="M28.2792 10.5513C30.9883 10.5513 32.8747 12.2249 32.8747 14.6616C32.8747 17.107 30.9494 18.7894 28.2113 18.7894H25.2118V23.0645H23.0447V10.5513L28.2792 10.5513ZM25.2118 17.159H27.6984C29.5852 17.159 30.659 16.2486 30.659 14.6703C30.659 13.0922 29.5852 12.1903 27.7081 12.1903H25.2118V17.159Z" fill="black"/>
<path d="M33.4409 20.4719C33.4409 18.8762 34.8052 17.8964 37.2242 17.775L40.0106 17.6276V16.9253C40.0106 15.9106 39.2461 15.3036 37.9692 15.3036C36.7595 15.3036 36.0048 15.8238 35.8212 16.6391H33.8474C33.9635 14.9913 35.5308 13.7773 38.0465 13.7773C40.5137 13.7773 42.0907 14.948 42.0907 16.7777V23.0647H40.0878V21.5645H40.0397C39.4496 22.5791 38.1626 23.2207 36.8274 23.2207C34.8343 23.2207 33.4409 22.1108 33.4409 20.4719ZM40.0106 19.6481V18.9284L37.5045 19.0671C36.2564 19.1452 35.5502 19.6394 35.5502 20.4199C35.5502 21.2176 36.2855 21.7379 37.4079 21.7379C38.8688 21.7379 40.0106 20.8361 40.0106 19.6481Z" fill="black"/>
<path d="M43.9816 26.4205V24.9029C44.1362 24.9375 44.4844 24.9375 44.6587 24.9375C45.6262 24.9375 46.1487 24.5734 46.4679 23.6369C46.4679 23.6195 46.6519 23.0819 46.6519 23.0732L42.9753 13.9419H45.2391L47.8131 21.3649H47.8515L50.4255 13.9419H52.6314L48.819 23.5413C47.9486 25.7527 46.9423 26.4638 44.833 26.4638C44.6587 26.4638 44.1362 26.4464 43.9816 26.4205Z" fill="black"/>
</svg>
