<svg xmlns="http://www.w3.org/2000/svg" fill="none" viewBox="0 0 76 35" class="h-[35px]">
    <path fill="#fff" d="M34.492 18.097v8.543h-2.737V5.512h7.117c1.734 0 3.377.643 4.654 1.837 1.278 1.102 1.916 2.756 1.916 4.501s-.638 3.307-1.916 4.502c-1.277 1.194-2.829 1.837-4.654 1.837zm0-10.013v7.349h4.563c1.004 0 2.007-.367 2.646-1.102a3.54 3.54 0 0 0 .091-5.053l-.09-.092c-.73-.735-1.643-1.194-2.647-1.102zM51.739 11.758c2.007 0 3.558.552 4.745 1.654 1.186 1.102 1.733 2.572 1.733 4.41v8.818h-2.555v-2.02h-.09c-1.096 1.653-2.647 2.48-4.472 2.48-1.551 0-2.92-.46-4.015-1.378-1.004-.92-1.643-2.205-1.643-3.583q0-2.205 1.643-3.583c1.095-.918 2.646-1.286 4.471-1.286 1.643 0 2.92.276 3.924.919v-.643c0-.919-.365-1.838-1.095-2.389a3.96 3.96 0 0 0-2.646-1.01q-2.327 0-3.56 1.929l-2.372-1.47c1.46-1.93 3.377-2.848 5.932-2.848M48.27 22.231c0 .735.365 1.378.913 1.745.638.46 1.368.735 2.098.735 1.095 0 2.19-.46 3.012-1.286.912-.827 1.368-1.837 1.368-2.94-.82-.643-2.007-1.01-3.558-1.01q-1.643 0-2.738.827-1.095.689-1.095 1.929M73 12.218 63.966 33.07H61.23l3.376-7.257-5.931-13.504h2.92l4.289 10.38h.09l4.198-10.38h2.83z"></path>
    <path fill="#4285F4" d="M23.634 16.26c0-.827-.092-1.654-.183-2.48H12.045v4.684h6.479c-.274 1.47-1.095 2.848-2.373 3.675v3.031h3.924c2.281-2.113 3.559-5.236 3.559-8.91"></path>
    <path fill="#34A853" d="M12.045 28.11c3.285 0 6.023-1.102 8.03-2.94l-3.924-3.031c-1.095.735-2.463 1.194-4.106 1.194-3.102 0-5.84-2.113-6.752-5.052H1.278v3.123c2.098 4.134 6.205 6.706 10.767 6.706"></path>
    <path fill="#FBBC04" d="M5.293 18.281c-.548-1.47-.548-3.123 0-4.685v-3.123H1.278c-1.734 3.399-1.734 7.44 0 10.931z"></path>
    <path fill="#EA4335" d="M12.045 8.635c1.734 0 3.376.643 4.654 1.838l3.467-3.491c-2.19-2.021-5.11-3.215-8.03-3.124-4.562 0-8.76 2.573-10.767 6.707l4.015 3.123c.82-2.94 3.558-5.053 6.66-5.053"></path>
  <defs>
    <clipPath id="a">
      <path fill="#fff" d="M0 0h76v35H0z"></path>
    </clipPath>
  </defs>
</svg>