<svg width="57" height="35" viewBox="0 0 57 35" fill="none" xmlns="http://www.w3.org/2000/svg">
<path d="M35.9699 31.2584H20.6573V3.74158H35.9699V31.2584Z" fill="#FF5F00"/>
<path d="M21.6295 17.5C21.6295 11.9175 24.2433 6.94604 28.3135 3.7416C25.3366 1.39805 21.5809 0 17.4985 0C7.83416 0 0 7.83514 0 17.5C0 27.1649 7.83416 35 17.4985 35C21.5809 35 25.3366 33.6019 28.3135 31.2584C24.2433 28.054 21.6295 23.0825 21.6295 17.5Z" fill="#FF0015"/>
<path d="M56.6271 17.5C56.6271 27.1649 48.7925 35 39.1286 35C35.0462 35 31.29 33.6019 28.3135 31.2584C32.3837 28.054 34.9976 23.0825 34.9976 17.5C34.9976 11.9175 32.3837 6.94604 28.3135 3.7416C31.29 1.39805 35.0462 0 39.1286 0C48.7925 0 56.6271 7.83514 56.6271 17.5Z" fill="#FF9F00"/>
</svg>
