<svg width="200" height="35" viewBox="0 0 200 35" fill="none" xmlns="http://www.w3.org/2000/svg">
<path d="M35.9699 31.2584H20.6573V3.74158H35.9699V31.2584Z" fill="#FF5F00"/>
<path d="M21.6295 17.5C21.6295 11.9175 24.2433 6.94604 28.3135 3.7416C25.3366 1.39805 21.5809 0 17.4985 0C7.83416 0 0 7.83514 0 17.5C0 27.1649 7.83416 35 17.4985 35C21.5809 35 25.3366 33.6019 28.3135 31.2584C24.2433 28.054 21.6295 23.0825 21.6295 17.5Z" fill="#FF0015"/>
<path d="M56.6271 17.5C56.6271 27.1649 48.7925 35 39.1286 35C35.0462 35 31.29 33.6019 28.3135 31.2584C32.3837 28.054 34.9976 23.0825 34.9976 17.5C34.9976 11.9175 32.3837 6.94604 28.3135 3.7416C31.29 1.39805 35.0462 0 39.1286 0C48.7925 0 56.6271 7.83514 56.6271 17.5Z" fill="#FF9F00"/>
<path d="M91.5781 17.5757C91.5781 15.5307 92.9173 13.8507 95.1087 13.8507C97.2024 13.8507 98.6145 15.4573 98.6145 17.5757C98.6145 19.6937 97.2024 21.3008 95.1087 21.3008C92.9173 21.3008 91.5781 19.6208 91.5781 17.5757ZM101 11.7565H98.4682V13.1687C97.6647 12.1221 96.4474 11.4644 94.7917 11.4644C91.5295 11.4644 88.973 14.0213 88.973 17.5757C88.973 21.1307 91.5295 23.6871 94.7917 23.6871C96.4474 23.6871 97.6647 23.0299 98.4682 21.9828V23.395H101V11.7565ZM186.51 17.5757C186.51 15.5307 187.849 13.8507 190.04 13.8507C192.134 13.8507 193.546 15.4573 193.546 17.5757C193.546 19.6937 192.134 21.3008 190.04 21.3008C187.849 21.3008 186.51 19.6208 186.51 17.5757ZM198.765 22.8423V23.025H198.934C198.972 23.025 199.003 23.0178 199.026 23.0027C199.049 22.9876 199.06 22.9643 199.06 22.9327C199.06 22.9025 199.049 22.8802 199.026 22.8651C199.003 22.85 198.972 22.8423 198.934 22.8423H198.765ZM198.935 22.7139C199.023 22.7139 199.091 22.7334 199.139 22.7728C199.187 22.8116 199.21 22.8651 199.21 22.9327C199.21 22.9896 199.191 23.0362 199.153 23.0732C199.116 23.1101 199.062 23.1325 198.992 23.1407L199.216 23.3998H199.04L198.832 23.1427H198.765V23.3998H198.619V22.7139H198.935ZM198.892 23.6351C198.972 23.6351 199.046 23.62 199.115 23.5899C199.184 23.5598 199.244 23.5189 199.295 23.4669C199.347 23.4149 199.388 23.3541 199.418 23.2841C199.448 23.2141 199.462 23.1393 199.462 23.0596C199.462 22.9798 199.448 22.905 199.418 22.835C199.388 22.765 199.347 22.7042 199.295 22.6522C199.244 22.6002 199.184 22.5598 199.115 22.5302C199.046 22.5005 198.972 22.4855 198.892 22.4855C198.811 22.4855 198.735 22.5005 198.664 22.5302C198.594 22.5598 198.533 22.6002 198.481 22.6522C198.429 22.7042 198.388 22.765 198.359 22.835C198.329 22.905 198.314 22.9798 198.314 23.0596C198.314 23.1393 198.329 23.2141 198.359 23.2841C198.388 23.3541 198.429 23.4149 198.481 23.4669C198.533 23.5189 198.594 23.5598 198.664 23.5899C198.735 23.62 198.811 23.6351 198.892 23.6351ZM198.892 22.3212C198.996 22.3212 199.093 22.3401 199.184 22.379C199.275 22.4174 199.355 22.4704 199.423 22.5375C199.491 22.6041 199.545 22.6828 199.584 22.7728C199.624 22.8627 199.643 22.958 199.643 23.0596C199.643 23.1612 199.624 23.2564 199.584 23.3454C199.545 23.4348 199.491 23.5131 199.423 23.5802C199.355 23.6473 199.275 23.7003 199.184 23.7391C199.093 23.7785 198.996 23.798 198.892 23.798C198.785 23.798 198.686 23.7785 198.594 23.7391C198.502 23.7003 198.422 23.6473 198.354 23.5802C198.287 23.5131 198.233 23.4348 198.194 23.3454C198.155 23.2564 198.135 23.1612 198.135 23.0596C198.135 22.958 198.155 22.8627 198.194 22.7728C198.233 22.6828 198.287 22.6041 198.354 22.5375C198.422 22.4704 198.502 22.4174 198.594 22.379C198.686 22.3401 198.785 22.3212 198.892 22.3212ZM195.932 7.08206H193.4V13.1687C192.597 12.1221 191.38 11.4644 189.724 11.4644C186.461 11.4644 183.905 14.0213 183.905 17.5757C183.905 21.1307 186.461 23.6871 189.724 23.6871C191.38 23.6871 192.597 23.0299 193.4 21.9828V23.395H195.932V7.08206ZM132.409 13.7291C134.04 13.7291 135.087 14.7514 135.355 16.5534H129.317C129.585 14.8734 130.607 13.7291 132.409 13.7291ZM132.458 11.4644C129.049 11.4644 126.663 13.9479 126.663 17.5757C126.663 21.2765 129.147 23.6871 132.628 23.6871C134.381 23.6871 135.988 23.2487 137.4 22.0557L136.159 20.1808C135.185 20.96 133.943 21.3985 132.775 21.3985C131.143 21.3985 129.658 20.6436 129.293 18.5494H137.936C137.96 18.233 137.985 17.917 137.985 17.5757C137.96 13.9479 135.72 11.4644 132.458 11.4644ZM163.014 17.5757C163.014 15.5307 164.353 13.8507 166.545 13.8507C168.639 13.8507 170.051 15.4573 170.051 17.5757C170.051 19.6937 168.639 21.3008 166.545 21.3008C164.353 21.3008 163.014 19.6208 163.014 17.5757ZM172.437 11.7565H169.905V13.1687C169.101 12.1221 167.884 11.4644 166.228 11.4644C162.965 11.4644 160.409 14.0213 160.409 17.5757C160.409 21.1307 162.965 23.6871 166.228 23.6871C167.884 23.6871 169.101 23.0299 169.905 21.9828V23.395H172.437V11.7565ZM148.722 17.5757C148.722 21.1064 151.181 23.6871 154.931 23.6871C156.684 23.6871 157.853 23.2978 159.118 22.2993L157.901 20.2542C156.952 20.9357 155.953 21.3008 154.858 21.3008C152.837 21.2765 151.352 19.8157 151.352 17.5757C151.352 15.3357 152.837 13.875 154.858 13.8507C155.953 13.8507 156.952 14.2157 157.901 14.8978L159.118 12.8522C157.853 11.8542 156.684 11.4644 154.931 11.4644C151.181 11.4644 148.722 14.0451 148.722 17.5757ZM181.348 11.4644C179.887 11.4644 178.938 12.1464 178.28 13.1687V11.7565H175.773V23.395H178.305V16.8694C178.305 14.9464 179.133 13.875 180.788 13.875C181.3 13.875 181.835 13.9479 182.371 14.1671L183.15 11.7813C182.59 11.5621 181.86 11.4644 181.348 11.4644ZM113.515 12.6821C112.298 11.8785 110.618 11.4644 108.767 11.4644C105.821 11.4644 103.922 12.8765 103.922 15.1894C103.922 17.0891 105.335 18.2578 107.94 18.6228L109.133 18.7934C110.52 18.9879 111.178 19.353 111.178 20.0107C111.178 20.9114 110.253 21.4228 108.524 21.4228C106.771 21.4228 105.505 20.8628 104.653 20.2056L103.46 22.1773C104.847 23.2 106.601 23.6871 108.5 23.6871C111.86 23.6871 113.807 22.1044 113.807 19.8887C113.807 17.8436 112.274 16.7722 109.741 16.4071L108.548 16.2365C107.453 16.0907 106.576 15.8714 106.576 15.0927C106.576 14.24 107.404 13.7291 108.792 13.7291C110.277 13.7291 111.714 14.2891 112.42 14.7271L113.515 12.6821ZM146.165 11.4644C144.705 11.4644 143.755 12.1464 143.098 13.1687V11.7565H140.59V23.395H143.122V16.8694C143.122 14.9464 143.95 13.875 145.606 13.875C146.117 13.875 146.653 13.9479 147.188 14.1671L147.967 11.7813C147.407 11.5621 146.677 11.4644 146.165 11.4644ZM124.569 11.7565H120.43V8.22637H117.874V11.7565H115.512V14.0699H117.874V19.3773C117.874 22.08 118.92 23.6871 121.915 23.6871C123.011 23.6871 124.277 23.3459 125.08 22.7864L124.35 20.6193C123.595 21.0578 122.767 21.2765 122.11 21.2765C120.844 21.2765 120.43 20.4973 120.43 19.3291V14.0699H124.569V11.7565ZM86.733 23.395V16.0907C86.733 13.3393 84.9796 11.4887 82.1553 11.4644C80.6702 11.44 79.1365 11.9028 78.0652 13.5342C77.2616 12.2436 75.9953 11.4644 74.2181 11.4644C72.9761 11.4644 71.7588 11.8299 70.8095 13.1934V11.7565H68.2773V23.395H70.8338V16.9428C70.8338 14.9221 71.9538 13.8507 73.6824 13.8507C75.3624 13.8507 76.2145 14.9464 76.2145 16.9185V23.395H78.771V16.9428C78.771 14.9221 79.9401 13.8507 81.6196 13.8507C83.3482 13.8507 84.1761 14.9464 84.1761 16.9185V23.395H86.733Z" fill="white"/>
</svg>
