<svg width="104" height="35" viewBox="0 0 104 35" fill="none" xmlns="http://www.w3.org/2000/svg">
<path d="M103.928 0.00439453V26.1447H98.0034V0.00439453H103.928Z" fill="white"/>
<path d="M95.8176 8.81879V26.1807H90.5491V24.6865C89.8847 25.3362 89.123 25.8315 88.2773 26.1807C87.4279 26.5502 86.5093 26.737 85.5223 26.737C84.2817 26.737 83.134 26.5055 82.0791 26.0427C81.0235 25.5554 80.1049 24.8977 79.324 24.0653C78.5424 23.2329 77.9222 22.2585 77.4632 21.15C77.0279 20.0172 76.8105 18.799 76.8105 17.5038C76.8105 16.2086 77.0279 15.0027 77.4632 13.8942C77.9222 12.7614 78.5424 11.7747 79.324 10.9424C80.1049 10.11 81.0235 9.46029 82.0791 8.99741C83.134 8.51023 84.2817 8.2666 85.5223 8.2666C86.5093 8.2666 87.4279 8.45335 88.2773 8.82285C89.1274 9.17204 89.8847 9.66741 90.5491 10.317V8.82285H95.8176V8.81879ZM86.4813 21.4586C87.5605 21.4586 88.4424 21.0891 89.1311 20.346C89.8442 19.607 90.1985 18.657 90.1985 17.4997C90.1985 16.3425 89.8442 15.3925 89.1311 14.6535C88.4424 13.9145 87.5568 13.5409 86.4813 13.5409C85.4058 13.5409 84.5078 13.9104 83.7947 14.6535C83.106 15.3925 82.7597 16.3425 82.7597 17.4997C82.7597 18.657 83.106 19.607 83.7947 20.346C84.5078 21.085 85.4015 21.4586 86.4813 21.4586Z" fill="white"/>
<path d="M68.3623 0C69.9255 0 71.2544 0.219258 72.3579 0.657775C73.4615 1.09629 74.3918 1.7094 75.1491 2.4971C75.9307 3.30916 76.5385 4.23492 76.9738 5.27436C77.4085 6.31787 77.6264 7.4385 77.6264 8.64444C77.6264 9.85038 77.4085 10.971 76.9738 12.0145C76.5385 13.058 75.9307 13.9837 75.1491 14.7917C74.3918 15.5795 73.4615 16.1926 72.3579 16.6311C71.2544 17.0696 69.9255 17.2889 68.3623 17.2889H65.5027V26.1769H59.4731V0H68.3586H68.3623ZM67.5004 11.9089C68.3063 11.9089 68.9222 11.8277 69.3612 11.6653C69.8202 11.4786 70.1988 11.2471 70.4971 10.971C71.1174 10.3904 71.4275 9.61488 71.4275 8.64444C71.4275 7.674 71.1174 6.8985 70.4971 6.31787C70.1988 6.04176 69.8202 5.81844 69.3612 5.66009C68.9266 5.47332 68.3063 5.38399 67.5004 5.38399H65.5027V11.913H67.5004V11.9089Z" fill="white"/>
<path d="M37.2672 8.81885H43.8123L48.255 17.1506H48.3234L52.2827 8.81885H58.3445L45.359 34.9998H39.3294L45.2543 23.0218L37.2632 8.81885H37.2672Z" fill="white"/>
<path d="M36.0939 8.81879V26.1807H30.8256V24.6865C30.161 25.3362 29.3998 25.8315 28.5539 26.1807C27.7041 26.5502 26.7858 26.737 25.7989 26.737C24.5584 26.737 23.4105 26.5055 22.3552 26.0427C21.3 25.5554 20.3816 24.8977 19.6002 24.0653C18.8189 23.2329 18.1986 22.2585 17.7394 21.15C17.3044 20.0172 17.0869 18.799 17.0869 17.5038C17.0869 16.2086 17.3044 15.0027 17.7394 13.8942C18.1986 12.7614 18.8189 11.7747 19.6002 10.9424C20.3816 10.11 21.3 9.46029 22.3552 8.99741C23.4105 8.51023 24.5584 8.2666 25.7989 8.2666C26.7858 8.2666 27.7041 8.45335 28.5539 8.82285C29.4038 9.17204 30.161 9.66741 30.8256 10.317V8.82285H36.0939V8.81879ZM26.7575 21.4586C27.837 21.4586 28.7191 21.0891 29.4118 20.346C30.1248 19.607 30.4792 18.657 30.4792 17.4997C30.4792 16.3425 30.1248 15.3925 29.4118 14.6535C28.7231 13.9145 27.837 13.5409 26.7575 13.5409C25.6781 13.5409 24.784 13.9104 24.071 14.6535C23.3823 15.3925 23.0359 16.3425 23.0359 17.4997C23.0359 18.657 23.3823 19.607 24.071 20.346C24.784 21.085 25.6781 21.4586 26.7575 21.4586Z" fill="white"/>
<path d="M8.88521 0C10.448 0 11.7772 0.219258 12.8808 0.657775C13.9844 1.09629 14.9148 1.7094 15.672 2.4971C16.4534 3.30916 17.0616 4.23492 17.4966 5.27436C17.9316 6.31787 18.1491 7.4385 18.1491 8.64444C18.1491 9.85038 17.9316 10.971 17.4966 12.0145C17.0616 13.058 16.4534 13.9837 15.672 14.7917C14.9148 15.5795 13.9844 16.1926 12.8808 16.6311C11.7772 17.0696 10.448 17.2889 8.88521 17.2889H6.02553V26.1769H0V0H8.88521ZM8.02731 11.9089C8.8329 11.9089 9.44912 11.8277 9.88816 11.6653C10.3473 11.4786 10.726 11.2471 11.024 10.971C11.6443 10.3904 11.9544 9.61488 11.9544 8.64444C11.9544 7.674 11.6443 6.8985 11.024 6.31787C10.726 6.04176 10.3473 5.81844 9.88816 5.66009C9.45317 5.47332 8.8329 5.38399 8.02731 5.38399H6.02956V11.913H8.02731V11.9089Z" fill="white"/>
</svg>
