<svg width="92" height="35" viewBox="0 0 92 35" fill="none" xmlns="http://www.w3.org/2000/svg">
<path d="M62.4544 19.878L63.369 20.1524C63.308 20.4116 63.2166 20.625 63.0794 20.7927C62.9422 20.9603 62.7897 21.0975 62.5916 21.1738C62.3934 21.2652 62.1495 21.311 61.8446 21.311C61.4787 21.311 61.1891 21.2652 60.9452 21.1585C60.7166 21.0518 60.5184 20.8689 60.3507 20.5945C60.183 20.3353 60.0916 19.9847 60.0916 19.5731C60.0916 19.0244 60.244 18.5975 60.5336 18.2927C60.8233 17.9878 61.2501 17.8506 61.7836 17.8506C62.2105 17.8506 62.5306 17.9421 62.7745 18.1097C63.0184 18.2774 63.2013 18.5366 63.308 18.9024L62.3934 19.1006C62.3629 18.9939 62.3324 18.9177 62.2867 18.8719C62.2257 18.7957 62.1647 18.7347 62.0733 18.689C61.9818 18.6433 61.8903 18.628 61.7989 18.628C61.5702 18.628 61.3873 18.7195 61.2653 18.9177C61.1739 19.0549 61.1281 19.2835 61.1281 19.5731C61.1281 19.939 61.1891 20.1981 61.2958 20.3353C61.4025 20.4725 61.5702 20.5488 61.7684 20.5488C61.9666 20.5488 62.119 20.4878 62.2105 20.3811C62.3324 20.2439 62.4086 20.0914 62.4544 19.878Z" fill="#225E63"/>
<path d="M63.7346 19.5733C63.7346 19.0245 63.8871 18.5976 64.1919 18.2928C64.4968 17.9879 64.9236 17.8354 65.4724 17.8354C66.0364 17.8354 66.4633 17.9879 66.7682 18.2775C67.073 18.5824 67.2255 18.994 67.2255 19.5428C67.2255 19.9391 67.1645 20.2592 67.0273 20.5031C66.8901 20.747 66.7072 20.9452 66.448 21.0824C66.2041 21.2196 65.884 21.2958 65.5182 21.2958C65.1371 21.2958 64.8322 21.2348 64.573 21.1129C64.3291 20.9909 64.131 20.808 63.9633 20.5336C63.7956 20.2592 63.7346 19.9696 63.7346 19.5733ZM64.7712 19.5733C64.7712 19.9086 64.8322 20.1525 64.9541 20.305C65.0761 20.4574 65.2438 20.5336 65.4724 20.5336C65.7011 20.5336 65.8688 20.4574 65.9907 20.3202C66.1127 20.1678 66.1736 19.9086 66.1736 19.5428C66.1736 19.2226 66.1127 18.994 65.9755 18.8568C65.8535 18.7044 65.6706 18.6434 65.4572 18.6434C65.2438 18.6434 65.0761 18.7196 64.9541 18.872C64.8322 18.994 64.7712 19.2379 64.7712 19.5733Z" fill="#225E63"/>
<path d="M67.7592 17.8965H69.116L69.6342 19.9392L70.1525 17.8965H71.5092V21.2501H70.6556V18.6892L70.0001 21.2501H69.2379L68.5824 18.6892V21.2501H67.7288V17.8965H67.7592Z" fill="#225E63"/>
<path d="M72.1799 17.8965H73.9025C74.2836 17.8965 74.558 17.9879 74.7409 18.1709C74.9238 18.3538 75.0153 18.5977 75.0153 18.9331C75.0153 19.2684 74.9086 19.5428 74.7104 19.7258C74.5122 19.9239 74.1921 20.0154 73.7805 20.0154H73.2165V21.2654H72.1799V17.8965ZM73.2165 19.3294H73.4757C73.6738 19.3294 73.811 19.2989 73.9025 19.2227C73.9787 19.1465 74.0244 19.0703 74.0244 18.9636C74.0244 18.8569 73.994 18.7654 73.9177 18.6892C73.8415 18.6129 73.7196 18.5825 73.5214 18.5825H73.2318V19.3294H73.2165Z" fill="#225E63"/>
<path d="M75.564 17.8965H76.6005V20.427H78.2164V21.2501H75.564V17.8965Z" fill="#225E63"/>
<path d="M78.7349 17.8965H79.7714V21.2501H78.7349V17.8965Z" fill="#225E63"/>
<path d="M82.5762 20.6857H81.4024L81.2347 21.2345H80.1829L81.4481 17.8809H82.5762L83.8414 21.2345H82.7591L82.5762 20.6857ZM82.3627 19.9693L81.9969 18.765L81.631 19.9693H82.3627Z" fill="#225E63"/>
<path d="M84.1616 17.8965H85.122L86.3872 19.7562V17.8965H87.3628V21.2501H86.3872L85.1372 19.4056V21.2501H84.1616V17.8965Z" fill="#225E63"/>
<path d="M87.8201 17.8965H90.9755V18.7197H89.9237V21.2501H88.8871V18.7197H87.8353V17.8965H87.8201Z" fill="#225E63"/>
<path d="M49.9848 23.003L52.9878 22.0579L52.0122 19.8933C51.2957 20.7927 50.5793 21.9512 49.9848 23.003ZM48.9634 13.1098L43.0793 0L0 2.43902L11.936 35L34.9085 27.7591C33.4451 25.6555 32.9116 23.1555 34.6037 21.936C36.4939 20.564 39.3445 22.1494 41.1585 24.3902C42.9116 21.4634 47.8354 14.6494 48.9634 13.1098Z" fill="#225E63"/>
<path d="M41.7371 9.47397C43.5358 9.47397 44.9992 8.10201 44.9992 6.3947C44.9992 4.68738 43.5358 3.31543 41.7371 3.31543C39.9383 3.31543 38.4749 4.68738 38.4749 6.3947C38.4749 8.08677 39.9383 9.47397 41.7371 9.47397ZM39.0694 10.8002H44.4047V24.7484H39.0694V10.8002Z" fill="#FEFEFE"/>
<path d="M36.4322 14.8703C36.478 14.8855 36.5085 14.8703 36.5085 14.8246V11.288C36.5085 11.2423 36.478 11.1965 36.4322 11.166C36.4322 11.166 35.731 10.7087 33.5969 10.5868C33.4902 10.5258 31.6152 10.5105 31.1121 10.5868C23.3377 11.2118 23.0481 16.8368 23.0481 17.0807V18.4526C23.0481 18.6203 23.0481 24.3673 31.1121 24.8703C31.9048 24.9313 33.4444 24.8703 33.5969 24.8703C35.4566 24.8703 36.7371 24.3063 36.7371 24.3063C36.7829 24.291 36.8133 24.2453 36.8133 24.1996V20.8916C36.8133 20.8459 36.7829 20.8307 36.7524 20.8612C36.7524 20.8612 36.1731 21.3185 33.6426 21.5776C32.9261 21.6538 32.5755 21.6233 32.3164 21.5776C28.7188 20.9679 28.5511 18.3459 28.5511 18.3459C28.5511 18.3002 28.5359 18.224 28.5359 18.1935V17.1874C28.5359 17.1416 28.5359 17.0654 28.5511 17.0349C28.5511 17.0349 28.795 14.2148 32.3164 13.9099H33.6426C35.1822 14.1081 36.4322 14.8703 36.4322 14.8703Z" fill="#FEFEFE"/>
<path d="M8.23096 24.7025C8.23096 24.7482 8.26144 24.7787 8.30718 24.7787H13.5053C13.5511 24.7787 13.5816 24.7482 13.5816 24.7025V20.6476C13.5816 20.6019 13.6121 20.5714 13.6578 20.5714C13.6578 20.5714 21.9657 21.1659 21.9657 15.6019C21.9657 11.1964 16.7523 10.7238 15.045 10.8C15.0145 10.8 8.30718 10.8 8.30718 10.8C8.26144 10.8 8.23096 10.8305 8.23096 10.8763V24.7025ZM13.4901 17.4769V13.8336H14.7706C14.7706 13.8336 16.6151 13.9098 16.7675 15.175C16.798 15.2665 16.798 15.8915 16.7675 15.922C16.5236 17.4006 14.923 17.4769 14.923 17.4769H13.4901Z" fill="#FEFEFE"/>
<path d="M41.8902 31.4785C42.317 31.4785 42.6524 31.4785 43.2012 31.2346C45.0914 30.2438 51.4786 14.6493 58.2164 9.84742C58.2621 9.81693 58.3079 9.7712 58.3383 9.72547C58.3841 9.6645 58.3841 9.60352 58.3841 9.60352C58.3841 9.60352 58.3841 9.2834 57.3932 9.2834C51.4024 9.11572 45.1676 21.6919 41.8902 26.6614C41.8444 26.7224 41.631 26.6614 41.631 26.6614C41.631 26.6614 39.4359 24.07 37.5304 23.0791C37.4847 23.0639 37.2713 22.9877 37.0426 23.0029C36.8902 23.0029 36.006 23.1858 35.5944 23.6127C35.1066 24.131 35.1219 24.4206 35.1219 25.0456C35.1219 25.0913 35.1524 25.3047 35.2133 25.4114C35.6859 26.2346 37.8048 29.1614 39.5579 30.7773C39.817 30.9755 40.2286 31.4785 41.8902 31.4785Z" fill="#2BBC5D"/>
<path d="M59.9849 5.13721H64.9696C65.9605 5.13721 66.7532 5.2744 67.3477 5.53355C67.9574 5.80794 68.4605 6.18904 68.8416 6.67684C69.2379 7.17989 69.5275 7.75916 69.6952 8.41465C69.8782 9.07013 69.9696 9.77135 69.9696 10.5183C69.9696 11.6768 69.8324 12.5762 69.5733 13.2165C69.3141 13.8567 68.9483 14.3903 68.4757 14.8323C68.0032 15.2592 67.5001 15.5488 66.9666 15.7012C66.2349 15.8994 65.5641 15.9909 64.9696 15.9909H59.9849V5.13721ZM63.3385 7.59148V13.5214H64.1617C64.8629 13.5214 65.366 13.4451 65.6556 13.2927C65.9452 13.1403 66.1891 12.8659 66.3568 12.4848C66.5245 12.1037 66.616 11.4634 66.616 10.5945C66.616 9.43599 66.433 8.65855 66.0519 8.23172C65.6708 7.80489 65.0611 7.59148 64.1769 7.59148H63.3385Z" fill="#225E63"/>
<path d="M70.8994 12.4085L74.1006 12.2103C74.1769 12.7286 74.3141 13.1249 74.5275 13.3993C74.8781 13.8414 75.3659 14.0548 76.0061 14.0548C76.4787 14.0548 76.8598 13.9481 77.1189 13.7195C77.3781 13.4908 77.5153 13.2317 77.5153 12.942C77.5153 12.6676 77.3933 12.4085 77.1494 12.1798C76.9055 11.9512 76.3262 11.753 75.4269 11.5548C73.9482 11.2195 72.9116 10.7774 72.2714 10.2286C71.6311 9.67982 71.3262 8.9786 71.3262 8.12494C71.3262 7.56092 71.4939 7.04263 71.814 6.53958C72.1342 6.03653 72.622 5.65543 73.2775 5.36579C73.933 5.07616 74.8171 4.93896 75.9451 4.93896C77.3323 4.93896 78.3994 5.19811 79.1159 5.7164C79.8476 6.2347 80.2744 7.05787 80.4116 8.18592L77.2409 8.36885C77.1494 7.88104 76.9817 7.53043 76.7073 7.30177C76.433 7.07311 76.0671 6.9664 75.5945 6.9664C75.1982 6.9664 74.9086 7.04262 74.7104 7.21031C74.5122 7.37799 74.4208 7.57616 74.4208 7.82006C74.4208 7.98775 74.497 8.15543 74.6647 8.29263C74.8171 8.42982 75.1982 8.56701 75.7927 8.68896C77.2561 9.00909 78.308 9.32921 78.9482 9.64933C79.5884 9.96945 80.0458 10.381 80.3354 10.8536C80.625 11.3262 80.7622 11.8749 80.7622 12.4695C80.7622 13.1707 80.564 13.8109 80.183 14.3902C79.8019 14.9847 79.2531 15.4268 78.5671 15.7316C77.8811 16.0365 76.997 16.189 75.9451 16.189C74.1006 16.189 72.8201 15.8384 72.1037 15.1219C71.4025 14.4054 71.0061 13.506 70.8994 12.4085Z" fill="#225E63"/>
<path d="M81.6157 12.4085L84.8169 12.2103C84.8932 12.7286 85.0304 13.1249 85.2438 13.3993C85.5944 13.8414 86.0822 14.0548 86.7224 14.0548C87.195 14.0548 87.5761 13.9481 87.8352 13.7195C88.0944 13.4908 88.2316 13.2317 88.2316 12.942C88.2316 12.6676 88.1096 12.4085 87.8657 12.1798C87.6218 11.9512 87.0426 11.753 86.1432 11.5548C84.6645 11.2195 83.6279 10.7774 82.9877 10.2286C82.3627 9.67982 82.0426 8.9786 82.0426 8.12494C82.0426 7.56092 82.2102 7.04263 82.5304 6.53958C82.8505 6.03653 83.3383 5.65543 83.9938 5.36579C84.6493 5.07616 85.5334 4.93896 86.6615 4.93896C88.0486 4.93896 89.1157 5.19811 89.8322 5.7164C90.5639 6.2347 90.9907 7.05787 91.1279 8.18592L87.9572 8.36885C87.8657 7.88104 87.698 7.53043 87.4236 7.30177C87.1493 7.07311 86.7834 6.9664 86.3108 6.9664C85.9145 6.9664 85.6249 7.04262 85.4267 7.21031C85.2285 7.37799 85.1371 7.57616 85.1371 7.82006C85.1371 7.98775 85.2133 8.15543 85.381 8.29263C85.5334 8.42982 85.9145 8.56701 86.509 8.68896C87.9724 9.00909 89.0243 9.32921 89.6645 9.64933C90.3047 9.96945 90.7621 10.381 91.0517 10.8536C91.3413 11.3262 91.4785 11.8749 91.4785 12.4695C91.4785 13.1707 91.2804 13.8109 90.8993 14.3902C90.5182 14.9847 89.9694 15.4268 89.2834 15.7316C88.5974 16.0365 87.7133 16.189 86.6615 16.189C84.8169 16.189 83.5364 15.8384 82.82 15.1219C82.1035 14.4054 81.7072 13.506 81.6157 12.4085Z" fill="#225E63"/>
</svg>
