<svg width="95" height="35" viewBox="0 0 95 35" fill="none" xmlns="http://www.w3.org/2000/svg">
<path fill-rule="evenodd" clip-rule="evenodd" d="M0 17.2666H25.0764V35H0V17.2666ZM7.11386 26.5105L11.233 30.6423L18.4669 23.389L16.7091 21.6228L11.233 27.1158L8.87168 24.7472L7.11386 26.5105ZM7.41709 9.4035V14.7339H3.17339V9.4035C3.17339 4.21464 7.37506 0 12.548 0C17.7209 0 21.9015 4.21464 21.9225 9.4035V14.7339H17.6788V9.4035C17.6788 6.56664 15.3761 4.2568 12.548 4.2568C9.71982 4.2568 7.39607 6.56664 7.39607 9.4035H7.41709Z" fill="#61C454"/>
<path d="M37.0603 4.13031V3.26901H39.2527V4.89373H42.5413V2.19239C42.5413 0.998319 41.543 0.0195761 40.3489 0.0195761H35.9641C34.77 1.19447e-06 33.7913 0.978746 33.7717 2.17282V2.19239V4.14988C33.7717 4.95245 34.0849 5.71587 34.6526 6.30312L39.2527 10.7858V11.9603H37.0603V10.3355H33.7717V13.0369C33.7717 14.231 34.7505 15.2097 35.9445 15.2097H35.9641H40.3489C41.5625 15.2097 42.5413 14.2505 42.5413 13.0369V10.7662C42.5413 9.96363 42.2281 9.2002 41.6604 8.61296L37.0603 4.13031ZM47.5525 4.13031V3.26901H49.7448V4.89373H53.0334V2.19239C53.0334 0.998319 52.0351 0.0195761 50.841 0.0195761H46.4563C45.2622 1.19447e-06 44.2639 0.978746 44.2639 2.17282V2.19239V4.14988C44.2639 4.95245 44.5771 5.71587 45.1447 6.30312L49.7448 10.7858V11.9603H47.5525V10.3355H44.2639V13.0369C44.2639 14.231 45.2426 15.2097 46.4367 15.2097H46.4563H50.841C52.0547 15.2097 53.0334 14.2505 53.0334 13.0369V10.7662C53.0334 9.96363 52.7202 9.2002 52.1526 8.61296L47.5525 4.13031ZM62.4294 11.9211H58.0446V0H54.756V15.1705H62.4294V11.9211Z" fill="white"/>
<path d="M35.8271 24.5468V22.7068H38.9199V24.7621H40.9753V22.7068C40.9753 21.5714 40.0357 20.6514 38.9199 20.6514H35.8271C34.6917 20.6514 33.7717 21.5714 33.7717 22.7068V24.2728C33.7717 25.1145 34.1241 25.8975 34.77 26.4456L38.9395 30.5563V32.9249H35.8467V30.8695H33.7913V32.9249C33.7913 34.0602 34.7113 34.9802 35.8467 34.9802H38.9395C40.0748 34.9802 40.9949 34.0602 40.9949 32.9249V30.8108C40.9949 29.9691 40.6425 29.1861 39.9965 28.638L35.8271 24.5468ZM49.2163 32.9249H45.086V28.4227H48.1789V26.3673H45.086V22.7068H49.2163V20.671H43.0307V34.9998H49.2163C49.2163 34.9802 49.2163 32.9249 49.2163 32.9249ZM58.2208 30.8891H56.1654V32.9444H53.0726V22.7068H56.1654V24.7621H58.2208V22.7068C58.2208 21.5714 57.2812 20.6514 56.1654 20.6514H53.0726C51.9372 20.6514 51.0172 21.5714 51.0172 22.7068V32.9444C51.0172 34.0798 51.9372 34.9998 53.0726 34.9998H56.1654C57.3008 34.9998 58.2208 34.0798 58.2208 32.9444V30.8891ZM67.4993 20.6514H65.4439V32.9249H62.3511V20.6514H60.2957V32.9249C60.2957 34.0602 61.2353 34.9802 62.3511 34.9802H65.4439C66.5793 34.9802 67.4993 34.0602 67.4993 32.9249V20.6514ZM71.6296 27.209V22.7068H74.7224V27.209H71.6296ZM75.1531 29.1469C76.1318 29.0686 76.8561 28.2269 76.7778 27.2482C76.7778 27.2286 76.7778 27.209 76.7778 27.1894V22.6872C76.7778 21.5519 75.8382 20.6318 74.7224 20.6318H69.5742V34.9607H71.6296V29.2252H73.2347L74.5854 34.9607H76.7778L75.1531 29.1469ZM85.0188 32.9444H80.8885V28.4422H83.9813V26.3869H80.8885V22.7068H85.0188V20.671H78.8332V34.9998H85.0188V32.9444ZM88.8751 32.9444V22.7068H91.9679V32.9444H88.8751ZM94.0233 22.7068C94.0233 21.5714 93.0837 20.6514 91.9679 20.6514H86.8197V34.9802H91.9679C93.1033 34.9802 94.0233 34.0602 94.0233 32.9249V22.7068Z" fill="white"/>
</svg>
