<svg width="89" height="36" viewBox="0 0 89 36" fill="none" xmlns="http://www.w3.org/2000/svg">
<path fill-rule="evenodd" clip-rule="evenodd" d="M88.6582 19.0791C88.6582 13.0988 85.6168 8.37988 79.8037 8.37988C73.9661 8.37988 70.4341 13.0988 70.4341 19.0324C70.4341 26.064 74.6038 29.6148 80.5886 29.6148C83.5074 29.6148 85.7149 28.9841 87.3828 28.0964V23.4242C85.7149 24.2185 83.8017 24.709 81.3735 24.709C78.9943 24.709 76.8849 23.9148 76.6151 21.1582H88.6092C88.6092 20.8545 88.6582 19.6398 88.6582 19.0791ZM76.5415 16.8598C76.5415 14.2201 78.2339 13.1221 79.7792 13.1221C81.2754 13.1221 82.8697 14.2201 82.8697 16.8598H76.5415Z" fill="#635BFF"/>
<path fill-rule="evenodd" clip-rule="evenodd" d="M60.9663 8.37988C58.5625 8.37988 57.0173 9.45448 56.1588 10.202L55.84 8.75365H50.4438V35.9923L56.5758 34.7542L56.6003 28.1431C57.4833 28.7505 58.7833 29.6148 60.9417 29.6148C65.3322 29.6148 69.3302 26.2509 69.3302 18.8455C69.3057 12.0709 65.2586 8.37988 60.9663 8.37988ZM59.4946 24.4754C58.0475 24.4754 57.189 23.9849 56.6003 23.3775L56.5758 14.7106C57.2135 14.0332 58.0965 13.566 59.4946 13.566C61.7266 13.566 63.2719 15.9488 63.2719 19.009C63.2719 22.1394 61.7512 24.4754 59.4946 24.4754Z" fill="#635BFF"/>
<path fill-rule="evenodd" clip-rule="evenodd" d="M42.0063 7.00176L48.1628 5.74028V0.998047L42.0063 2.23617V7.00176Z" fill="#635BFF"/>
<path d="M48.1628 8.77734H42.0063V29.218H48.1628V8.77734Z" fill="#635BFF"/>
<path fill-rule="evenodd" clip-rule="evenodd" d="M35.4085 10.5058L35.016 8.77711H29.718V29.2178H35.85V15.3648C37.2971 13.5661 39.7499 13.8931 40.5102 14.1501V8.77711C39.7254 8.49679 36.8556 7.98285 35.4085 10.5058Z" fill="#635BFF"/>
<path fill-rule="evenodd" clip-rule="evenodd" d="M23.1446 3.70801L17.1598 4.92277L17.1353 23.6347C17.1353 27.0921 19.8578 29.6384 23.4879 29.6384C25.4992 29.6384 26.9709 29.288 27.7803 28.8675V24.1253C26.9954 24.429 23.12 25.5036 23.12 22.0462V13.7531H27.7803V8.77729H23.12L23.1446 3.70801Z" fill="#635BFF"/>
<path fill-rule="evenodd" clip-rule="evenodd" d="M6.56368 14.7106C6.56368 13.7996 7.34857 13.4492 8.64854 13.4492C10.5127 13.4492 12.8673 13.9865 14.7314 14.9443V9.45448C12.6956 8.68357 10.6843 8.37988 8.64854 8.37988C3.6694 8.37988 0.358154 10.8561 0.358154 14.991C0.358154 21.4385 9.67871 20.4107 9.67871 23.1906C9.67871 24.2652 8.6976 24.6156 7.32404 24.6156C5.28824 24.6156 2.68829 23.8213 0.627959 22.7467V28.3066C2.90904 29.241 5.21465 29.6382 7.32404 29.6382C12.4258 29.6382 15.9333 27.232 15.9333 23.0504C15.9088 16.0889 6.56368 17.327 6.56368 14.7106Z" fill="#635BFF"/>
</svg>
