<svg width="143" height="35" viewBox="0 0 143 35" fill="none" xmlns="http://www.w3.org/2000/svg">
<path d="M37.5805 12.4048H52.0597V15.0971H46.3665V30.2319H43.2359V15.0971H37.5679V12.4048H37.5805ZM51.4412 17.3239H54.1174V19.8149H54.1679C54.2563 19.4627 54.4204 19.123 54.6602 18.7959C54.9001 18.4688 55.1904 18.1542 55.5312 17.89C55.8721 17.6133 56.2508 17.3994 56.6674 17.2233C57.0839 17.0597 57.5131 16.9716 57.9423 16.9716C58.2706 16.9716 58.5104 16.9842 58.6366 16.9968C58.7629 17.0094 58.8891 17.0345 59.028 17.0471V19.7898C58.826 19.752 58.624 19.7269 58.4094 19.7017C58.1948 19.6765 57.9928 19.664 57.7909 19.664C57.3112 19.664 56.8567 19.7646 56.4275 19.9533C55.9983 20.142 55.6322 20.4314 55.3166 20.7962C55.001 21.1737 54.7486 21.6266 54.5592 22.1801C54.3699 22.7337 54.2815 23.3627 54.2815 24.0798V30.2193H51.4286V17.3239H51.4412ZM72.1439 30.2319H69.3414V28.4328H69.2909C68.9375 29.087 68.4199 29.6028 67.7256 29.9928C67.0313 30.3829 66.3244 30.5842 65.6049 30.5842C63.9007 30.5842 62.6636 30.169 61.9061 29.3261C61.1487 28.4831 60.77 27.2125 60.77 25.5141V17.3239H63.623V25.2373C63.623 26.3696 63.8376 27.1747 64.2794 27.6402C64.7086 28.1057 65.3271 28.3448 66.1098 28.3448C66.7157 28.3448 67.208 28.2567 67.612 28.068C68.016 27.8793 68.3442 27.6402 68.584 27.3257C68.8365 27.0238 69.0132 26.6463 69.1268 26.2186C69.2404 25.7908 69.2909 25.3253 69.2909 24.8221V17.3365H72.1439V30.2319ZM77.004 26.0928C77.0923 26.9231 77.4079 27.5018 77.9507 27.8415C78.5062 28.1686 79.1626 28.3448 79.9326 28.3448C80.1977 28.3448 80.5007 28.3196 80.8415 28.2819C81.1824 28.2441 81.5106 28.156 81.8009 28.0428C82.1039 27.9296 82.3437 27.7535 82.5457 27.527C82.7351 27.3005 82.8234 27.0112 82.8108 26.6463C82.7982 26.2815 82.6593 25.9796 82.4068 25.7531C82.1544 25.5141 81.8388 25.3379 81.4475 25.187C81.0561 25.0486 80.6143 24.9228 80.1094 24.8221C79.6044 24.7215 79.0995 24.6082 78.5819 24.495C78.0517 24.3818 77.5341 24.2308 77.0418 24.0673C76.5495 23.9037 76.1077 23.6772 75.7164 23.3879C75.325 23.1111 75.0094 22.7463 74.7822 22.3059C74.5424 21.8656 74.4287 21.3246 74.4287 20.6704C74.4287 19.9659 74.6055 19.3872 74.9463 18.9091C75.2872 18.431 75.729 18.0536 76.2465 17.7642C76.7767 17.4749 77.3574 17.2736 78.0012 17.1478C78.645 17.0345 79.2636 16.9716 79.8443 16.9716C80.5133 16.9716 81.1571 17.0471 81.7631 17.1855C82.369 17.3239 82.9244 17.5504 83.4167 17.8775C83.9091 18.192 84.313 18.6072 84.6412 19.1104C84.9694 19.6136 85.1714 20.2301 85.2598 20.9472H82.2806C82.1418 20.2678 81.8388 19.8023 81.3465 19.5759C80.8542 19.3368 80.2861 19.2236 79.6549 19.2236C79.4529 19.2236 79.2131 19.2362 78.9354 19.2739C78.6576 19.3117 78.4052 19.3746 78.1527 19.4627C77.9129 19.5507 77.7109 19.6891 77.5341 19.8652C77.37 20.0414 77.2817 20.2678 77.2817 20.5572C77.2817 20.9095 77.4079 21.1862 77.6478 21.4001C77.8876 21.614 78.2032 21.7901 78.5945 21.9411C78.9859 22.0795 79.4277 22.2053 79.9326 22.3059C80.4376 22.4066 80.9551 22.5198 81.4853 22.633C82.0029 22.7463 82.5078 22.8972 83.0128 23.0608C83.5177 23.2243 83.9596 23.4508 84.3509 23.7402C84.7422 24.0295 85.0578 24.3818 85.2977 24.8095C85.5375 25.2373 85.6637 25.7783 85.6637 26.4073C85.6637 27.1747 85.487 27.8164 85.1335 28.3573C84.7801 28.8857 84.3256 29.3261 83.7702 29.6532C83.2148 29.9803 82.5836 30.2319 81.9019 30.3829C81.2202 30.5338 80.5386 30.6093 79.8695 30.6093C79.049 30.6093 78.2916 30.5212 77.5973 30.3325C76.903 30.1438 76.297 29.867 75.7921 29.5022C75.2872 29.1248 74.8832 28.6593 74.5929 28.1057C74.3025 27.5522 74.151 26.8854 74.1258 26.1179H77.004V26.0928ZM86.4212 17.3239H88.5798V13.449H91.4327V17.3239H94.0079V19.4501H91.4327V26.3444C91.4327 26.6463 91.4453 26.898 91.4706 27.1244C91.4958 27.3383 91.559 27.527 91.6473 27.678C91.7357 27.8289 91.8745 27.9422 92.0639 28.0177C92.2533 28.0931 92.4931 28.1309 92.8213 28.1309C93.0233 28.1309 93.2253 28.1309 93.4272 28.1183C93.6292 28.1057 93.8312 28.0806 94.0332 28.0302V30.2319C93.7176 30.2696 93.402 30.2948 93.1117 30.3325C92.8087 30.3703 92.5057 30.3829 92.1901 30.3829C91.4327 30.3829 90.8268 30.3074 90.3723 30.169C89.9179 30.0306 89.5518 29.8167 89.2993 29.5399C89.0342 29.2632 88.8701 28.9235 88.7691 28.5083C88.6808 28.0931 88.6177 27.6151 88.605 27.0867V19.4752H86.4464V17.3239H86.4212ZM96.0277 17.3239H98.7291V19.0727H98.7796C99.1836 18.3178 99.739 17.7894 100.459 17.4623C101.178 17.1352 101.948 16.9716 102.794 16.9716C103.816 16.9716 104.7 17.1478 105.458 17.5126C106.215 17.8649 106.846 18.3555 107.351 18.9846C107.856 19.6136 108.222 20.3433 108.475 21.1737C108.727 22.004 108.853 22.8972 108.853 23.8408C108.853 24.7089 108.74 25.5518 108.512 26.357C108.285 27.1747 107.944 27.8918 107.49 28.5209C107.035 29.1499 106.455 29.6406 105.748 30.018C105.041 30.3954 104.22 30.5842 103.261 30.5842C102.844 30.5842 102.428 30.5464 102.011 30.4709C101.595 30.3954 101.191 30.2696 100.812 30.1061C100.433 29.9425 100.067 29.7287 99.7517 29.4645C99.4235 29.2003 99.1584 28.8983 98.9311 28.5586H98.8806V35H96.0277V17.3239ZM106 23.7905C106 23.2118 105.925 22.6456 105.773 22.0921C105.622 21.5385 105.394 21.0604 105.091 20.6327C104.788 20.2049 104.41 19.8652 103.968 19.6136C103.513 19.362 102.996 19.2236 102.415 19.2236C101.216 19.2236 100.307 19.6388 99.7012 20.4691C99.0952 21.2995 98.7923 22.4066 98.7923 23.7905C98.7923 24.4447 98.868 25.0486 99.0321 25.6021C99.1962 26.1557 99.4235 26.6338 99.7517 27.0363C100.067 27.4389 100.446 27.7535 100.888 27.9799C101.33 28.2189 101.847 28.3322 102.428 28.3322C103.084 28.3322 103.627 28.1938 104.082 27.9296C104.536 27.6654 104.902 27.3131 105.192 26.898C105.483 26.4702 105.697 25.9921 105.824 25.4512C105.937 24.9102 106 24.3566 106 23.7905ZM111.037 12.4048H113.89V15.0971H111.037V12.4048ZM111.037 17.3239H113.89V30.2319H111.037V17.3239ZM116.44 12.4048H119.293V30.2319H116.44V12.4048ZM128.041 30.5842C127.006 30.5842 126.084 30.408 125.277 30.0683C124.469 29.7287 123.787 29.2506 123.219 28.6593C122.663 28.0554 122.234 27.3383 121.944 26.5079C121.654 25.6776 121.502 24.7592 121.502 23.7653C121.502 22.784 121.654 21.8782 121.944 21.0478C122.234 20.2175 122.663 19.5004 123.219 18.8965C123.774 18.2926 124.469 17.8271 125.277 17.4875C126.084 17.1478 127.006 16.9716 128.041 16.9716C129.076 16.9716 129.998 17.1478 130.806 17.4875C131.614 17.8271 132.295 18.3052 132.863 18.8965C133.419 19.5004 133.848 20.2175 134.138 21.0478C134.429 21.8782 134.58 22.784 134.58 23.7653C134.58 24.7592 134.429 25.6776 134.138 26.5079C133.848 27.3383 133.419 28.0554 132.863 28.6593C132.308 29.2632 131.614 29.7287 130.806 30.0683C129.998 30.408 129.076 30.5842 128.041 30.5842ZM128.041 28.3322C128.672 28.3322 129.228 28.1938 129.695 27.9296C130.162 27.6654 130.541 27.3131 130.844 26.8854C131.147 26.4576 131.361 25.967 131.513 25.426C131.651 24.885 131.727 24.3315 131.727 23.7653C131.727 23.2118 131.651 22.6708 131.513 22.1172C131.374 21.5637 131.147 21.0856 130.844 20.6578C130.541 20.2301 130.162 19.8904 129.695 19.6262C129.228 19.362 128.672 19.2236 128.041 19.2236C127.41 19.2236 126.854 19.362 126.387 19.6262C125.92 19.8904 125.542 20.2427 125.239 20.6578C124.936 21.0856 124.721 21.5637 124.57 22.1172C124.431 22.6708 124.355 23.2118 124.355 23.7653C124.355 24.3315 124.431 24.885 124.57 25.426C124.708 25.967 124.936 26.4576 125.239 26.8854C125.542 27.3131 125.92 27.6654 126.387 27.9296C126.854 28.2064 127.41 28.3322 128.041 28.3322ZM135.413 17.3239H137.572V13.449H140.425V17.3239H143V19.4501H140.425V26.3444C140.425 26.6463 140.437 26.898 140.463 27.1244C140.488 27.3383 140.551 27.527 140.639 27.678C140.728 27.8289 140.867 27.9422 141.056 28.0177C141.245 28.0931 141.485 28.1309 141.813 28.1309C142.015 28.1309 142.217 28.1309 142.419 28.1183C142.621 28.1057 142.823 28.0806 143.025 28.0302V30.2319C142.71 30.2696 142.394 30.2948 142.104 30.3325C141.801 30.3703 141.498 30.3829 141.182 30.3829C140.425 30.3829 139.819 30.3074 139.364 30.169C138.91 30.0306 138.544 29.8167 138.291 29.5399C138.026 29.2632 137.862 28.9235 137.761 28.5083C137.673 28.0931 137.61 27.6151 137.597 27.0867V19.4752H135.439V17.3239H135.413Z" fill="white"/>
<path d="M34.2478 12.4047H21.1698L17.1302 0L13.078 12.4047L0 12.3922L10.5912 20.0665L6.53902 32.4587L17.1302 24.7969L27.7088 32.4587L23.6692 20.0665L34.2478 12.4047Z" fill="#00B67A"/>
<path d="M24.578 22.8719L23.6691 20.0664L17.1301 24.7968L24.578 22.8719Z" fill="#005128"/>
<defs>
<clipPath id="clip0_5058_214">
<rect width="143" height="35" fill="white"/>
</clipPath>
</defs>
</svg>
