<svg width="108" height="35" viewBox="0 0 108 35" fill="none" xmlns="http://www.w3.org/2000/svg">
<g clip-path="url(#clip0_5531_252)">
<path d="M70.3668 0C62.7084 0 55.8323 3.99412 55.8323 11.3235C55.8323 19.7647 67.9787 20.3412 67.9787 24.5412C67.9787 26.3118 65.9199 27.9176 62.4613 27.9176C57.5204 27.9176 53.8147 25.6941 53.8147 25.6941L52.2501 33.1059C52.2501 33.1059 56.491 35 62.1731 35C70.5726 35 77.1605 30.8412 77.1605 23.3471C77.1605 14.4529 64.9729 13.8765 64.9729 9.96471C64.9729 8.56471 66.6611 7.04118 70.1197 7.04118C74.0313 7.04118 77.2429 8.64706 77.2429 8.64706L78.8075 1.48235C78.7663 1.48235 75.2665 0 70.3668 0ZM0.205871 0.535294L0 1.60588C0 1.60588 3.21159 2.18235 6.13496 3.37647C9.88181 4.73529 10.1289 5.51765 10.7876 7.94706L17.6637 34.4235H26.8868L41.0095 0.535294H31.8277L22.7282 23.5941L19.0225 4.03529C18.6931 1.81176 16.9638 0.535294 14.8227 0.535294H0.205871ZM44.7152 0.535294L37.5097 34.4235H46.2798L53.4442 0.535294H44.7152ZM93.5479 0.535294C91.448 0.535294 90.3363 1.64706 89.5128 3.62353L76.6664 34.4235H85.8483L87.6188 29.2765H98.8182L99.8887 34.4235H108L100.959 0.535294H93.5479ZM94.7419 9.71765L97.4594 22.4412H90.1716L94.7419 9.71765Z" fill="#1434CB"/>
</g>
<defs>
<clipPath id="clip0_5531_252">
<rect width="108" height="35" fill="white"/>
</clipPath>
</defs>
</svg>
